ply
format ascii 1.0
comment Created in Blender version 4.1.1
element vertex 65
property float x
property float y
property float z
property float nx
property float ny
property float nz
property float s
property float t
element face 62
property list uchar uint vertex_indices
end_header
0 0.0038962066 0.4961038 0 0.44721365 0.8944271 0.25 0.49
0 0.99610376 0 7.414265e-08 1 1.7883654e-08 0.25 0.25
-0.096785046 0.0038962066 0.48657128 -0.17449409 0.4472136 0.877241 0.29682168 0.48538846
-0.18985072 0.0038962066 0.45834014 -0.34228233 0.4472136 0.826343 0.34184402 0.47173107
-0.27562052 0.0038962066 0.41249523 -0.49691728 0.44721365 0.74368894 0.38333684 0.4495527
-0.35079834 0.0038962066 0.35079834 -0.6324555 0.44721362 0.6324555 0.41970563 0.41970563
-0.41249523 0.0038962066 0.27562052 -0.74368894 0.44721362 0.49691725 0.4495527 0.38333684
-0.45834014 0.0038962066 0.18985072 -0.82634306 0.4472136 0.34228233 0.47173107 0.34184402
-0.48657128 0.0038962066 0.096785046 -0.8772411 0.4472136 0.1744941 0.48538846 0.29682168
-0.4961038 0.0038962066 0 -0.8944271 0.44721365 0 0.49 0.25
-0.48657128 0.0038962066 -0.096785046 -0.8772411 0.4472136 -0.1744941 0.48538846 0.20317832
-0.45834014 0.0038962066 -0.18985072 -0.82634306 0.4472136 -0.34228233 0.47173107 0.15815598
-0.41249523 0.0038962066 -0.27562052 -0.74368894 0.44721362 -0.49691725 0.4495527 0.11666314
-0.35079834 0.0038962066 -0.35079834 -0.6324556 0.44721362 -0.6324556 0.41970563 0.080294386
-0.27562052 0.0038962066 -0.41249523 -0.49691728 0.44721362 -0.74368894 0.38333684 0.0504473
-0.18985072 0.0038962066 -0.45834014 -0.34228233 0.4472136 -0.826343 0.34184402 0.028268918
-0.096785046 0.0038962066 -0.48657128 -0.17449409 0.4472136 -0.877241 0.29682168 0.014611542
0 0.0038962066 -0.4961038 0 0.44721365 -0.8944271 0.25 0.010000005
0.096785046 0.0038962066 -0.48657128 0.17449409 0.4472136 -0.877241 0.20317832 0.014611542
0.18985072 0.0038962066 -0.45834014 0.34228233 0.4472136 -0.826343 0.15815598 0.028268918
0.27562052 0.0038962066 -0.41249523 0.49691728 0.44721365 -0.74368894 0.11666314 0.0504473
0.35079834 0.0038962066 -0.35079834 0.6324555 0.44721362 -0.6324555 0.080294386 0.080294386
0.41249523 0.0038962066 -0.27562052 0.74368894 0.44721362 -0.49691725 0.0504473 0.11666314
0.45834014 0.0038962066 -0.18985072 0.82634306 0.4472136 -0.34228233 0.028268918 0.15815598
0.48657128 0.0038962066 -0.096785046 0.8772411 0.4472136 -0.1744941 0.014611542 0.20317832
0.4961038 0.0038962066 0 0.8944271 0.44721365 0 0.010000005 0.25
0.48657128 0.0038962066 0.096785046 0.8772411 0.4472136 0.1744941 0.014611542 0.29682168
0.45834014 0.0038962066 0.18985072 0.82634306 0.4472136 0.34228233 0.028268918 0.34184402
0.41249523 0.0038962066 0.27562052 0.74368894 0.44721362 0.49691725 0.0504473 0.38333684
0.35079834 0.0038962066 0.35079834 0.6324556 0.44721362 0.6324556 0.080294386 0.41970563
0.27562052 0.0038962066 0.41249523 0.49691728 0.44721362 0.74368894 0.11666314 0.4495527
0.18985072 0.0038962066 0.45834014 0.34228233 0.4472136 0.826343 0.15815598 0.47173107
-0.096785046 0.0038962066 -0.48657128 -3.8795525e-10 -1 0 0.79682165 0.014611542
0.48657128 0.0038962066 -0.096785046 -9.386487e-10 -1 0 0.51461154 0.20317832
0.096785046 0.0038962066 0.48657128 3.8795528e-10 -1 0 0.70317835 0.48538846
0.096785046 0.0038962066 0.48657128 0.17449409 0.4472136 0.877241 0.20317832 0.48538846
0 0.0038962066 0.4961038 0 -1 0 0.75 0.49
-0.096785046 0.0038962066 0.48657128 -5.2564936e-10 -1 0 0.79682165 0.48538846
-0.18985072 0.0038962066 0.45834014 -1.5772695e-08 -1 0 0.841844 0.47173107
-0.27562052 0.0038962066 0.41249523 -5.256437e-10 -1 0 0.88333684 0.4495527
-0.35079834 0.0038962066 0.35079834 0 -1 0 0.9197056 0.41970563
-0.41249523 0.0038962066 0.27562052 1.0512523e-09 -1 0 0.9495527 0.38333684
-0.45834014 0.0038962066 0.18985072 3.154533e-08 -1 0 0.97173107 0.34184402
-0.48657128 0.0038962066 0.096785046 9.386485e-10 -1 0 0.98538846 0.29682168
-0.4961038 0.0038962066 0 0 -1 0 0.99 0.25
-0.48657128 0.0038962066 -0.096785046 -1.7975572e-09 -1 0 0.98538846 0.20317832
-0.45834014 0.0038962066 -0.18985072 3.154533e-08 -1 0 0.97173107 0.15815598
-0.41249523 0.0038962066 -0.27562052 -1.1490384e-09 -1 0 0.9495527 0.11666314
-0.35079834 0.0038962066 -0.35079834 0 -1 0 0.9197056 0.080294386
-0.27562052 0.0038962066 -0.41249523 3.526042e-09 -1 0 0.88333684 0.0504473
-0.18985072 0.0038962066 -0.45834014 -7.886348e-09 -1 0 0.841844 0.028268918
0 0.0038962066 -0.4961038 0 -1 0 0.75 0.010000005
0.096785046 0.0038962066 -0.48657128 5.2564936e-10 -1 0 0.70317835 0.014611542
0.18985072 0.0038962066 -0.45834014 1.5772695e-08 -1 0 0.658156 0.028268918
0.27562052 0.0038962066 -0.41249523 5.256437e-10 -1 0 0.61666316 0.0504473
0.35079834 0.0038962066 -0.35079834 0 -1 0 0.5802944 0.080294386
0.41249523 0.0038962066 -0.27562052 -1.0512523e-09 -1 0 0.5504473 0.11666314
0.45834014 0.0038962066 -0.18985072 -3.154533e-08 -1 0 0.52826893 0.15815598
0.4961038 0.0038962066 0 0 -1 0 0.51 0.25
0.48657128 0.0038962066 0.096785046 1.7975572e-09 -1 0 0.51461154 0.29682168
0.45834014 0.0038962066 0.18985072 -3.154533e-08 -1 0 0.52826893 0.34184402
0.41249523 0.0038962066 0.27562052 1.1490384e-09 -1 0 0.5504473 0.38333684
0.35079834 0.0038962066 0.35079834 0 -1 0 0.5802944 0.41970563
0.27562052 0.0038962066 0.41249523 -3.526042e-09 -1 0 0.61666316 0.4495527
0.18985072 0.0038962066 0.45834014 7.886348e-09 -1 0 0.658156 0.47173107
3 0 1 2
3 2 1 3
3 3 1 4
3 4 1 5
3 5 1 6
3 6 1 7
3 7 1 8
3 8 1 9
3 9 1 10
3 10 1 11
3 11 1 12
3 12 1 13
3 13 1 14
3 14 1 15
3 15 1 16
3 16 1 17
3 17 1 18
3 18 1 19
3 19 1 20
3 20 1 21
3 21 1 22
3 22 1 23
3 23 1 24
3 24 1 25
3 25 1 26
3 26 1 27
3 27 1 28
3 28 1 29
3 29 1 30
3 30 1 31
3 32 33 34
3 31 1 35
3 35 1 0
3 34 36 37
3 37 38 39
3 39 40 41
3 41 42 43
3 43 44 45
3 45 46 47
3 47 48 49
3 49 50 32
3 32 51 52
3 52 53 54
3 54 55 56
3 56 57 33
3 33 58 59
3 59 60 61
3 61 62 63
3 63 64 34
3 34 37 43
3 37 39 43
3 39 41 43
3 43 45 32
3 45 47 32
3 47 49 32
3 32 52 33
3 52 54 33
3 54 56 33
3 33 59 34
3 59 61 34
3 61 63 34
3 34 43 32
