ply
format ascii 1.0
comment Created in Blender version 4.0.2
element vertex 16
property float x
property float y
property float z
property float nx
property float ny
property float nz
property float s
property float t
element face 12
property list uchar uint vertex_indices
end_header
-0.5 -0.5 0.5 -0.70710677 -0.70710677 0 0 1
-0.5 0.5 -0.5 -1 0 0 1 0
-0.5 -0.5 -0.5 -0.5773503 -0.5773503 -0.5773503 0 0
-0.5 0.5 0.5 0 0.70710677 0.70710677 0 1
0.5 0.5 -0.5 0.70710677 0.70710677 0 1 0
-0.5 0.5 -0.5 0 1 0 0 0
0.5 0.5 0.5 0.5773503 0.5773503 0.5773503 1 1
0.5 -0.5 -0.5 1 0 0 0 0
0.5 -0.5 0.5 0 -1 0 1 1
0.5 -0.5 -0.5 0 -0.70710677 -0.70710677 1 0
0.5 0.5 -0.5 0 0 -1 1 1
-0.5 0.5 -0.5 0 0 -1 0 1
0.5 -0.5 0.5 0 0 1 1 0
-0.5 0.5 0.5 -1 0 0 1 1
0.5 -0.5 0.5 1 0 0 0 1
-0.5 -0.5 0.5 0 0 1 0 0
3 0 1 2
3 3 4 5
3 6 7 4
3 8 2 9
3 10 2 11
3 3 12 6
3 0 13 1
3 3 6 4
3 6 14 7
3 8 0 2
3 10 9 2
3 3 15 12
