ply
format ascii 1.0
comment Created by Blender 3.6.4 - www.blender.org
element vertex 712
property float x
property float y
property float z
property float s
property float t
element face 692
property list uchar uint vertex_indices
end_header
1.649774 -0.095416 0.185978 0.704568 0.493065
1.738347 -0.095416 0.191807 0.718910 0.494009
1.708067 -0.095416 0.193969 0.714007 0.494359
1.769253 -0.095416 0.185262 0.723914 0.492949
1.605256 -0.095416 0.162959 0.697360 0.489338
1.801053 -0.095416 0.174245 0.729063 0.491165
1.834016 -0.095416 0.158665 0.734400 0.488642
1.576840 -0.095416 0.126343 0.692759 0.483409
1.709975 -0.095416 0.119545 0.714316 0.482308
1.735931 -0.095416 0.116965 0.718519 0.481890
1.765913 -0.095416 0.108930 0.723373 0.480589
1.798936 -0.095416 0.094990 0.728720 0.478332
1.834016 -0.095416 0.074699 0.734400 0.475046
1.566851 -0.095416 0.077562 0.691141 0.475510
1.686688 -0.095416 0.116652 0.710545 0.481840
1.668947 -0.095416 0.108572 0.707672 0.480531
1.657646 -0.095416 0.096198 0.705843 0.478528
1.653680 -0.095416 0.080424 0.705200 0.475974
1.659330 -0.095416 0.065128 0.706115 0.473497
1.598160 -0.095416 0.004971 0.696211 0.463756
1.677415 -0.095416 0.046790 0.709044 0.470527
1.709632 -0.095416 0.023801 0.714260 0.466805
1.757683 -0.095416 -0.005450 0.722041 0.462069
1.667038 -0.095416 -0.046598 0.707363 0.455406
1.802529 -0.095416 -0.037787 0.729302 0.456833
1.832346 -0.095416 -0.066636 0.734130 0.452162
1.735917 -0.095416 -0.087612 0.718516 0.448765
1.848925 -0.095416 -0.094947 0.736814 0.447577
1.767225 -0.095416 -0.128537 0.723586 0.442139
1.854053 -0.095416 -0.125674 0.737645 0.442602
1.563989 -0.095416 -0.212503 0.690678 0.428543
1.604421 -0.095416 -0.145801 0.697224 0.439343
1.563989 -0.095416 -0.120904 0.690678 0.443375
1.843394 -0.095416 -0.177154 0.735919 0.434266
1.762216 -0.095416 -0.148753 0.722775 0.438865
1.641991 -0.095416 -0.163364 0.703308 0.436499
1.748619 -0.095416 -0.163602 0.720573 0.436461
1.675626 -0.095416 -0.173770 0.708754 0.434814
1.728582 -0.095416 -0.173084 0.717328 0.434925
1.704250 -0.095416 -0.177199 0.713389 0.434259
1.813859 -0.095416 -0.216916 0.731137 0.427828
1.603214 -0.095416 -0.230691 0.697029 0.425598
1.769118 -0.095416 -0.242544 0.723892 0.423679
1.639487 -0.095416 -0.242797 0.702902 0.423637
1.712838 -0.095416 -0.251623 0.714779 0.422208
1.675223 -0.095416 -0.249536 0.708689 0.422546
1.105038 -0.095416 -0.080829 0.616364 0.449863
1.189958 -0.095416 0.185382 0.630115 0.492968
1.105038 -0.095416 0.185382 0.616364 0.492968
1.189958 -0.095416 -0.086554 0.630115 0.448936
1.379836 -0.095416 -0.120904 0.660860 0.443375
1.464756 -0.095416 0.185382 0.674610 0.492968
1.379836 -0.095416 0.185382 0.660860 0.492968
1.464756 -0.095416 -0.243036 0.674610 0.423599
1.115937 -0.095416 -0.153405 0.618129 0.438112
1.195490 -0.095416 -0.126673 0.631010 0.442440
1.357577 -0.095416 -0.146800 0.657256 0.439181
1.212023 -0.095416 -0.156327 0.633687 0.437639
1.332725 -0.095416 -0.165630 0.653231 0.436132
1.379836 -0.095416 -0.188649 0.660860 0.432405
1.146425 -0.095416 -0.207016 0.623066 0.429431
1.239470 -0.095416 -0.174709 0.638132 0.434662
1.305904 -0.095416 -0.177124 0.648888 0.434271
1.277741 -0.095416 -0.181016 0.644328 0.433641
1.351018 -0.095416 -0.214590 0.656193 0.428205
1.379836 -0.095416 -0.243036 0.660860 0.423599
1.193194 -0.095416 -0.240233 0.630638 0.424053
1.318889 -0.095416 -0.234448 0.650991 0.424989
1.285509 -0.095416 -0.247151 0.645586 0.422933
1.252933 -0.095416 -0.251623 0.640311 0.422208
0.900848 -0.095416 -0.243036 0.583302 0.423599
0.985768 -0.095416 0.407701 0.597052 0.528966
0.900848 -0.095416 0.407701 0.583302 0.528966
0.985768 -0.095416 -0.243036 0.597052 0.423599
0.416135 -0.095416 -0.462493 0.504817 0.388064
0.501055 -0.095416 0.109049 0.518567 0.480608
0.416135 -0.095416 0.185382 0.504817 0.492968
0.563076 -0.095416 0.185382 0.528610 0.492968
0.666811 -0.095416 0.171248 0.545407 0.490680
0.742458 -0.095416 0.129563 0.557655 0.483930
0.578342 -0.095416 0.109049 0.531082 0.480608
0.639155 -0.095416 0.099612 0.540929 0.479080
0.788764 -0.095416 0.061401 0.565153 0.472893
0.501055 -0.095416 -0.156207 0.518567 0.437658
0.682704 -0.095416 0.072194 0.547980 0.474641
0.708898 -0.095416 0.028139 0.552221 0.467508
0.804478 -0.095416 -0.032167 0.567698 0.457743
0.717650 -0.095416 -0.031213 0.553638 0.457897
0.707467 -0.095416 -0.088745 0.551990 0.448582
0.788332 -0.095416 -0.120799 0.565083 0.443391
0.679125 -0.095416 -0.134381 0.547401 0.441192
0.743293 -0.095416 -0.190199 0.557791 0.432154
0.635935 -0.095416 -0.164452 0.540407 0.436323
0.520690 -0.095416 -0.164422 0.521747 0.436328
0.501055 -0.095416 -0.232540 0.518567 0.425298
0.540772 -0.095416 -0.170401 0.524998 0.435360
0.581205 -0.095416 -0.175291 0.531545 0.434568
0.561033 -0.095416 -0.174053 0.528279 0.434769
0.674459 -0.095416 -0.235447 0.546645 0.424828
0.501055 -0.095416 -0.462493 0.518567 0.388064
0.524268 -0.095416 -0.241157 0.522326 0.423903
0.586930 -0.095416 -0.251623 0.532472 0.422208
0.545782 -0.095416 -0.247091 0.525809 0.422942
0.566400 -0.095416 -0.250520 0.529148 0.422387
1.649774 0.095416 0.185978 0.704568 0.493065
1.708067 0.095416 0.193969 0.714007 0.494359
1.738347 0.095416 0.191807 0.718910 0.494009
1.769253 0.095416 0.185262 0.723914 0.492949
1.605256 0.095416 0.162959 0.697360 0.489338
1.801053 0.095416 0.174245 0.729063 0.491165
1.834016 0.095416 0.158665 0.734400 0.488642
1.576840 0.095416 0.126343 0.692759 0.483409
1.709975 0.095416 0.119545 0.714316 0.482308
1.735931 0.095416 0.116965 0.718519 0.481890
1.765913 0.095416 0.108930 0.723373 0.480589
1.798936 0.095416 0.094990 0.728720 0.478332
1.834016 0.095416 0.074699 0.734400 0.475046
1.566851 0.095416 0.077562 0.691141 0.475510
1.686688 0.095416 0.116652 0.710545 0.481840
1.668947 0.095416 0.108572 0.707672 0.480531
1.657646 0.095416 0.096198 0.705843 0.478528
1.653680 0.095416 0.080424 0.705200 0.475974
1.659330 0.095416 0.065128 0.706115 0.473497
1.598160 0.095416 0.004971 0.696211 0.463756
1.677415 0.095416 0.046790 0.709044 0.470527
1.709632 0.095416 0.023801 0.714260 0.466805
1.757683 0.095416 -0.005450 0.722041 0.462069
1.667038 0.095416 -0.046598 0.707363 0.455406
1.802529 0.095416 -0.037787 0.729302 0.456833
1.832346 0.095416 -0.066636 0.734130 0.452162
1.735917 0.095416 -0.087612 0.718516 0.448765
1.848925 0.095416 -0.094947 0.736814 0.447577
1.767225 0.095416 -0.128537 0.723586 0.442139
1.854053 0.095416 -0.125674 0.737645 0.442602
1.563989 0.095416 -0.212503 0.690678 0.428543
1.563989 0.095416 -0.120904 0.690678 0.443375
1.604421 0.095416 -0.145801 0.697224 0.439343
1.843394 0.095416 -0.177154 0.735919 0.434266
1.762216 0.095416 -0.148753 0.722775 0.438865
1.641991 0.095416 -0.163364 0.703308 0.436499
1.748619 0.095416 -0.163602 0.720573 0.436461
1.675626 0.095416 -0.173770 0.708754 0.434814
1.728582 0.095416 -0.173084 0.717328 0.434925
1.704250 0.095416 -0.177199 0.713389 0.434259
1.813859 0.095416 -0.216916 0.731137 0.427828
1.603214 0.095416 -0.230691 0.697029 0.425598
1.769118 0.095416 -0.242544 0.723892 0.423679
1.639487 0.095416 -0.242797 0.702902 0.423637
1.712838 0.095416 -0.251623 0.714779 0.422208
1.675223 0.095416 -0.249536 0.708689 0.422546
1.105038 0.095416 -0.080829 0.616364 0.449863
1.105038 0.095416 0.185382 0.616364 0.492968
1.189958 0.095416 0.185382 0.630115 0.492968
1.189958 0.095416 -0.086554 0.630115 0.448936
1.379836 0.095416 -0.120904 0.660860 0.443375
1.379836 0.095416 0.185382 0.660860 0.492968
1.464756 0.095416 0.185382 0.674610 0.492968
1.464756 0.095416 -0.243036 0.674610 0.423599
1.115937 0.095416 -0.153405 0.618129 0.438112
1.195490 0.095416 -0.126673 0.631010 0.442440
1.357577 0.095416 -0.146800 0.657256 0.439181
1.212023 0.095416 -0.156327 0.633687 0.437639
1.332725 0.095416 -0.165630 0.653231 0.436132
1.379836 0.095416 -0.188649 0.660860 0.432405
1.146425 0.095416 -0.207016 0.623066 0.429431
1.239470 0.095416 -0.174709 0.638132 0.434662
1.305904 0.095416 -0.177124 0.648888 0.434271
1.277741 0.095416 -0.181016 0.644328 0.433641
1.351018 0.095416 -0.214590 0.656193 0.428205
1.379836 0.095416 -0.243036 0.660860 0.423599
1.193194 0.095416 -0.240233 0.630638 0.424053
1.318889 0.095416 -0.234448 0.650991 0.424989
1.285509 0.095416 -0.247151 0.645586 0.422933
1.252933 0.095416 -0.251623 0.640311 0.422208
0.900848 0.095416 -0.243036 0.583302 0.423599
0.900848 0.095416 0.407701 0.583302 0.528966
0.985768 0.095416 0.407701 0.597052 0.528966
0.985768 0.095416 -0.243036 0.597052 0.423599
0.416135 0.095416 -0.462493 0.504817 0.388064
0.416135 0.095416 0.185382 0.504817 0.492968
0.501055 0.095416 0.109049 0.518567 0.480608
0.563076 0.095416 0.185382 0.528610 0.492968
0.666811 0.095416 0.171248 0.545407 0.490680
0.742458 0.095416 0.129563 0.557655 0.483930
0.578342 0.095416 0.109049 0.531082 0.480608
0.639155 0.095416 0.099612 0.540929 0.479080
0.788764 0.095416 0.061401 0.565153 0.472893
0.501055 0.095416 -0.156207 0.518567 0.437658
0.682704 0.095416 0.072195 0.547980 0.474641
0.708898 0.095416 0.028139 0.552221 0.467508
0.804478 0.095416 -0.032167 0.567698 0.457743
0.717650 0.095416 -0.031213 0.553638 0.457897
0.707467 0.095416 -0.088745 0.551990 0.448582
0.788332 0.095416 -0.120799 0.565083 0.443391
0.679125 0.095416 -0.134381 0.547401 0.441192
0.743293 0.095416 -0.190199 0.557791 0.432154
0.635935 0.095416 -0.164452 0.540407 0.436323
0.520690 0.095416 -0.164422 0.521747 0.436328
0.501055 0.095416 -0.232540 0.518567 0.425298
0.540772 0.095416 -0.170401 0.524998 0.435360
0.581205 0.095416 -0.175291 0.531545 0.434568
0.561033 0.095416 -0.174053 0.528279 0.434769
0.674459 0.095416 -0.235447 0.546645 0.424828
0.501055 0.095416 -0.462493 0.518567 0.388064
0.524268 0.095416 -0.241157 0.522326 0.423903
0.586930 0.095416 -0.251623 0.532472 0.422208
0.545782 0.095416 -0.247091 0.525809 0.422942
0.566400 0.095416 -0.250520 0.529148 0.422387
0.416135 -0.095416 0.185382 0.504817 0.492968
0.416135 0.095416 -0.462493 0.504817 0.388064
0.416135 -0.095416 -0.462493 0.504817 0.388064
0.563076 -0.095416 0.185382 0.528610 0.492968
0.416135 0.095416 0.185382 0.504817 0.492968
0.666811 -0.095416 0.171248 0.545407 0.490680
0.563076 0.095416 0.185382 0.528610 0.492968
0.742458 -0.095416 0.129563 0.557655 0.483930
0.666811 0.095416 0.171248 0.545407 0.490680
0.788764 -0.095416 0.061401 0.565153 0.472893
0.742458 0.095416 0.129563 0.557655 0.483930
0.804478 -0.095416 -0.032167 0.567698 0.457743
0.788764 0.095416 0.061401 0.565153 0.472893
0.788332 -0.095416 -0.120799 0.565083 0.443391
0.804478 0.095416 -0.032167 0.567698 0.457743
0.743293 -0.095416 -0.190199 0.557791 0.432154
0.788332 0.095416 -0.120799 0.565083 0.443391
0.674459 -0.095416 -0.235447 0.546645 0.424828
0.743293 0.095416 -0.190199 0.557791 0.432154
0.586930 -0.095416 -0.251623 0.532472 0.422208
0.674459 0.095416 -0.235447 0.546645 0.424828
0.566400 -0.095416 -0.250520 0.529148 0.422387
0.586930 0.095416 -0.251623 0.532472 0.422208
0.545782 -0.095416 -0.247091 0.525809 0.422942
0.566400 0.095416 -0.250520 0.529148 0.422387
0.524268 -0.095416 -0.241157 0.522326 0.423903
0.545782 0.095416 -0.247091 0.525809 0.422942
0.501055 -0.095416 -0.232540 0.518567 0.425298
0.524268 0.095416 -0.241157 0.522326 0.423903
0.501055 -0.095416 -0.462493 0.518567 0.388064
0.501055 0.095416 -0.232540 0.518567 0.425298
0.501055 0.095416 -0.462493 0.518567 0.388064
0.540772 -0.095416 -0.170401 0.524998 0.435360
0.520690 0.095416 -0.164422 0.521747 0.436328
0.520690 -0.095416 -0.164422 0.521747 0.436328
0.561033 -0.095416 -0.174053 0.528279 0.434769
0.540772 0.095416 -0.170401 0.524998 0.435360
0.581205 -0.095416 -0.175291 0.531545 0.434568
0.561033 0.095416 -0.174053 0.528279 0.434769
0.635935 -0.095416 -0.164452 0.540407 0.436323
0.581205 0.095416 -0.175291 0.531545 0.434568
0.679125 -0.095416 -0.134381 0.547401 0.441192
0.635935 0.095416 -0.164452 0.540407 0.436323
0.707467 -0.095416 -0.088745 0.551990 0.448582
0.679125 0.095416 -0.134381 0.547401 0.441192
0.717650 -0.095416 -0.031213 0.553638 0.457897
0.707467 0.095416 -0.088745 0.551990 0.448582
0.708898 -0.095416 0.028139 0.552221 0.467508
0.717650 0.095416 -0.031213 0.553638 0.457897
0.682704 -0.095416 0.072194 0.547980 0.474641
0.708898 0.095416 0.028139 0.552221 0.467508
0.639155 -0.095416 0.099612 0.540929 0.479080
0.682704 0.095416 0.072195 0.547980 0.474641
0.578342 -0.095416 0.109049 0.531082 0.480608
0.639155 0.095416 0.099612 0.540929 0.479080
0.501055 -0.095416 0.109049 0.518567 0.480608
0.578342 0.095416 0.109049 0.531082 0.480608
0.501055 -0.095416 -0.156207 0.518567 0.437658
0.501055 0.095416 0.109049 0.518567 0.480608
0.501055 0.095416 -0.156207 0.518567 0.437658
0.900848 -0.095416 0.407701 0.583302 0.528966
0.900848 0.095416 -0.243036 0.583302 0.423599
0.900848 -0.095416 -0.243036 0.583302 0.423599
0.985768 -0.095416 0.407701 0.597052 0.528966
0.900848 0.095416 0.407701 0.583302 0.528966
0.985768 -0.095416 -0.243036 0.597052 0.423599
0.985768 0.095416 0.407701 0.597052 0.528966
0.985768 0.095416 -0.243036 0.597052 0.423599
1.351018 -0.095416 -0.214590 0.656193 0.428205
1.379836 0.095416 -0.188649 0.660860 0.432405
1.379836 -0.095416 -0.188649 0.660860 0.432405
1.318889 -0.095416 -0.234448 0.650991 0.424989
1.351018 0.095416 -0.214590 0.656193 0.428205
1.285509 -0.095416 -0.247151 0.645586 0.422933
1.318889 0.095416 -0.234448 0.650991 0.424989
1.252933 -0.095416 -0.251623 0.640311 0.422208
1.285509 0.095416 -0.247151 0.645586 0.422933
1.193194 -0.095416 -0.240233 0.630638 0.424053
1.252933 0.095416 -0.251623 0.640311 0.422208
1.146425 -0.095416 -0.207016 0.623066 0.429431
1.193194 0.095416 -0.240233 0.630638 0.424053
1.115937 -0.095416 -0.153405 0.618129 0.438112
1.146425 0.095416 -0.207016 0.623066 0.429431
1.105038 -0.095416 -0.080829 0.616364 0.449863
1.115937 0.095416 -0.153405 0.618129 0.438112
1.105038 -0.095416 0.185382 0.616364 0.492968
1.105038 0.095416 -0.080829 0.616364 0.449863
1.189958 -0.095416 0.185382 0.630115 0.492968
1.105038 0.095416 0.185382 0.616364 0.492968
1.189958 -0.095416 -0.086554 0.630115 0.448936
1.189958 0.095416 0.185382 0.630115 0.492968
1.195490 -0.095416 -0.126673 0.631010 0.442440
1.189958 0.095416 -0.086554 0.630115 0.448936
1.212023 -0.095416 -0.156327 0.633687 0.437639
1.195490 0.095416 -0.126673 0.631010 0.442440
1.239470 -0.095416 -0.174709 0.638132 0.434662
1.212023 0.095416 -0.156327 0.633687 0.437639
1.277741 -0.095416 -0.181016 0.644328 0.433641
1.239470 0.095416 -0.174709 0.638132 0.434662
1.305904 -0.095416 -0.177124 0.648888 0.434271
1.277741 0.095416 -0.181016 0.644328 0.433641
1.332725 -0.095416 -0.165630 0.653231 0.436132
1.305904 0.095416 -0.177124 0.648888 0.434271
1.357577 -0.095416 -0.146800 0.657256 0.439181
1.332725 0.095416 -0.165630 0.653231 0.436132
1.379836 -0.095416 -0.120904 0.660860 0.443375
1.357577 0.095416 -0.146800 0.657256 0.439181
1.379836 -0.095416 0.185382 0.660860 0.492968
1.379836 0.095416 -0.120904 0.660860 0.443375
1.464756 -0.095416 0.185382 0.674610 0.492968
1.379836 0.095416 0.185382 0.660860 0.492968
1.464756 -0.095416 -0.243036 0.674610 0.423599
1.464756 0.095416 0.185382 0.674610 0.492968
1.379836 -0.095416 -0.243036 0.660860 0.423599
1.464756 0.095416 -0.243036 0.674610 0.423599
1.379836 0.095416 -0.243036 0.660860 0.423599
1.765913 -0.095416 0.108930 0.723373 0.480589
1.798936 0.095416 0.094990 0.728720 0.478332
1.798936 -0.095416 0.094990 0.728720 0.478332
1.735931 -0.095416 0.116965 0.718519 0.481890
1.765913 0.095416 0.108930 0.723373 0.480589
1.709975 -0.095416 0.119545 0.714316 0.482308
1.735931 0.095416 0.116965 0.718519 0.481890
1.686688 -0.095416 0.116652 0.710545 0.481840
1.709975 0.095416 0.119545 0.714316 0.482308
1.668947 -0.095416 0.108572 0.707672 0.480531
1.686688 0.095416 0.116652 0.710545 0.481840
1.657646 -0.095416 0.096198 0.705843 0.478528
1.668947 0.095416 0.108572 0.707672 0.480531
1.653680 -0.095416 0.080424 0.705200 0.475974
1.657646 0.095416 0.096198 0.705843 0.478528
1.659330 -0.095416 0.065128 0.706115 0.473497
1.653680 0.095416 0.080424 0.705200 0.475974
1.677415 -0.095416 0.046790 0.709044 0.470527
1.659330 0.095416 0.065128 0.706115 0.473497
1.709632 -0.095416 0.023801 0.714260 0.466805
1.677415 0.095416 0.046790 0.709044 0.470527
1.757683 -0.095416 -0.005450 0.722041 0.462069
1.709632 0.095416 0.023801 0.714260 0.466805
1.802529 -0.095416 -0.037787 0.729302 0.456833
1.757683 0.095416 -0.005450 0.722041 0.462069
1.832346 -0.095416 -0.066636 0.734130 0.452162
1.802529 0.095416 -0.037787 0.729302 0.456833
1.848925 -0.095416 -0.094947 0.736814 0.447577
1.832346 0.095416 -0.066636 0.734130 0.452162
1.854053 -0.095416 -0.125674 0.737645 0.442602
1.848925 0.095416 -0.094947 0.736814 0.447577
1.843394 -0.095416 -0.177154 0.735919 0.434266
1.854053 0.095416 -0.125674 0.737645 0.442602
1.813859 -0.095416 -0.216916 0.731137 0.427828
1.843394 0.095416 -0.177154 0.735919 0.434266
1.769118 -0.095416 -0.242544 0.723892 0.423679
1.813859 0.095416 -0.216916 0.731137 0.427828
1.712838 -0.095416 -0.251623 0.714779 0.422208
1.769118 0.095416 -0.242544 0.723892 0.423679
1.675223 -0.095416 -0.249536 0.708689 0.422546
1.712838 0.095416 -0.251623 0.714779 0.422208
1.639487 -0.095416 -0.242797 0.702902 0.423637
1.675223 0.095416 -0.249536 0.708689 0.422546
1.603214 -0.095416 -0.230691 0.697029 0.425598
1.639487 0.095416 -0.242797 0.702902 0.423637
1.563989 -0.095416 -0.212503 0.690678 0.428543
1.603214 0.095416 -0.230691 0.697029 0.425598
1.563989 -0.095416 -0.120904 0.690678 0.443375
1.563989 0.095416 -0.212503 0.690678 0.428543
1.604421 -0.095416 -0.145801 0.697224 0.439343
1.563989 0.095416 -0.120904 0.690678 0.443375
1.641991 -0.095416 -0.163364 0.703308 0.436499
1.604421 0.095416 -0.145801 0.697224 0.439343
1.675626 -0.095416 -0.173770 0.708754 0.434814
1.641991 0.095416 -0.163364 0.703308 0.436499
1.704250 -0.095416 -0.177199 0.713389 0.434259
1.675626 0.095416 -0.173770 0.708754 0.434814
1.728582 -0.095416 -0.173084 0.717328 0.434925
1.704250 0.095416 -0.177199 0.713389 0.434259
1.748619 -0.095416 -0.163602 0.720573 0.436461
1.728582 0.095416 -0.173084 0.717328 0.434925
1.762216 -0.095416 -0.148753 0.722775 0.438865
1.748619 0.095416 -0.163602 0.720573 0.436461
1.767225 -0.095416 -0.128537 0.723586 0.442139
1.762216 0.095416 -0.148753 0.722775 0.438865
1.735917 -0.095416 -0.087612 0.718516 0.448765
1.767225 0.095416 -0.128537 0.723586 0.442139
1.667038 -0.095416 -0.046598 0.707363 0.455406
1.735917 0.095416 -0.087612 0.718516 0.448765
1.598160 -0.095416 0.004971 0.696211 0.463756
1.667038 0.095416 -0.046598 0.707363 0.455406
1.566851 -0.095416 0.077562 0.691141 0.475510
1.598160 0.095416 0.004971 0.696211 0.463756
1.576840 -0.095416 0.126343 0.692759 0.483409
1.566851 0.095416 0.077562 0.691141 0.475510
1.605256 -0.095416 0.162959 0.697360 0.489338
1.576840 0.095416 0.126343 0.692759 0.483409
1.649774 -0.095416 0.185978 0.704568 0.493065
1.605256 0.095416 0.162959 0.697360 0.489338
1.708067 -0.095416 0.193969 0.714007 0.494359
1.649774 0.095416 0.185978 0.704568 0.493065
1.738347 -0.095416 0.191807 0.718910 0.494009
1.708067 0.095416 0.193969 0.714007 0.494359
1.769253 -0.095416 0.185262 0.723914 0.492949
1.738347 0.095416 0.191807 0.718910 0.494009
1.801053 -0.095416 0.174245 0.729063 0.491165
1.769253 0.095416 0.185262 0.723914 0.492949
1.834016 -0.095416 0.158665 0.734400 0.488642
1.801053 0.095416 0.174245 0.729063 0.491165
1.834016 -0.095416 0.074699 0.734400 0.475046
1.834016 0.095416 0.158665 0.734400 0.488642
1.834016 0.095416 0.074699 0.734400 0.475046
-1.767969 -0.164014 -0.339901 0.078308 0.735006
-1.621996 -0.164014 0.642545 0.101944 0.894084
-1.767969 -0.164014 0.773757 0.078308 0.915329
-1.515387 -0.164014 0.773757 0.119206 0.915329
-1.337073 -0.164014 0.749462 0.148078 0.911396
-1.207040 -0.164014 0.677808 0.169133 0.899793
-1.489145 -0.164014 0.642545 0.123455 0.894084
-1.384611 -0.164014 0.626323 0.140381 0.891457
-1.127442 -0.164014 0.560641 0.182022 0.880822
-1.621996 -0.164014 0.186585 0.101944 0.820255
-1.309754 -0.164014 0.579195 0.152502 0.883826
-1.264727 -0.164014 0.503466 0.159793 0.871564
-1.100431 -0.164014 0.399804 0.186396 0.854779
-1.249684 -0.164014 0.401444 0.162228 0.855044
-1.267187 -0.164014 0.302549 0.159394 0.839031
-1.128185 -0.164014 0.247450 0.181902 0.830110
-1.315905 -0.164014 0.224104 0.151506 0.826329
-1.205605 -0.164014 0.128155 0.169366 0.810794
-1.390147 -0.164014 0.172413 0.139485 0.817960
-1.588245 -0.164014 0.172465 0.107409 0.817968
-1.621996 -0.164014 0.055374 0.101944 0.799009
-1.553725 -0.164014 0.162188 0.112998 0.816304
-1.484224 -0.164014 0.153782 0.124252 0.814943
-1.518898 -0.164014 0.155910 0.118637 0.815287
-1.323926 -0.164014 0.050377 0.150207 0.798200
-1.621996 -0.164014 -0.339901 0.101944 0.735006
-1.582095 -0.164014 0.040561 0.108404 0.796610
-1.474383 -0.164014 0.022571 0.125845 0.793697
-1.545115 -0.164014 0.030362 0.114392 0.794959
-1.509672 -0.164014 0.024467 0.120131 0.794004
-1.767969 0.164014 -0.339901 0.078308 0.735006
-1.767969 0.164014 0.773757 0.078308 0.915329
-1.621996 0.164014 0.642545 0.101944 0.894084
-1.515387 0.164014 0.773757 0.119206 0.915329
-1.337073 0.164014 0.749462 0.148078 0.911396
-1.207040 0.164014 0.677808 0.169133 0.899793
-1.489145 0.164014 0.642545 0.123455 0.894084
-1.384611 0.164014 0.626323 0.140381 0.891457
-1.127442 0.164014 0.560641 0.182022 0.880822
-1.621996 0.164014 0.186585 0.101944 0.820255
-1.309754 0.164014 0.579195 0.152502 0.883826
-1.264727 0.164014 0.503466 0.159793 0.871564
-1.100431 0.164014 0.399804 0.186396 0.854779
-1.249684 0.164014 0.401444 0.162228 0.855044
-1.267187 0.164014 0.302549 0.159394 0.839031
-1.128185 0.164014 0.247450 0.181902 0.830110
-1.315905 0.164014 0.224104 0.151506 0.826329
-1.205605 0.164014 0.128155 0.169366 0.810794
-1.390147 0.164014 0.172413 0.139485 0.817960
-1.588245 0.164014 0.172465 0.107409 0.817968
-1.621996 0.164014 0.055374 0.101944 0.799009
-1.553725 0.164014 0.162188 0.112998 0.816304
-1.484224 0.164014 0.153782 0.124252 0.814943
-1.518898 0.164014 0.155910 0.118637 0.815287
-1.323926 0.164014 0.050377 0.150207 0.798200
-1.621996 0.164014 -0.339901 0.101944 0.735006
-1.582095 0.164014 0.040561 0.108404 0.796610
-1.474383 0.164014 0.022571 0.125845 0.793697
-1.545115 0.164014 0.030362 0.114392 0.794959
-1.509672 0.164014 0.024467 0.120131 0.794004
-1.767969 -0.164014 0.773757 0.078308 0.915329
-1.767969 0.164014 -0.339901 0.078308 0.735006
-1.767969 -0.164014 -0.339901 0.078308 0.735006
-1.515387 -0.164014 0.773757 0.119206 0.915329
-1.767969 0.164014 0.773757 0.078308 0.915329
-1.337073 -0.164014 0.749462 0.148078 0.911396
-1.515387 0.164014 0.773757 0.119206 0.915329
-1.207040 -0.164014 0.677808 0.169133 0.899793
-1.337073 0.164014 0.749462 0.148078 0.911396
-1.127442 -0.164014 0.560641 0.182022 0.880822
-1.207040 0.164014 0.677808 0.169133 0.899793
-1.100431 -0.164014 0.399804 0.186396 0.854779
-1.127442 0.164014 0.560641 0.182022 0.880822
-1.128185 -0.164014 0.247450 0.181902 0.830110
-1.100431 0.164014 0.399804 0.186396 0.854779
-1.205605 -0.164014 0.128155 0.169366 0.810794
-1.128185 0.164014 0.247450 0.181902 0.830110
-1.323926 -0.164014 0.050377 0.150207 0.798200
-1.205605 0.164014 0.128155 0.169366 0.810794
-1.474383 -0.164014 0.022571 0.125845 0.793697
-1.323926 0.164014 0.050377 0.150207 0.798200
-1.509672 -0.164014 0.024467 0.120131 0.794004
-1.474383 0.164014 0.022571 0.125845 0.793697
-1.545115 -0.164014 0.030362 0.114392 0.794959
-1.509672 0.164014 0.024467 0.120131 0.794004
-1.582095 -0.164014 0.040561 0.108404 0.796610
-1.545115 0.164014 0.030362 0.114392 0.794959
-1.621996 -0.164014 0.055374 0.101944 0.799009
-1.582095 0.164014 0.040561 0.108404 0.796610
-1.621996 -0.164014 -0.339901 0.101944 0.735006
-1.621996 0.164014 0.055374 0.101944 0.799009
-1.621996 0.164014 -0.339901 0.101944 0.735006
-1.553725 -0.164014 0.162188 0.112998 0.816304
-1.588245 0.164014 0.172465 0.107409 0.817968
-1.588245 -0.164014 0.172465 0.107409 0.817968
-1.518898 -0.164014 0.155910 0.118637 0.815287
-1.553725 0.164014 0.162188 0.112998 0.816304
-1.484224 -0.164014 0.153782 0.124252 0.814943
-1.518898 0.164014 0.155910 0.118637 0.815287
-1.390147 -0.164014 0.172413 0.139485 0.817960
-1.484224 0.164014 0.153782 0.124252 0.814943
-1.315905 -0.164014 0.224104 0.151506 0.826329
-1.390147 0.164014 0.172413 0.139485 0.817960
-1.267187 -0.164014 0.302549 0.159394 0.839031
-1.315905 0.164014 0.224104 0.151506 0.826329
-1.249684 -0.164014 0.401444 0.162228 0.855044
-1.267187 0.164014 0.302549 0.159394 0.839031
-1.264727 -0.164014 0.503466 0.159793 0.871564
-1.249684 0.164014 0.401444 0.162228 0.855044
-1.309754 -0.164014 0.579195 0.152502 0.883826
-1.264727 0.164014 0.503466 0.159793 0.871564
-1.384611 -0.164014 0.626323 0.140381 0.891457
-1.309754 0.164014 0.579195 0.152502 0.883826
-1.489145 -0.164014 0.642545 0.123455 0.894084
-1.384611 0.164014 0.626323 0.140381 0.891457
-1.621996 -0.164014 0.642545 0.101944 0.894084
-1.489145 0.164014 0.642545 0.123455 0.894084
-1.621996 -0.164014 0.186585 0.101944 0.820255
-1.621996 0.164014 0.642545 0.101944 0.894084
-1.621996 0.164014 0.186585 0.101944 0.820255
-0.835088 -0.161123 0.746854 0.451038 0.904772
-0.527318 -0.161123 0.747760 0.500872 0.904919
-0.684337 -0.161123 0.775277 0.475447 0.909375
-0.403379 -0.161123 0.671151 0.520940 0.892515
-0.956233 -0.161123 0.668734 0.431422 0.892123
-0.685949 -0.161123 0.646378 0.475187 0.888503
-0.586933 -0.161123 0.628327 0.491219 0.885581
-0.322037 -0.161123 0.554362 0.534111 0.873604
-1.036895 -0.161123 0.551643 0.418361 0.873164
-0.779551 -0.161123 0.628353 0.460030 0.885585
-0.853517 -0.161123 0.578304 0.448054 0.877481
-0.508914 -0.161123 0.578102 0.503852 0.877448
-0.902106 -0.161123 0.502274 0.440186 0.865170
-0.457783 -0.161123 0.501594 0.512131 0.865060
-0.292808 -0.161123 0.406305 0.538844 0.849631
-1.066200 -0.161123 0.406305 0.413616 0.849631
-0.919577 -0.161123 0.406305 0.437357 0.849631
-0.439430 -0.161123 0.404693 0.515103 0.849370
-1.037802 -0.161123 0.252583 0.418214 0.824740
-0.902559 -0.161123 0.301952 0.440113 0.832734
-0.321357 -0.161123 0.249864 0.534221 0.824300
-0.456650 -0.161123 0.299233 0.512315 0.832294
-0.854725 -0.161123 0.221617 0.447858 0.819726
-0.505893 -0.161123 0.219603 0.504341 0.819400
-0.958650 -0.161123 0.131187 0.431031 0.805084
-0.401566 -0.161123 0.128770 0.521234 0.804692
-0.780911 -0.161123 0.169982 0.459810 0.811365
-0.583535 -0.161123 0.169277 0.491769 0.811251
-0.685949 -0.161123 0.151730 0.475187 0.808410
-0.837807 -0.161123 0.051481 0.450598 0.792178
-0.525279 -0.161123 0.050575 0.501202 0.792031
-0.684337 -0.161123 0.022831 0.475447 0.787539
-0.835088 0.161123 0.746854 0.451038 0.904772
-0.684337 0.161123 0.775277 0.475447 0.909375
-0.527318 0.161123 0.747760 0.500872 0.904919
-0.403379 0.161123 0.671151 0.520940 0.892515
-0.956233 0.161123 0.668734 0.431422 0.892123
-0.685949 0.161123 0.646378 0.475187 0.888503
-0.586933 0.161123 0.628327 0.491219 0.885581
-0.322037 0.161123 0.554362 0.534111 0.873604
-1.036895 0.161123 0.551643 0.418361 0.873164
-0.779551 0.161123 0.628353 0.460030 0.885585
-0.853517 0.161123 0.578304 0.448054 0.877481
-0.508914 0.161123 0.578102 0.503852 0.877448
-0.902106 0.161123 0.502274 0.440186 0.865170
-0.457783 0.161123 0.501594 0.512131 0.865060
-0.292808 0.161123 0.406305 0.538844 0.849631
-1.066200 0.161123 0.406305 0.413616 0.849631
-0.919577 0.161123 0.406305 0.437357 0.849631
-0.439430 0.161123 0.404693 0.515103 0.849370
-1.037802 0.161123 0.252583 0.418214 0.824740
-0.902559 0.161123 0.301952 0.440113 0.832734
-0.321357 0.161123 0.249864 0.534221 0.824300
-0.456650 0.161123 0.299233 0.512315 0.832294
-0.854725 0.161123 0.221617 0.447858 0.819726
-0.505893 0.161123 0.219603 0.504341 0.819400
-0.958650 0.161123 0.131187 0.431031 0.805084
-0.401566 0.161123 0.128770 0.521234 0.804692
-0.780911 0.161123 0.169982 0.459810 0.811365
-0.583535 0.161123 0.169277 0.491769 0.811251
-0.685949 0.161123 0.151730 0.475187 0.808410
-0.837807 0.161123 0.051481 0.450598 0.792178
-0.525279 0.161123 0.050575 0.501202 0.792031
-0.684337 0.161123 0.022831 0.475447 0.787539
-0.401566 -0.161123 0.128770 0.521234 0.804692
-0.321357 0.161123 0.249864 0.534221 0.824300
-0.321357 -0.161123 0.249864 0.534221 0.824300
-0.525279 -0.161123 0.050575 0.501202 0.792031
-0.401566 0.161123 0.128770 0.521234 0.804692
-0.684337 -0.161123 0.022831 0.475447 0.787539
-0.525279 0.161123 0.050575 0.501202 0.792031
-0.837807 -0.161123 0.051481 0.450598 0.792178
-0.684337 0.161123 0.022831 0.475447 0.787539
-0.958650 -0.161123 0.131187 0.431031 0.805084
-0.837807 0.161123 0.051481 0.450598 0.792178
-1.037802 -0.161123 0.252583 0.418214 0.824740
-0.958650 0.161123 0.131187 0.431031 0.805084
-1.066200 -0.161123 0.406305 0.413616 0.849631
-1.037802 0.161123 0.252583 0.418214 0.824740
-1.036895 -0.161123 0.551643 0.418361 0.873164
-1.066200 0.161123 0.406305 0.413616 0.849631
-0.956233 -0.161123 0.668734 0.431422 0.892123
-1.036895 0.161123 0.551643 0.418361 0.873164
-0.835088 -0.161123 0.746854 0.451038 0.904772
-0.956233 0.161123 0.668734 0.431422 0.892123
-0.684337 -0.161123 0.775277 0.475447 0.909375
-0.835088 0.161123 0.746854 0.451038 0.904772
-0.527318 -0.161123 0.747760 0.500872 0.904919
-0.684337 0.161123 0.775277 0.475447 0.909375
-0.403379 -0.161123 0.671151 0.520940 0.892515
-0.527318 0.161123 0.747760 0.500872 0.904919
-0.322037 -0.161123 0.554362 0.534111 0.873604
-0.403379 0.161123 0.671151 0.520940 0.892515
-0.292808 -0.161123 0.406305 0.538844 0.849631
-0.322037 0.161123 0.554362 0.534111 0.873604
-0.292808 0.161123 0.406305 0.538844 0.849631
-0.854725 -0.161123 0.221617 0.447858 0.819726
-0.902559 0.161123 0.301952 0.440113 0.832734
-0.902559 -0.161123 0.301952 0.440113 0.832734
-0.780911 -0.161123 0.169982 0.459810 0.811365
-0.854725 0.161123 0.221617 0.447858 0.819726
-0.685949 -0.161123 0.151730 0.475187 0.808410
-0.780911 0.161123 0.169982 0.459810 0.811365
-0.583535 -0.161123 0.169277 0.491769 0.811251
-0.685949 0.161123 0.151730 0.475187 0.808410
-0.505893 -0.161123 0.219603 0.504341 0.819400
-0.583535 0.161123 0.169277 0.491769 0.811251
-0.456650 -0.161123 0.299233 0.512315 0.832294
-0.505893 0.161123 0.219603 0.504341 0.819400
-0.439430 -0.161123 0.404693 0.515103 0.849370
-0.456650 0.161123 0.299233 0.512315 0.832294
-0.457783 -0.161123 0.501594 0.512131 0.865060
-0.439430 0.161123 0.404693 0.515103 0.849370
-0.508914 -0.161123 0.578102 0.503852 0.877448
-0.457783 0.161123 0.501594 0.512131 0.865060
-0.586933 -0.161123 0.628327 0.491219 0.885581
-0.508914 0.161123 0.578102 0.503852 0.877448
-0.685949 -0.161123 0.646378 0.475187 0.888503
-0.586933 0.161123 0.628327 0.491219 0.885581
-0.779551 -0.161123 0.628353 0.460030 0.885585
-0.685949 0.161123 0.646378 0.475187 0.888503
-0.853517 -0.161123 0.578304 0.448054 0.877481
-0.779551 0.161123 0.628353 0.460030 0.885585
-0.902106 -0.161123 0.502274 0.440186 0.865170
-0.853517 0.161123 0.578304 0.448054 0.877481
-0.919577 -0.161123 0.406305 0.437357 0.849631
-0.902106 0.161123 0.502274 0.440186 0.865170
-0.919577 0.161123 0.406305 0.437357 0.849631
-0.254743 -0.151458 0.037332 0.744983 0.743381
-0.119945 -0.151458 1.070277 0.766809 0.910635
-0.254743 -0.151458 1.070277 0.744983 0.910635
-0.119945 -0.151458 0.037332 0.766809 0.743381
-0.254743 0.151458 0.037332 0.744983 0.743381
-0.254743 0.151458 1.070277 0.744983 0.910635
-0.119945 0.151458 1.070277 0.766809 0.910635
-0.119945 0.151458 0.037332 0.766809 0.743381
-0.254743 -0.151458 1.070277 0.744983 0.910635
-0.254743 0.151458 0.037332 0.744983 0.743381
-0.254743 -0.151458 0.037332 0.744983 0.743381
-0.119945 -0.151458 1.070277 0.766809 0.910635
-0.254743 0.151458 1.070277 0.744983 0.910635
-0.119945 -0.151458 0.037332 0.766809 0.743381
-0.119945 0.151458 1.070277 0.766809 0.910635
-0.119945 0.151458 0.037332 0.766809 0.743381
0.201025 -0.160069 0.176980 0.130494 0.477656
0.084174 -0.160069 0.742025 0.111573 0.569148
-0.077496 -0.160069 0.742025 0.085395 0.569148
0.277858 -0.160069 0.337050 0.142934 0.503575
0.623608 -0.160069 0.742025 0.198918 0.569148
0.463539 -0.160069 0.742025 0.173000 0.569148
0.114588 -0.160069 -0.344845 0.116498 0.393162
-0.043881 -0.160069 -0.344845 0.090838 0.393162
0.201025 0.160069 0.176980 0.130494 0.477656
-0.077496 0.160069 0.742025 0.085395 0.569148
0.084174 0.160069 0.742025 0.111573 0.569148
0.277858 0.160069 0.337050 0.142934 0.503575
0.463539 0.160069 0.742025 0.173000 0.569148
0.623608 0.160069 0.742025 0.198918 0.569148
0.114588 0.160069 -0.344845 0.116498 0.393162
-0.043881 0.160069 -0.344845 0.090838 0.393162
0.201025 -0.160069 0.176980 0.130494 0.477656
-0.043881 0.160069 -0.344845 0.090838 0.393162
-0.043881 -0.160069 -0.344845 0.090838 0.393162
-0.077496 -0.160069 0.742025 0.085395 0.569148
0.201025 0.160069 0.176980 0.130494 0.477656
0.084174 -0.160069 0.742025 0.111573 0.569148
-0.077496 0.160069 0.742025 0.085395 0.569148
0.277858 -0.160069 0.337050 0.142934 0.503575
0.084174 0.160069 0.742025 0.111573 0.569148
0.463539 -0.160069 0.742025 0.173000 0.569148
0.277858 0.160069 0.337050 0.142934 0.503575
0.623608 -0.160069 0.742025 0.198918 0.569148
0.463539 0.160069 0.742025 0.173000 0.569148
0.114588 -0.160069 -0.344845 0.116498 0.393162
0.623608 0.160069 0.742025 0.198918 0.569148
0.114588 0.160069 -0.344845 0.116498 0.393162
3 0 1 2
3 0 3 1
3 4 3 0
3 4 5 3
3 4 6 5
3 7 6 4
3 7 8 6
3 8 9 6
3 9 10 6
3 10 11 6
3 11 12 6
3 13 14 7
3 14 8 7
3 13 15 14
3 13 16 15
3 13 17 16
3 13 18 17
3 19 18 13
3 19 20 18
3 19 21 20
3 19 22 21
3 23 22 19
3 23 24 22
3 23 25 24
3 26 25 23
3 26 27 25
3 28 27 26
3 28 29 27
3 30 31 32
3 28 33 29
3 34 33 28
3 30 35 31
3 36 33 34
3 30 37 35
3 38 33 36
3 39 33 38
3 30 39 37
3 39 40 33
3 30 40 39
3 41 40 30
3 41 42 40
3 43 42 41
3 43 44 42
3 45 44 43
3 46 47 48
3 46 49 47
3 50 51 52
3 50 53 51
3 54 49 46
3 54 55 49
3 56 53 50
3 54 57 55
3 58 59 56
3 59 53 56
3 60 57 54
3 60 61 57
3 62 59 58
3 60 63 61
3 63 59 62
3 60 59 63
3 60 64 59
3 65 53 59
3 66 64 60
3 66 67 64
3 66 68 67
3 69 68 66
3 70 71 72
3 70 73 71
3 74 75 76
3 75 77 76
3 75 78 77
3 75 79 78
3 75 80 79
3 80 81 79
3 81 82 79
3 74 83 75
3 84 82 81
3 85 82 84
3 85 86 82
3 87 86 85
3 88 86 87
3 88 89 86
3 90 89 88
3 90 91 89
3 92 91 90
3 74 93 83
3 74 94 93
3 94 95 93
3 96 91 92
3 94 97 95
3 94 96 97
3 94 91 96
3 94 98 91
3 74 99 94
3 100 98 94
3 100 101 98
3 102 101 100
3 103 101 102
3 104 105 106
3 104 106 107
3 108 104 107
3 108 107 109
3 108 109 110
3 111 108 110
3 111 110 112
3 112 110 113
3 113 110 114
3 114 110 115
3 115 110 116
3 117 111 118
3 118 111 112
3 117 118 119
3 117 119 120
3 117 120 121
3 117 121 122
3 123 117 122
3 123 122 124
3 123 124 125
3 123 125 126
3 127 123 126
3 127 126 128
3 127 128 129
3 130 127 129
3 130 129 131
3 132 130 131
3 132 131 133
3 134 135 136
3 132 133 137
3 138 132 137
3 134 136 139
3 140 138 137
3 134 139 141
3 142 140 137
3 143 142 137
3 134 141 143
3 143 137 144
3 134 143 144
3 145 134 144
3 145 144 146
3 147 145 146
3 147 146 148
3 149 147 148
3 150 151 152
3 150 152 153
3 154 155 156
3 154 156 157
3 158 150 153
3 158 153 159
3 160 154 157
3 158 159 161
3 162 160 163
3 163 160 157
3 164 158 161
3 164 161 165
3 166 162 163
3 164 165 167
3 167 166 163
3 164 167 163
3 164 163 168
3 169 163 157
3 170 164 168
3 170 168 171
3 170 171 172
3 173 170 172
3 174 175 176
3 174 176 177
3 178 179 180
3 180 179 181
3 180 181 182
3 180 182 183
3 180 183 184
3 184 183 185
3 185 183 186
3 178 180 187
3 188 185 186
3 189 188 186
3 189 186 190
3 191 189 190
3 192 191 190
3 192 190 193
3 194 192 193
3 194 193 195
3 196 194 195
3 178 187 197
3 178 197 198
3 198 197 199
3 200 196 195
3 198 199 201
3 198 201 200
3 198 200 195
3 198 195 202
3 178 198 203
3 204 198 202
3 204 202 205
3 206 204 205
3 207 206 205
3 208 209 210
3 211 212 208
3 213 214 211
3 215 216 213
3 217 218 215
3 219 220 217
3 221 222 219
3 223 224 221
3 225 226 223
3 227 228 225
3 229 230 227
3 231 232 229
3 233 234 231
3 235 236 233
3 237 238 235
3 210 239 237
3 240 241 242
3 243 244 240
3 245 246 243
3 247 248 245
3 249 250 247
3 251 252 249
3 253 254 251
3 255 256 253
3 257 258 255
3 259 260 257
3 261 262 259
3 263 264 261
3 265 266 263
3 242 267 265
3 268 269 270
3 271 272 268
3 273 274 271
3 270 275 273
3 276 277 278
3 279 280 276
3 281 282 279
3 283 284 281
3 285 286 283
3 287 288 285
3 289 290 287
3 291 292 289
3 293 294 291
3 295 296 293
3 297 298 295
3 299 300 297
3 301 302 299
3 303 304 301
3 305 306 303
3 307 308 305
3 309 310 307
3 311 312 309
3 313 314 311
3 315 316 313
3 317 318 315
3 319 320 317
3 321 322 319
3 278 323 321
3 324 325 326
3 327 328 324
3 329 330 327
3 331 332 329
3 333 334 331
3 335 336 333
3 337 338 335
3 339 340 337
3 341 342 339
3 343 344 341
3 345 346 343
3 347 348 345
3 349 350 347
3 351 352 349
3 353 354 351
3 355 356 353
3 357 358 355
3 359 360 357
3 361 362 359
3 363 364 361
3 365 366 363
3 367 368 365
3 369 370 367
3 371 372 369
3 373 374 371
3 375 376 373
3 377 378 375
3 379 380 377
3 381 382 379
3 383 384 381
3 385 386 383
3 387 388 385
3 389 390 387
3 391 392 389
3 393 394 391
3 395 396 393
3 397 398 395
3 399 400 397
3 401 402 399
3 403 404 401
3 405 406 403
3 407 408 405
3 409 410 407
3 411 412 409
3 413 414 411
3 326 415 413
3 208 212 209
3 211 214 212
3 213 216 214
3 215 218 216
3 217 220 218
3 219 222 220
3 221 224 222
3 223 226 224
3 225 228 226
3 227 230 228
3 229 232 230
3 231 234 232
3 233 236 234
3 235 238 236
3 237 239 238
3 210 209 239
3 240 244 241
3 243 246 244
3 245 248 246
3 247 250 248
3 249 252 250
3 251 254 252
3 253 256 254
3 255 258 256
3 257 260 258
3 259 262 260
3 261 264 262
3 263 266 264
3 265 267 266
3 242 241 267
3 268 272 269
3 271 274 272
3 273 275 274
3 270 269 275
3 276 280 277
3 279 282 280
3 281 284 282
3 283 286 284
3 285 288 286
3 287 290 288
3 289 292 290
3 291 294 292
3 293 296 294
3 295 298 296
3 297 300 298
3 299 302 300
3 301 304 302
3 303 306 304
3 305 308 306
3 307 310 308
3 309 312 310
3 311 314 312
3 313 316 314
3 315 318 316
3 317 320 318
3 319 322 320
3 321 323 322
3 278 277 323
3 324 328 325
3 327 330 328
3 329 332 330
3 331 334 332
3 333 336 334
3 335 338 336
3 337 340 338
3 339 342 340
3 341 344 342
3 343 346 344
3 345 348 346
3 347 350 348
3 349 352 350
3 351 354 352
3 353 356 354
3 355 358 356
3 357 360 358
3 359 362 360
3 361 364 362
3 363 366 364
3 365 368 366
3 367 370 368
3 369 372 370
3 371 374 372
3 373 376 374
3 375 378 376
3 377 380 378
3 379 382 380
3 381 384 382
3 383 386 384
3 385 388 386
3 387 390 388
3 389 392 390
3 391 394 392
3 393 396 394
3 395 398 396
3 397 400 398
3 399 402 400
3 401 404 402
3 403 406 404
3 405 408 406
3 407 410 408
3 409 412 410
3 411 414 412
3 413 415 414
3 326 325 415
3 416 417 418
3 417 419 418
3 417 420 419
3 417 421 420
3 417 422 421
3 422 423 421
3 423 424 421
3 416 425 417
3 426 424 423
3 427 424 426
3 427 428 424
3 429 428 427
3 430 428 429
3 430 431 428
3 432 431 430
3 432 433 431
3 434 433 432
3 416 435 425
3 416 436 435
3 436 437 435
3 438 433 434
3 436 439 437
3 436 438 439
3 436 433 438
3 436 440 433
3 416 441 436
3 442 440 436
3 442 443 440
3 444 443 442
3 445 443 444
3 446 447 448
3 448 447 449
3 448 449 450
3 448 450 451
3 448 451 452
3 452 451 453
3 453 451 454
3 446 448 455
3 456 453 454
3 457 456 454
3 457 454 458
3 459 457 458
3 460 459 458
3 460 458 461
3 462 460 461
3 462 461 463
3 464 462 463
3 446 455 465
3 446 465 466
3 466 465 467
3 468 464 463
3 466 467 469
3 466 469 468
3 466 468 463
3 466 463 470
3 446 466 471
3 472 466 470
3 472 470 473
3 474 472 473
3 475 474 473
3 476 477 478
3 479 480 476
3 481 482 479
3 483 484 481
3 485 486 483
3 487 488 485
3 489 490 487
3 491 492 489
3 493 494 491
3 495 496 493
3 497 498 495
3 499 500 497
3 501 502 499
3 503 504 501
3 505 506 503
3 478 507 505
3 508 509 510
3 511 512 508
3 513 514 511
3 515 516 513
3 517 518 515
3 519 520 517
3 521 522 519
3 523 524 521
3 525 526 523
3 527 528 525
3 529 530 527
3 531 532 529
3 533 534 531
3 510 535 533
3 476 480 477
3 479 482 480
3 481 484 482
3 483 486 484
3 485 488 486
3 487 490 488
3 489 492 490
3 491 494 492
3 493 496 494
3 495 498 496
3 497 500 498
3 499 502 500
3 501 504 502
3 503 506 504
3 505 507 506
3 478 477 507
3 508 512 509
3 511 514 512
3 513 516 514
3 515 518 516
3 517 520 518
3 519 522 520
3 521 524 522
3 523 526 524
3 525 528 526
3 527 530 528
3 529 532 530
3 531 534 532
3 533 535 534
3 510 509 535
3 536 537 538
3 536 539 537
3 540 539 536
3 540 541 539
3 541 542 539
3 542 543 539
3 544 545 540
3 545 541 540
3 544 546 545
3 547 543 542
3 544 548 546
3 549 543 547
3 549 550 543
3 551 548 544
3 551 552 548
3 553 550 549
3 554 552 551
3 554 555 552
3 553 556 550
3 557 556 553
3 554 558 555
3 559 556 557
3 560 558 554
3 559 561 556
3 560 562 558
3 563 561 559
3 560 564 562
3 564 561 563
3 560 561 564
3 565 561 560
3 565 566 561
3 567 566 565
3 568 569 570
3 568 570 571
3 572 568 571
3 572 571 573
3 573 571 574
3 574 571 575
3 576 572 577
3 577 572 573
3 576 577 578
3 579 574 575
3 576 578 580
3 581 579 575
3 581 575 582
3 583 576 580
3 583 580 584
3 585 581 582
3 586 583 584
3 586 584 587
3 585 582 588
3 589 585 588
3 586 587 590
3 591 589 588
3 592 586 590
3 591 588 593
3 592 590 594
3 595 591 593
3 592 594 596
3 596 595 593
3 592 596 593
3 597 592 593
3 597 593 598
3 599 597 598
3 600 601 602
3 603 604 600
3 605 606 603
3 607 608 605
3 609 610 607
3 611 612 609
3 613 614 611
3 615 616 613
3 617 618 615
3 619 620 617
3 621 622 619
3 623 624 621
3 625 626 623
3 627 628 625
3 629 630 627
3 602 631 629
3 632 633 634
3 635 636 632
3 637 638 635
3 639 640 637
3 641 642 639
3 643 644 641
3 645 646 643
3 647 648 645
3 649 650 647
3 651 652 649
3 653 654 651
3 655 656 653
3 657 658 655
3 659 660 657
3 661 662 659
3 634 663 661
3 600 604 601
3 603 606 604
3 605 608 606
3 607 610 608
3 609 612 610
3 611 614 612
3 613 616 614
3 615 618 616
3 617 620 618
3 619 622 620
3 621 624 622
3 623 626 624
3 625 628 626
3 627 630 628
3 629 631 630
3 602 601 631
3 632 636 633
3 635 638 636
3 637 640 638
3 639 642 640
3 641 644 642
3 643 646 644
3 645 648 646
3 647 650 648
3 649 652 650
3 651 654 652
3 653 656 654
3 655 658 656
3 657 660 658
3 659 662 660
3 661 663 662
3 634 633 663
3 664 665 666
3 664 667 665
3 668 669 670
3 668 670 671
3 672 673 674
3 675 676 672
3 677 678 675
3 674 679 677
3 672 676 673
3 675 678 676
3 677 679 678
3 674 673 679
3 680 681 682
3 680 683 681
3 683 684 685
3 683 686 684
3 680 686 683
3 687 686 680
3 688 689 690
3 688 690 691
3 691 692 693
3 691 693 694
3 688 691 694
3 695 688 694
3 696 697 698
3 699 700 696
3 701 702 699
3 703 704 701
3 705 706 703
3 707 708 705
3 709 710 707
3 698 711 709
3 696 700 697
3 699 702 700
3 701 704 702
3 703 706 704
3 705 708 706
3 707 710 708
3 709 711 710
3 698 697 711
