ply
format ascii 1.0
comment Created in Blender version 4.1.1
element vertex 99
property float x
property float y
property float z
property float nx
property float ny
property float nz
property float s
property float t
element face 90
property list uchar uint vertex_indices
end_header
0 0.471149 0.009066374 0 -40.730507 96.55737 0.25 0.49
0 0.49488324 0 2.337323e-06 84.266464 0 0.25 0.25
-0.0034695514 0.471149 0.008376237 -36.95156 -40.727104 89.20976 0.34184402 0.47173107
-0.0064108944 0.471149 0.0064108944 -68.27635 -40.730587 68.2763 0.41970563 0.41970563
-0.008376237 0.471149 0.0034695514 -89.21002 -40.726654 36.9518 0.47173107 0.34184402
-0.009066374 0.471149 0 -96.55733 -40.730564 0 0.49 0.25
-0.008376237 0.471149 -0.0034695514 -89.209656 -40.727135 -36.951748 0.47173107 0.15815598
-0.0064108944 0.471149 -0.0064108944 -68.27623 -40.730583 -68.276436 0.41970563 0.080294386
-0.0034695514 0.471149 -0.008376237 -36.950966 -40.72858 -89.20886 0.34184402 0.028268918
0 0.471149 -0.009066374 -0 -40.730507 -96.55737 0.25 0.010000005
0.0034695514 0.471149 -0.008376237 36.95156 -40.727104 -89.20976 0.15815598 0.028268918
0.0064108944 0.471149 -0.0064108944 68.27635 -40.730587 -68.2763 0.080294386 0.080294386
0.008376237 0.471149 -0.0034695514 89.21002 -40.726654 -36.9518 0.028268918 0.15815598
0.009066374 0.471149 0 96.55733 -40.730564 0 0.010000005 0.25
0.008376237 0.471149 0.0034695514 89.209656 -40.727135 36.951748 0.028268918 0.34184402
0.0064108944 0.471149 0.0064108944 68.27623 -40.730583 68.276436 0.080294386 0.41970563
-0.0034695514 0.471149 -0.008376237 -36.950966 -40.72858 -89.20886 0.841844 0.028268918
0.008376237 0.471149 -0.0034695514 89.21002 -40.726654 -36.9518 0.52826893 0.15815598
0.0034695514 0.471149 0.008376237 36.950966 -40.72858 89.20886 0.658156 0.47173107
0.0034695514 0.471149 0.008376237 36.950966 -40.72858 89.20886 0.15815598 0.47173107
0 0.47132978 0.004281424 -8.358877e-05 56.096348 82.30608 1 1
-0.0016384302 1.4606941e-06 0.0039555198 -31.497187 -56.09636 76.0409 0.9375 0.5
0 1.4606941e-06 0.004281424 -1.25457655e-05 -56.09816 82.30398 1 0.5
-0.0016384302 0.47132978 0.0039555198 -31.497597 56.097965 76.0387 0.9375 1
-0.003027424 1.4606941e-06 0.003027424 -58.197704 -56.09816 58.197693 0.875 0.5
-0.003027424 0.47132978 0.003027424 -58.198586 56.097137 58.198513 0.875 1
-0.0039555198 1.4606941e-06 0.0016384302 -76.04113 -56.096146 31.497272 0.8125 0.5
-0.0039555198 0.47132978 0.0016384302 -76.038956 56.09816 31.49637 0.8125 1
-0.004281424 1.4606941e-06 0 -82.30397 -56.09816 7.312273e-06 0.75 0.5
-0.004281424 0.47132978 0 -82.30608 56.096348 -7.1647514e-06 0.75 1
-0.0039555198 1.4606941e-06 -0.0016384302 -76.0409 -56.09635 -31.497177 0.6875 0.5
-0.0039555198 0.47132978 -0.0016384302 -76.038956 56.09816 -31.496365 0.6875 1
-0.003027424 1.4606941e-06 -0.003027424 -58.197693 -56.09816 -58.197712 0.625 0.5
-0.003027424 0.47132978 -0.003027424 -58.199368 56.096153 -58.19936 0.625 1
-0.0016384302 1.4606941e-06 -0.0039555198 -31.496805 -56.097157 -76.04003 0.5625 0.5
-0.0016384302 0.47132978 -0.0039555198 -31.496378 56.09816 -76.038956 0.5625 1
0 1.4606941e-06 -0.004281424 1.25457655e-05 -56.09816 -82.30398 0.5 0.5
0 0.47132978 -0.004281424 8.349156e-05 56.096348 -82.30608 0.5 1
0.0016384302 1.4606941e-06 -0.0039555198 31.497187 -56.09636 -76.0409 0.4375 0.5
0.0016384302 0.47132978 -0.0039555198 31.497597 56.097965 -76.0387 0.4375 1
0.003027424 1.4606941e-06 -0.003027424 58.197704 -56.09816 -58.197693 0.375 0.5
0.003027424 0.47132978 -0.003027424 58.198586 56.097137 -58.198513 0.375 1
0.0039555198 1.4606941e-06 -0.0016384302 76.04112 -56.096146 -31.497265 0.3125 0.5
0.0039555198 0.47132978 -0.0016384302 76.038956 56.09816 -31.49637 0.3125 1
0.004281424 1.4606941e-06 0 82.30397 -56.09816 -7.312273e-06 0.25 0.5
0.004281424 0.47132978 0 82.30608 56.096348 7.1647514e-06 0.25 1
0.0039555198 1.4606941e-06 0.0016384302 76.0409 -56.09635 31.497177 0.1875 0.5
0.0039555198 0.47132978 0.0016384302 76.038956 56.09816 31.496365 0.1875 1
0.003027424 1.4606941e-06 0.003027424 58.197693 -56.09816 58.197712 0.125 0.5
0.003027424 0.47132978 -0.003027424 58.198586 56.097137 -58.198513 0.080294386 0.080294386
-0.003027424 0.47132978 -0.003027424 -58.199368 56.096153 -58.19936 0.41970563 0.080294386
-0.003027424 0.47132978 0.003027424 -58.198586 56.097137 58.198513 0.41970563 0.41970563
0.003027424 0.47132978 0.003027424 58.199368 56.096153 58.19936 0.125 1
0.0016384302 1.4606941e-06 0.0039555198 31.496805 -56.097157 76.04003 0.0625 0.5
0.0016384302 0.47132978 0.0039555198 31.496378 56.09816 76.038956 0.0625 1
0 1.4606941e-06 0.004281424 -1.25457655e-05 -56.09816 82.30398 0 0.5
-0.0016384302 1.4606941e-06 -0.0039555198 -31.496805 -56.097157 -76.04003 0.841844 0.028268918
0.0039555198 1.4606941e-06 -0.0016384302 76.04112 -56.096146 -31.497265 0.52826893 0.15815598
0.0016384302 1.4606941e-06 0.0039555198 31.496805 -56.097157 76.04003 0.658156 0.47173107
0 0.471149 0.009066374 0 -40.730507 96.55737 0.75 0.49
-0.0034695514 0.471149 0.008376237 -36.95156 -40.727104 89.20976 0.841844 0.47173107
-0.0064108944 0.471149 0.0064108944 -68.27635 -40.730587 68.2763 0.9197056 0.41970563
-0.008376237 0.471149 0.0034695514 -89.21002 -40.726654 36.9518 0.97173107 0.34184402
-0.009066374 0.471149 0 -96.55733 -40.730564 0 0.99 0.25
-0.008376237 0.471149 -0.0034695514 -89.209656 -40.727135 -36.951748 0.97173107 0.15815598
-0.0064108944 0.471149 -0.0064108944 -68.27623 -40.730583 -68.276436 0.9197056 0.080294386
0 0.471149 -0.009066374 -0 -40.730507 -96.55737 0.75 0.010000005
0.0034695514 0.471149 -0.008376237 36.95156 -40.727104 -89.20976 0.658156 0.028268918
0.0064108944 0.471149 -0.0064108944 68.27635 -40.730587 -68.2763 0.5802944 0.080294386
0.009066374 0.471149 0 96.55733 -40.730564 0 0.51 0.25
0.008376237 0.471149 0.0034695514 89.209656 -40.727135 36.951748 0.52826893 0.34184402
0.0064108944 0.471149 0.0064108944 68.27623 -40.730583 68.276436 0.5802944 0.41970563
-0.0016384302 0.47132978 0.0039555198 -31.497597 56.097965 76.0387 0.34184402 0.47173107
0 0.47132978 0.004281424 -8.358877e-05 56.096348 82.30608 0.25 0.49
0.0016384302 0.47132978 0.0039555198 31.496378 56.09816 76.038956 0.15815598 0.47173107
0.003027424 0.47132978 0.003027424 58.199368 56.096153 58.19936 0.080294386 0.41970563
0.0039555198 0.47132978 0.0016384302 76.038956 56.09816 31.496365 0.028268918 0.34184402
0.004281424 0.47132978 0 82.30608 56.096348 7.1647514e-06 0.010000005 0.25
0.0039555198 0.47132978 -0.0016384302 76.038956 56.09816 -31.49637 0.028268918 0.15815598
0.0016384302 0.47132978 -0.0039555198 31.497597 56.097965 -76.0387 0.15815598 0.028268918
0 0.47132978 -0.004281424 8.349156e-05 56.096348 -82.30608 0.25 0.010000005
-0.0016384302 0.47132978 -0.0039555198 -31.496378 56.09816 -76.038956 0.34184402 0.028268918
-0.0039555198 0.47132978 -0.0016384302 -76.038956 56.09816 -31.496365 0.47173107 0.15815598
-0.004281424 0.47132978 0 -82.30608 56.096348 -7.1647514e-06 0.49 0.25
-0.0039555198 0.47132978 0.0016384302 -76.038956 56.09816 31.49637 0.47173107 0.34184402
0 0.47132978 0.004281424 -8.358877e-05 56.096348 82.30608 0 1
0 1.4606941e-06 0.004281424 -1.25457655e-05 -56.09816 82.30398 0.75 0.49
-0.0016384302 1.4606941e-06 0.0039555198 -31.497187 -56.09636 76.0409 0.841844 0.47173107
-0.003027424 1.4606941e-06 0.003027424 -58.197704 -56.09816 58.197693 0.9197056 0.41970563
-0.0039555198 1.4606941e-06 0.0016384302 -76.04113 -56.096146 31.497272 0.97173107 0.34184402
-0.004281424 1.4606941e-06 0 -82.30397 -56.09816 7.312273e-06 0.99 0.25
-0.0039555198 1.4606941e-06 -0.0016384302 -76.0409 -56.09635 -31.497177 0.97173107 0.15815598
-0.003027424 1.4606941e-06 -0.003027424 -58.197693 -56.09816 -58.197712 0.9197056 0.080294386
0 1.4606941e-06 -0.004281424 1.25457655e-05 -56.09816 -82.30398 0.75 0.010000005
0.0016384302 1.4606941e-06 -0.0039555198 31.497187 -56.09636 -76.0409 0.658156 0.028268918
0.003027424 1.4606941e-06 -0.003027424 58.197704 -56.09816 -58.197693 0.5802944 0.080294386
0.004281424 1.4606941e-06 0 82.30397 -56.09816 -7.312273e-06 0.51 0.25
0.0039555198 1.4606941e-06 0.0016384302 76.0409 -56.09635 31.497177 0.52826893 0.34184402
0.003027424 1.4606941e-06 0.003027424 58.197693 -56.09816 58.197712 0.5802944 0.41970563
3 0 1 2
3 2 1 3
3 3 1 4
3 4 1 5
3 5 1 6
3 6 1 7
3 7 1 8
3 8 1 9
3 9 1 10
3 10 1 11
3 11 1 12
3 12 1 13
3 13 1 14
3 14 1 15
3 16 17 18
3 15 1 19
3 19 1 0
3 20 21 22
3 23 24 21
3 25 26 24
3 27 28 26
3 29 30 28
3 31 32 30
3 33 34 32
3 35 36 34
3 37 38 36
3 39 40 38
3 41 42 40
3 43 44 42
3 45 46 44
3 47 48 46
3 49 50 51
3 52 53 48
3 54 55 53
3 56 57 58
3 18 59 60
3 60 61 62
3 62 63 64
3 64 65 16
3 16 66 67
3 67 68 17
3 17 69 70
3 70 71 18
3 18 60 62
3 62 64 16
3 16 67 17
3 17 70 18
3 18 62 16
3 20 23 21
3 23 25 24
3 25 27 26
3 27 29 28
3 29 31 30
3 31 33 32
3 33 35 34
3 35 37 36
3 37 39 38
3 39 41 40
3 41 43 42
3 43 45 44
3 45 47 46
3 47 52 48
3 51 72 73
3 73 74 75
3 75 76 77
3 77 78 49
3 49 79 80
3 80 81 50
3 50 82 83
3 83 84 51
3 51 73 75
3 75 77 49
3 49 80 50
3 50 83 51
3 51 75 49
3 52 54 53
3 54 85 55
3 58 86 87
3 87 88 89
3 89 90 91
3 91 92 56
3 56 93 94
3 94 95 57
3 57 96 97
3 97 98 58
3 58 87 89
3 89 91 56
3 56 94 57
3 57 97 58
3 58 89 56
