ply
format ascii 1.0
comment Created in Blender version 4.1.1
element vertex 34
property float x
property float y
property float z
property float s
property float t
element face 32
property list uchar uint vertex_indices
end_header
1.32 2.64 -1.32 0.625 0
1.32 0 1.32 0.375 0.25
1.32 0 -1.32 0.375 0
1.32 2.64 1.32 0.625 0.25
-1.32 2.64 1.32 0.625 0.5
1.1880001 2.5072606 1.32 0.61243004 0.26250002
-1.1880001 0.13126048 1.32 0.38742995 0.48749998
-1.32 0 1.32 0.375 0.5
-1.32 0 -1.32 0.375 0.75
-1.32 2.64 -1.32 0.625 0.75
1.32 2.64 -1.32 0.625 1
-1.1880001 2.5072606 -1.32 0.61243004 0.76250005
1.1880001 0.13126048 -1.32 0.38742995 0.98749995
-1.1880001 0.13126048 -1.32 0.38742998 0.7624999
1.32 0 -1.32 0.125 0.75
1.32 0 1.32 0.125 0.5
1.32 2.64 1.32 0.875 0.5
1.1880001 0.13126048 1.32 0.375 0.22003275
1.1880001 2.5072606 -1.32 0.625 0.029967254
1.1880001 0.13126048 -1.32 0.375 0.029967234
-1.1880001 2.5072606 1.32 0.625 0.52996725
-1.1880001 0.13126048 -1.32 0.375 0.72003275
-1.1880001 2.5072606 -1.32 0.625 0.72003275
-1.1880001 0.13126048 1.32 0.375 0.52996725
1.1880001 0.13126048 -1.32 0.125 0.72003275
1.1880001 2.5072606 -1.32 0.875 0.7200328
1.1880001 2.5072606 1.32 0.87500006 0.52996725
1.1880001 0.13126048 1.32 0.38742998 0.2625
-1.1880001 2.5072606 1.32 0.61243 0.48749995
1.32 0 -1.32 0.375 1
1.1880001 2.5072606 -1.32 0.61243 0.98749995
1.32 2.64 -1.32 0.875 0.75
1.1880001 2.5072606 1.32 0.625 0.22003277
1.1880001 0.13126048 1.32 0.125 0.52996725
3 0 1 2
3 3 4 5
3 1 6 7
3 4 8 7
3 9 10 11
3 12 8 13
3 7 14 15
3 16 9 4
3 17 18 19
3 20 21 22
3 23 24 21
3 20 25 26
3 0 3 1
3 27 1 3
3 4 7 6
3 4 6 28
3 5 27 3
3 4 28 5
3 1 27 6
3 4 9 8
3 11 13 8
3 10 29 12
3 10 12 30
3 11 8 9
3 10 30 11
3 12 29 8
3 7 8 14
3 16 31 9
3 17 32 18
3 20 23 21
3 23 33 24
3 20 22 25
