ply
format ascii 1.0
comment Created in Blender version 4.0.2
element vertex 151
property float x
property float y
property float z
property float s
property float t
element face 224
property list uchar uint vertex_indices
end_header
0 0 -1 0.71875 0
0.14644663 0.3535534 -0.9238795 0.6875 0.12500006
0 0.38268346 -0.9238795 0.75 0.12500006
4.4703484e-07 0.7071066 -0.70710677 0.7499999 0.25
0.27059805 0.65328145 -0.70710677 0.6875 0.25
0.3535534 0.85355335 -0.38268346 0.6875 0.375
0 0.9238795 0.38268346 0.75 0.625
0 1 0 0.75 0.5
0.38268346 0.9238795 0 0.6875 0.5
4.4703484e-07 0.7071066 0.70710677 0.7499999 0.75000006
0.27059805 0.65328145 0.70710677 0.6875 0.75
0.14644663 0.3535534 0.9238795 0.6875 0.875
0 0.9238795 -0.38268346 0.75 0.375
0.3535534 0.85355335 0.38268346 0.6875 0.625
2.3841858e-07 0.38268346 0.9238795 0.7499999 0.875
0 0 1 0.71874994 1
0.5 0.49999994 0.70710677 0.625 0.75
0.27059808 0.27059805 -0.9238795 0.625 0.12500006
0.6532815 0.65328145 -0.38268346 0.625 0.375
0.7071068 0.7071067 0 0.625 0.5
0.6532815 0.65328145 0.38268346 0.625 0.625
0.27059808 0.27059805 0.9238795 0.625 0.875
0 0 1 0.65625 1
0 0 -1 0.65625 0
0.5 0.49999994 -0.70710677 0.625 0.25
0.3535534 0.14644659 -0.9238795 0.5625 0.12500006
0.8535534 0.35355332 -0.38268346 0.5625 0.375
0.8535534 0.35355332 0.38268346 0.5625 0.625
0.3535534 0.14644659 0.9238795 0.5625 0.875
0 0 1 0.59375 1
0 0 -1 0.59375 0
0.65328145 0.27059796 -0.70710677 0.5625 0.25
0.92387956 0.3826833 0 0.5625 0.5
0.65328145 0.27059796 0.70710677 0.5625 0.75
0.38268346 -4.4703484e-08 0.9238795 0.49999997 0.875
0 0 1 0.53125 1
0 0 -1 0.53125 0
0.38268346 -4.4703484e-08 -0.9238795 0.49999997 0.12500006
0.7071067 -8.940697e-08 -0.70710677 0.49999997 0.25
1 -1.4901161e-07 0 0.49999997 0.5
0.7071067 -8.940697e-08 0.70710677 0.49999997 0.75
0.9238795 -1.1920929e-07 -0.38268346 0.49999997 0.375
0.9238795 -1.1920929e-07 0.38268346 0.49999997 0.625
0.65328133 -0.27059814 -0.70710677 0.43749997 0.25
0.92387944 -0.3826836 0 0.43749997 0.5
0.65328133 -0.27059814 0.70710677 0.43749997 0.75
0.35355338 -0.14644668 0.9238795 0.43749997 0.875
0.35355338 -0.14644668 -0.9238795 0.43749997 0.12500006
0.8535533 -0.35355353 -0.38268346 0.43749997 0.375
0.8535533 -0.35355353 0.38268346 0.43749997 0.625
0 0 1 0.46874997 1
0 0 -1 0.46874997 0
0.270598 -0.2705981 -0.9238795 0.37499994 0.12500006
0.49999982 -0.50000006 -0.70710677 0.37499994 0.25
0.65328133 -0.65328157 -0.38268346 0.37499997 0.375
0.65328133 -0.65328157 0.38268346 0.37499997 0.625
0.270598 -0.2705981 0.9238795 0.37499994 0.875
0 0 1 0.40624997 1
0 0 -1 0.40624997 0
0.7071066 -0.70710695 0 0.37499994 0.5
0.49999982 -0.50000006 0.70710677 0.37499994 0.75
0.35355318 -0.8535534 -0.38268346 0.31249997 0.375
0.38268313 -0.9238796 0 0.31249994 0.5
0.35355318 -0.8535534 0.38268346 0.31249997 0.625
0.14644653 -0.35355344 0.9238795 0.31249997 0.875
0 0 1 0.34374994 1
0 0 -1 0.34374994 0
0.14644653 -0.35355344 -0.9238795 0.31249997 0.12500006
0.27059782 -0.65328145 -0.70710677 0.31249997 0.25
0.27059782 -0.65328145 0.70710677 0.31249997 0.75
0 0 -1 0.28124994 0
-1.1920929e-07 -0.38268346 -0.9238795 0.24999997 0.12500006
-2.2351742e-07 -0.70710665 -0.70710677 0.24999997 0.25
-3.5762787e-07 -1 0 0.24999997 0.5
-2.3841858e-07 -0.92387944 0.38268346 0.24999997 0.625
-2.2351742e-07 -0.70710665 0.70710677 0.24999997 0.75
-2.3841858e-07 -0.92387944 -0.38268346 0.24999997 0.375
-1.1920929e-07 -0.38268346 0.9238795 0.24999997 0.875
0 0 1 0.28124994 1
-0.38268378 -0.9238794 0 0.18749997 0.5
-0.27059823 -0.6532813 0.70710677 0.18749997 0.75
-0.14644673 -0.35355335 -0.9238795 0.18749997 0.12500006
-0.3535536 -0.8535532 -0.38268346 0.18749997 0.375
-0.3535536 -0.8535532 0.38268346 0.18749997 0.62500006
-0.14644673 -0.35355335 0.9238795 0.18749997 0.875
0 0 1 0.21874994 1
0 0 -1 0.21874994 0
-0.27059823 -0.6532813 -0.70710677 0.18749997 0.25
-0.27059817 -0.27059796 -0.9238795 0.12499994 0.12500006
-0.5000001 -0.4999997 -0.70710677 0.12499994 0.25
-0.65328157 -0.6532812 -0.38268346 0.12499997 0.375
-0.65328157 -0.6532812 0.38268346 0.12499997 0.62500006
-0.27059817 -0.27059796 0.9238795 0.12499994 0.875
0 0 1 0.15624994 1
0 0 -1 0.15624994 0
-0.70710707 -0.7071065 0 0.12499994 0.5
-0.5000001 -0.4999997 0.70710677 0.12499994 0.75
-0.8535534 -0.35355306 0.38268346 0.06249994 0.62500006
-0.35355347 -0.14644647 0.9238795 0.06249994 0.875
0 0 1 0.09374991 1
0 0 -1 0.09374991 0
-0.35355347 -0.14644647 -0.9238795 0.06249994 0.12500006
-0.65328145 -0.2705977 -0.70710677 0.06249994 0.25
-0.8535534 -0.35355306 -0.38268346 0.06249994 0.375
-0.9238797 -0.38268298 0 0.06249994 0.5
-0.65328145 -0.2705977 0.70710677 0.06249994 0.75
0 0 -1 0.03124994 0
-0.38268346 1.7881393e-07 -0.9238795 0 0.12500006
-0.7071066 3.2782555e-07 -0.70710677 0 0.25
-0.9238794 3.5762787e-07 -0.38268346 0 0.375
-0.99999994 5.066395e-07 0 0 0.5
-0.9238794 3.5762787e-07 0.38268346 0 0.62500006
-0.7071066 3.2782555e-07 0.70710677 0 0.75000006
-0.38268346 1.7881393e-07 0.9238795 0 0.875
0 0 1 0.03124994 1
-0.38268346 1.7881393e-07 0.9238795 1 0.875
-0.7071066 3.2782555e-07 0.70710677 1 0.75000006
-0.65328115 0.2705983 0.70710677 0.9374999 0.75000006
-0.7071066 3.2782555e-07 -0.70710677 1 0.25
-0.38268346 1.7881393e-07 -0.9238795 1 0.12500006
-0.35355335 0.1464468 -0.9238795 0.9374999 0.12500006
-0.99999994 5.066395e-07 0 1 0.5
-0.9238794 3.5762787e-07 -0.38268346 1 0.375
-0.8535531 0.35355368 -0.38268346 0.93749994 0.375
-0.9238794 3.5762787e-07 0.38268346 1 0.62500006
-0.8535531 0.35355368 0.38268346 0.93749994 0.62500006
-0.35355335 0.1464468 0.9238795 0.9374999 0.875
0 0 1 0.9687499 1
0 0 -1 0.9687499 0
-0.65328115 0.2705983 -0.70710677 0.9374999 0.25
-0.92387927 0.3826839 0 0.9374999 0.5
-0.27059793 0.27059823 -0.9238795 0.8749999 0.12500006
-0.6532811 0.6532817 -0.38268346 0.8749999 0.375
-0.6532811 0.6532817 0.38268346 0.8749999 0.62500006
-0.27059793 0.27059823 0.9238795 0.8749999 0.875
0 0 1 0.90624994 1
0 0 -1 0.90624994 0
-0.49999958 0.5000001 -0.70710677 0.8749999 0.25
-0.70710635 0.7071071 0 0.8749999 0.5
-0.49999958 0.5000001 0.70710677 0.8749999 0.75000006
-0.1464464 0.3535535 0.9238795 0.8124999 0.875
0 0 1 0.8437499 1
0 0 -1 0.8437499 0
-0.1464464 0.3535535 -0.9238795 0.8124999 0.12500006
-0.27059758 0.65328145 -0.70710677 0.8124999 0.25
-0.3535529 0.8535534 -0.38268346 0.8124999 0.375
-0.3826829 0.92387974 0 0.8124999 0.5
-0.3535529 0.8535534 0.38268346 0.8124999 0.62500006
-0.27059758 0.65328145 0.70710677 0.8124999 0.75000006
0 0 1 0.7812499 1
0 0 -1 0.78124994 0
3 0 1 2
3 3 4 5
3 6 7 8
3 9 10 11
3 3 2 1
3 7 12 5
3 9 6 13
3 14 11 15
3 11 10 16
3 4 1 17
3 5 18 19
3 10 13 20
3 11 21 22
3 23 17 1
3 5 4 24
3 13 8 19
3 24 17 25
3 19 18 26
3 16 20 27
3 21 28 29
3 30 25 17
3 24 31 26
3 19 32 27
3 21 16 33
3 28 34 35
3 36 37 25
3 26 31 38
3 27 32 39
3 28 33 40
3 31 25 37
3 26 41 39
3 27 42 40
3 41 38 43
3 42 39 44
3 40 45 46
3 37 47 43
3 39 41 48
3 40 42 49
3 34 46 50
3 51 47 37
3 47 52 53
3 44 48 54
3 45 49 55
3 46 56 57
3 58 52 47
3 48 43 53
3 44 59 55
3 45 60 56
3 54 61 62
3 60 55 63
3 56 64 65
3 66 67 52
3 53 68 61
3 55 59 62
3 56 60 69
3 53 52 67
3 70 71 67
3 61 68 72
3 62 73 74
3 64 69 75
3 67 71 72
3 62 61 76
3 69 63 74
3 64 77 78
3 74 73 79
3 77 75 80
3 72 71 81
3 73 76 82
3 75 74 83
3 77 84 85
3 86 81 71
3 72 87 82
3 81 88 89
3 79 82 90
3 80 83 91
3 84 92 93
3 94 88 81
3 87 89 90
3 79 95 91
3 84 80 96
3 96 91 97
3 92 98 99
3 100 101 88
3 89 102 103
3 95 104 97
3 92 96 105
3 89 88 101
3 95 90 103
3 106 107 101
3 102 108 109
3 104 110 111
3 105 112 113
3 102 101 107
3 104 103 109
3 105 97 111
3 98 113 114
3 115 116 117
3 118 119 120
3 121 122 123
3 116 124 125
3 115 126 127
3 128 120 119
3 122 118 129
3 121 130 125
3 129 120 131
3 130 123 132
3 117 125 133
3 126 134 135
3 136 131 120
3 129 137 132
3 130 138 133
3 126 117 139
3 134 140 141
3 142 143 131
3 137 144 145
3 138 146 147
3 134 139 148
3 137 131 143
3 138 132 145
3 139 133 147
3 144 3 12
3 147 146 7
3 148 9 14
3 144 143 2
3 146 145 12
3 148 147 6
3 140 14 149
3 150 2 143
3 3 5 12
3 6 8 13
3 9 11 14
3 3 1 4
3 7 5 8
3 9 13 10
3 11 16 21
3 4 17 24
3 5 19 8
3 10 20 16
3 5 24 18
3 13 19 20
3 24 25 31
3 19 26 32
3 16 27 33
3 24 26 18
3 19 27 20
3 21 33 28
3 26 38 41
3 27 39 42
3 28 40 34
3 31 37 38
3 26 39 32
3 27 40 33
3 41 43 48
3 42 44 49
3 40 46 34
3 37 43 38
3 39 48 44
3 40 49 45
3 47 53 43
3 44 54 59
3 45 55 60
3 48 53 54
3 44 55 49
3 45 56 46
3 54 62 59
3 60 63 69
3 53 61 54
3 55 62 63
3 56 69 64
3 53 67 68
3 61 72 76
3 62 74 63
3 64 75 77
3 67 72 68
3 62 76 73
3 69 74 75
3 74 79 83
3 77 80 84
3 72 81 87
3 73 82 79
3 75 83 80
3 72 82 76
3 81 89 87
3 79 90 95
3 80 91 96
3 87 90 82
3 79 91 83
3 84 96 92
3 96 97 105
3 89 103 90
3 95 97 91
3 92 105 98
3 89 101 102
3 95 103 104
3 102 109 103
3 104 111 97
3 105 113 98
3 102 107 108
3 104 109 110
3 105 111 112
3 115 117 126
3 118 120 129
3 121 123 130
3 116 125 117
3 122 129 123
3 121 125 124
3 129 131 137
3 130 132 138
3 117 133 139
3 129 132 123
3 130 133 125
3 126 139 134
3 137 145 132
3 138 147 133
3 134 148 140
3 137 143 144
3 138 145 146
3 139 147 148
3 144 12 145
3 147 7 6
3 148 14 140
3 144 2 3
3 146 12 7
3 148 6 9
