ply
format ascii 1.0
comment Created in Blender version 4.1.1
element vertex 151
property float x
property float y
property float z
property float nx
property float ny
property float nz
property float s
property float t
element face 224
property list uchar uint vertex_indices
end_header
0 -1 0 0.03877742 0.9800476 -0.19494367 0.71875 0
-0.14644663 -0.9238795 0.3535534 0.15425614 0.9151595 -0.37240866 0.6875 0.12500006
0 -0.9238795 0.38268346 -5.621655e-07 0.9151594 -0.40309203 0.75 0.12500006
-4.4703484e-07 -0.70710677 0.7071066 1.809258e-06 0.69515496 -0.7188599 0.7499999 0.25
-0.27059805 -0.70710677 0.65328145 0.27509335 0.6951573 -0.6641385 0.6875 0.25
-0.3535534 -0.38268346 0.85355335 0.3548552 0.37436506 -0.8566963 0.6875 0.375
0 0.38268346 0.9238795 3.702889e-06 -0.37436843 -0.92728 0.75 0.625
0 0 1 1.11088255e-07 -8.5840924e-08 -1 0.75 0.5
-0.38268346 0 0.9238795 0.38268188 -1.6966352e-06 -0.92388016 0.6875 0.5
-4.4703484e-07 0.70710677 0.7071066 1.8042874e-06 -0.69515496 -0.7188599 0.7499999 0.75000006
-0.27059805 0.70710677 0.65328145 0.27509788 -0.69515705 -0.66413695 0.6875 0.75
-0.14644663 0.9238795 0.3535534 0.15425701 -0.9151591 -0.37240928 0.6875 0.875
0 -0.38268346 0.9238795 -4.0749383e-06 0.37436855 -0.92727995 0.75 0.375
-0.3535534 0.38268346 0.85355335 0.35485816 -0.37436828 -0.8566936 0.6875 0.625
-2.3841858e-07 0.9238795 0.38268346 -4.739827e-07 -0.9151594 -0.40309206 0.7499999 0.875
0 1 0 0.038777083 -0.98004764 -0.19494362 0.71874994 1
-0.5 0.70710677 0.49999994 0.50831413 -0.69515496 -0.50830734 0.625 0.75
-0.27059808 -0.9238795 0.27059805 0.28502855 0.9151595 -0.28502944 0.625 0.12500006
-0.6532815 -0.38268346 0.65328145 0.6556852 0.3743716 -0.655685 0.625 0.375
-0.7071068 0 0.7071067 0.7071069 0 -0.7071067 0.625 0.5
-0.6532815 0.38268346 0.65328145 0.65568495 -0.3743718 -0.6556851 0.625 0.625
-0.27059808 0.9238795 0.27059805 0.28502944 -0.9151595 -0.28502864 0.625 0.875
0 1 0 0.11042623 -0.98004776 -0.16526522 0.65625 1
0 -1 0 0.110426255 0.98004776 -0.16526525 0.65625 0
-0.5 -0.70710677 0.49999994 0.5083113 0.69515246 -0.5083135 0.625 0.25
-0.3535534 -0.9238795 0.14644659 0.37240836 0.9151594 -0.15425725 0.5625 0.12500006
-0.8535534 -0.38268346 0.35355332 0.85669637 0.3743651 -0.35485512 0.5625 0.375
-0.8535534 0.38268346 0.35355332 0.85669637 -0.3743651 -0.35485512 0.5625 0.625
-0.3535534 0.9238795 0.14644659 0.37240875 -0.9151595 -0.154256 0.5625 0.875
0 1 0 0.16526517 -0.98004764 -0.1104267 0.59375 1
0 -1 0 0.16526543 0.9800476 -0.1104267 0.59375 0
-0.65328145 -0.70710677 0.27059796 0.66413724 0.6951574 -0.2750961 0.5625 0.25
-0.92387956 0 0.3826833 0.92387956 5.049553e-09 -0.3826834 0.5625 0.5
-0.65328145 0.70710677 0.27059796 0.6641384 -0.6951574 -0.27509326 0.5625 0.75
-0.38268346 0.9238795 -4.4703484e-08 0.40309122 -0.91515976 7.348609e-09 0.49999997 0.875
0 1 0 0.19494359 -0.98004764 -0.038776703 0.53125 1
0 -1 0 0.19494365 0.98004764 -0.038776703 0.53125 0
-0.38268346 -0.9238795 -4.4703484e-08 0.40309292 0.9151591 -6.6136764e-08 0.49999997 0.12500006
-0.7071067 -0.70710677 -8.940697e-08 0.7188579 0.695157 -2.954915e-06 0.49999997 0.25
-1 0 -1.4901161e-07 1 1.7016554e-06 -1.5804693e-06 0.49999997 0.5
-0.7071067 0.70710677 -8.940697e-08 0.7188644 -0.6951503 1.018945e-07 0.49999997 0.75
-0.9238795 -0.38268346 -1.1920929e-07 0.92727864 0.37437183 3.3686143e-07 0.49999997 0.375
-0.9238795 0.38268346 -1.1920929e-07 0.9272801 -0.3743682 4.0422615e-06 0.49999997 0.625
-0.65328133 -0.70710677 -0.27059814 0.6641406 0.69515485 0.27509445 0.43749997 0.25
-0.92387944 0 -0.3826836 0.9238788 -1.7117543e-06 0.38268524 0.43749997 0.5
-0.65328133 0.70710677 -0.27059814 0.6641393 -0.695155 0.27509746 0.43749997 0.75
-0.35355338 0.9238795 -0.14644668 0.3724087 -0.91515946 0.15425621 0.43749997 0.875
-0.35355338 -0.9238795 -0.14644668 0.37240812 0.9151594 0.15425715 0.43749997 0.12500006
-0.8535533 -0.38268346 -0.35355353 0.8566964 0.37436843 0.35485137 0.43749997 0.375
-0.8535533 0.38268346 -0.35355353 0.8566938 -0.37437186 0.35485426 0.43749997 0.625
0 1 0 0.19494364 -0.98004764 0.038776737 0.46874997 1
0 -1 0 0.19494364 0.98004764 0.038776737 0.46874997 0
-0.270598 -0.9238795 -0.2705981 0.28502816 0.9151599 0.28502852 0.37499994 0.12500006
-0.49999982 -0.70710677 -0.50000006 0.5083138 0.6951503 0.508314 0.37499994 0.25
-0.65328133 -0.38268346 -0.65328157 0.6556869 0.37436476 0.65568715 0.37499997 0.375
-0.65328133 0.38268346 -0.65328157 0.655687 -0.37436494 0.65568703 0.37499997 0.625
-0.270598 0.9238795 -0.2705981 0.28502947 -0.9151591 0.28502986 0.37499994 0.875
0 1 0 0.16526467 -0.9800477 0.110426776 0.40624997 1
0 -1 0 0.16526519 0.98004764 0.11042677 0.40624997 0
-0.7071066 0 -0.70710695 0.70710653 0 0.707107 0.37499994 0.5
-0.49999982 0.70710677 -0.50000006 0.5083068 -0.69515723 0.5083116 0.37499994 0.75
-0.35355318 -0.38268346 -0.8535534 0.35485396 0.37437195 0.85669386 0.31249997 0.375
-0.38268313 0 -0.9238796 0.3826832 0 0.92387956 0.31249994 0.5
-0.35355318 0.38268346 -0.8535534 0.35485408 -0.37437183 0.8566938 0.31249997 0.625
-0.14644653 0.9238795 -0.35355344 0.154256 -0.9151594 0.3724088 0.31249997 0.875
0 1 0 0.11042624 -0.98004764 0.16526528 0.34374994 1
0 -1 0 0.110426 0.98004776 0.16526529 0.34374994 0
-0.14644653 -0.9238795 -0.35355344 0.15425687 0.91515905 0.37240928 0.31249997 0.12500006
-0.27059782 -0.70710677 -0.65328145 0.27509382 0.69515955 0.6641359 0.31249997 0.25
-0.27059782 0.70710677 -0.65328145 0.2750912 -0.695155 0.66414183 0.31249997 0.75
0 -1 0 0.038777344 0.9800476 0.19494362 0.28124994 0
1.1920929e-07 -0.9238795 -0.38268346 4.3479268e-08 0.9151598 0.40309116 0.24999997 0.12500006
2.2351742e-07 -0.70710677 -0.70710665 -2.3361183e-07 0.6951504 0.71886444 0.24999997 0.25
3.5762787e-07 0 -1 -2.0551508e-06 1.6284672e-06 1 0.24999997 0.5
2.3841858e-07 0.38268346 -0.92387944 -1.2317584e-07 -0.37436503 0.92728144 0.24999997 0.625
2.2351742e-07 0.70710677 -0.70710665 -4.9282403e-06 -0.69515485 0.71886 0.24999997 0.75
2.3841858e-07 -0.38268346 -0.92387944 3.632505e-06 0.37436816 0.9272801 0.24999997 0.375
1.1920929e-07 0.9238795 -0.38268346 -5.1072556e-07 -0.9151594 0.4030921 0.24999997 0.875
0 1 0 0.038777016 -0.9800476 0.19494362 0.28124994 1
0.38268378 0 -0.9238794 -0.38268536 -1.6511616e-06 0.92387867 0.18749997 0.5
0.27059823 0.70710677 -0.6532813 -0.27510038 -0.69515496 0.66413814 0.18749997 0.75
0.14644673 -0.9238795 -0.35355335 -0.15425712 0.91515905 0.3724093 0.18749997 0.12500006
0.3535536 -0.38268346 -0.8535532 -0.35485125 0.3743685 0.8566965 0.18749997 0.375
0.3535536 0.38268346 -0.8535532 -0.35485432 -0.37437183 0.8566937 0.18749997 0.62500006
0.14644673 0.9238795 -0.35355335 -0.15425721 -0.9151594 0.37240824 0.18749997 0.875
0 1 0 -0.038775988 -0.98004764 0.19494364 0.21874994 1
0 -1 0 -0.03877651 0.98004764 0.19494364 0.21874994 0
0.27059823 -0.70710677 -0.6532813 -0.27509823 0.69515705 0.6641368 0.18749997 0.25
0.27059817 -0.9238795 -0.27059796 -0.28502885 0.91515976 0.28502846 0.12499994 0.12500006
0.5000001 -0.70710677 -0.4999997 -0.50831467 0.69515276 0.5083098 0.12499994 0.25
0.65328157 -0.38268346 -0.6532812 -0.6556833 0.3743685 0.6556887 0.12499997 0.375
0.65328157 0.38268346 -0.6532812 -0.6556833 -0.3743685 0.65568876 0.12499997 0.62500006
0.27059817 0.9238795 -0.27059796 -0.28502974 -0.91515934 0.28502873 0.12499994 0.875
0 1 0 -0.11042726 -0.9800476 0.1652652 0.15624994 1
0 -1 0 -0.11042726 0.9800475 0.1652652 0.15624994 0
0.70710707 0 -0.7071065 -0.7071095 0 0.7071041 0.12499994 0.5
0.5000001 0.70710677 -0.4999997 -0.5083143 -0.69515485 0.50830716 0.12499994 0.75
0.8535534 0.38268346 -0.35355306 -0.8566937 -0.37436843 0.3548581 0.06249994 0.62500006
0.35355347 0.9238795 -0.14644647 -0.37240782 -0.91515976 0.15425621 0.06249994 0.875
0 1 0 -0.16526517 -0.98004764 0.11042664 0.09374991 1
0 -1 0 -0.16526543 0.9800476 0.11042662 0.09374991 0
0.35355347 -0.9238795 -0.14644647 -0.37240845 0.91515934 0.15425707 0.06249994 0.12500006
0.65328145 -0.70710677 -0.2705977 -0.6641407 0.6951549 0.27509394 0.06249994 0.25
0.8535534 -0.38268346 -0.35355306 -0.8566936 0.37436843 0.35485813 0.06249994 0.375
0.9238797 0 -0.38268298 -0.923881 0 0.38267985 0.06249994 0.5
0.65328145 0.70710677 -0.2705977 -0.66414326 -0.6951527 0.2750933 0.06249994 0.75
0 -1 0 -0.19494365 0.98004764 0.038776636 0.03124994 0
0.38268346 -0.9238795 1.7881393e-07 -0.40180352 0.9122314 0.07992351 0 0.12500006
0.7071066 -0.70710677 3.2782555e-07 -0.7116175 0.6881601 0.14154914 0 0.25
0.9238794 -0.38268346 3.5762787e-07 -0.9118994 0.368155 0.18138757 0 0.375
0.99999994 0 5.066395e-07 -0.9807853 0 0.19508988 0 0.5
0.9238794 0.38268346 3.5762787e-07 -0.9118994 -0.36815503 0.18138757 0 0.62500006
0.7071066 0.70710677 3.2782555e-07 -0.7116175 -0.6881601 0.14154914 0 0.75000006
0.38268346 0.9238795 1.7881393e-07 -0.40180346 -0.9122315 0.07992352 0 0.875
0 1 0 -0.1949434 -0.98004764 0.038776636 0.03124994 1
0.38268346 0.9238795 1.7881393e-07 -0.4018035 -0.9122314 -0.07992392 1 0.875
0.7071066 0.70710677 3.2782555e-07 -0.71162206 -0.68815506 -0.14155081 1 0.75000006
0.65328115 0.70710677 0.2705983 -0.6641381 -0.6951549 -0.27510047 0.9374999 0.75000006
0.7071066 -0.70710677 3.2782555e-07 -0.71162146 0.6881557 -0.14155056 1 0.25
0.38268346 -0.9238795 1.7881393e-07 -0.40180174 0.91223216 -0.079923704 1 0.12500006
0.35355335 -0.9238795 0.1464468 -0.37240878 0.91515934 -0.15425628 0.9374999 0.12500006
0.99999994 0 5.066395e-07 -0.9807852 0 -0.19509085 1 0.5
0.9238794 -0.38268346 3.5762787e-07 -0.9118965 0.36816195 -0.18138804 1 0.375
0.8535531 -0.38268346 0.35355368 -0.8566965 0.37436828 -0.3548515 0.93749994 0.375
0.9238794 0.38268346 3.5762787e-07 -0.91189665 -0.3681615 -0.181388 1 0.62500006
0.8535531 0.38268346 0.35355368 -0.8566964 -0.37436846 -0.3548513 0.93749994 0.62500006
0.35355335 0.9238795 0.1464468 -0.3724082 -0.9151594 -0.15425742 0.9374999 0.875
0 1 0 -0.19494362 -0.9800476 -0.038776763 0.9687499 1
0 -1 0 -0.19494365 0.98004764 -0.038776767 0.9687499 0
0.65328115 -0.70710677 0.2705983 -0.6641427 0.69515246 -0.27509552 0.9374999 0.25
0.92387927 0 0.3826839 -0.92387813 0 -0.382687 0.9374999 0.5
0.27059793 -0.9238795 0.27059823 -0.2850293 0.9151595 -0.28502887 0.8749999 0.12500006
0.6532811 -0.38268346 0.6532817 -0.6556885 0.37436855 -0.6556834 0.8749999 0.375
0.6532811 0.38268346 0.6532817 -0.6556885 -0.3743685 -0.6556834 0.8749999 0.62500006
0.27059793 0.9238795 0.27059823 -0.28502837 -0.9151594 -0.28502977 0.8749999 0.875
0 1 0 -0.16526464 -0.98004776 -0.11042682 0.90624994 1
0 -1 0 -0.16526511 0.9800477 -0.110426806 0.90624994 0
0.49999958 -0.70710677 0.5000001 -0.50830936 0.69515496 -0.5083121 0.8749999 0.25
0.70710635 0 0.7071071 -0.707104 2.5247335e-09 -0.7071096 0.8749999 0.5
0.49999958 0.70710677 0.5000001 -0.5083072 -0.6951549 -0.50831425 0.8749999 0.75000006
0.1464464 0.9238795 0.3535535 -0.1542561 -0.9151598 -0.37240776 0.8124999 0.875
0 1 0 -0.11042623 -0.98004764 -0.16526534 0.8437499 1
0 -1 0 -0.11042597 0.98004764 -0.16526534 0.8437499 0
0.1464464 -0.9238795 0.3535535 -0.15425709 0.9151594 -0.37240833 0.8124999 0.12500006
0.27059758 -0.70710677 0.65328145 -0.275094 0.6951549 -0.6641407 0.8124999 0.25
0.3535529 -0.38268346 0.8535534 -0.35485825 0.37436852 -0.8566935 0.8124999 0.375
0.3826829 0 0.92387974 -0.38268155 1.6764373e-06 -0.9238803 0.8124999 0.5
0.3535529 0.38268346 0.8535534 -0.35485518 -0.374365 -0.85669637 0.8124999 0.62500006
0.27059758 0.70710677 0.65328145 -0.27509335 -0.69515276 -0.66414326 0.8124999 0.75000006
0 1 0 -0.038777024 -0.9800476 -0.19494365 0.7812499 1
0 -1 0 -0.03877722 0.98004764 -0.19494367 0.78124994 0
3 0 1 2
3 3 4 5
3 6 7 8
3 9 10 11
3 3 2 1
3 7 12 5
3 9 6 13
3 14 11 15
3 11 10 16
3 4 1 17
3 5 18 19
3 10 13 20
3 11 21 22
3 23 17 1
3 5 4 24
3 13 8 19
3 24 17 25
3 19 18 26
3 16 20 27
3 21 28 29
3 30 25 17
3 24 31 26
3 19 32 27
3 21 16 33
3 28 34 35
3 36 37 25
3 26 31 38
3 27 32 39
3 28 33 40
3 31 25 37
3 26 41 39
3 27 42 40
3 41 38 43
3 42 39 44
3 40 45 46
3 37 47 43
3 39 41 48
3 40 42 49
3 34 46 50
3 51 47 37
3 47 52 53
3 44 48 54
3 45 49 55
3 46 56 57
3 58 52 47
3 48 43 53
3 44 59 55
3 45 60 56
3 54 61 62
3 60 55 63
3 56 64 65
3 66 67 52
3 53 68 61
3 55 59 62
3 56 60 69
3 53 52 67
3 70 71 67
3 61 68 72
3 62 73 74
3 64 69 75
3 67 71 72
3 62 61 76
3 69 63 74
3 64 77 78
3 74 73 79
3 77 75 80
3 72 71 81
3 73 76 82
3 75 74 83
3 77 84 85
3 86 81 71
3 72 87 82
3 81 88 89
3 79 82 90
3 80 83 91
3 84 92 93
3 94 88 81
3 87 89 90
3 79 95 91
3 84 80 96
3 96 91 97
3 92 98 99
3 100 101 88
3 89 102 103
3 95 104 97
3 92 96 105
3 89 88 101
3 95 90 103
3 106 107 101
3 102 108 109
3 104 110 111
3 105 112 113
3 102 101 107
3 104 103 109
3 105 97 111
3 98 113 114
3 115 116 117
3 118 119 120
3 121 122 123
3 116 124 125
3 115 126 127
3 128 120 119
3 122 118 129
3 121 130 125
3 129 120 131
3 130 123 132
3 117 125 133
3 126 134 135
3 136 131 120
3 129 137 132
3 130 138 133
3 126 117 139
3 134 140 141
3 142 143 131
3 137 144 145
3 138 146 147
3 134 139 148
3 137 131 143
3 138 132 145
3 139 133 147
3 144 3 12
3 147 146 7
3 148 9 14
3 144 143 2
3 146 145 12
3 148 147 6
3 140 14 149
3 150 2 143
3 3 5 12
3 6 8 13
3 9 11 14
3 3 1 4
3 7 5 8
3 9 13 10
3 11 16 21
3 4 17 24
3 5 19 8
3 10 20 16
3 5 24 18
3 13 19 20
3 24 25 31
3 19 26 32
3 16 27 33
3 24 26 18
3 19 27 20
3 21 33 28
3 26 38 41
3 27 39 42
3 28 40 34
3 31 37 38
3 26 39 32
3 27 40 33
3 41 43 48
3 42 44 49
3 40 46 34
3 37 43 38
3 39 48 44
3 40 49 45
3 47 53 43
3 44 54 59
3 45 55 60
3 48 53 54
3 44 55 49
3 45 56 46
3 54 62 59
3 60 63 69
3 53 61 54
3 55 62 63
3 56 69 64
3 53 67 68
3 61 72 76
3 62 74 63
3 64 75 77
3 67 72 68
3 62 76 73
3 69 74 75
3 74 79 83
3 77 80 84
3 72 81 87
3 73 82 79
3 75 83 80
3 72 82 76
3 81 89 87
3 79 90 95
3 80 91 96
3 87 90 82
3 79 91 83
3 84 96 92
3 96 97 105
3 89 103 90
3 95 97 91
3 92 105 98
3 89 101 102
3 95 103 104
3 102 109 103
3 104 111 97
3 105 113 98
3 102 107 108
3 104 109 110
3 105 111 112
3 115 117 126
3 118 120 129
3 121 123 130
3 116 125 117
3 122 129 123
3 121 125 124
3 129 131 137
3 130 132 138
3 117 133 139
3 129 132 123
3 130 133 125
3 126 139 134
3 137 145 132
3 138 147 133
3 134 148 140
3 137 143 144
3 138 145 146
3 139 147 148
3 144 12 145
3 147 7 6
3 148 14 140
3 144 2 3
3 146 12 7
3 148 6 9
