ply
format ascii 1.0
comment Created in Blender version 4.0.2
element vertex 79
property float x
property float y
property float z
property float s
property float t
element face 112
property list uchar uint vertex_indices
end_header
0 0.9238795 0.38268346 0.6638726 0.625
0.38268346 0.9238795 0 0.6013726 0.5
0 1 0 0.6638726 0.5
4.4703484e-07 0.7071066 0.70710677 0.6638725 0.75000006
0.14644663 0.3535534 0.9238795 0.6013726 0.875
0.27059805 0.65328145 0.70710677 0.6013726 0.75
4.4703484e-07 0.7071066 -0.70710677 0.6638725 0.25
0.14644663 0.3535534 -0.9238795 0.6013726 0.12500006
0 0.38268346 -0.9238795 0.6638726 0.12500006
0.3535534 0.85355335 -0.38268346 0.6013726 0.375
0 0.9238795 -0.38268346 0.6638726 0.375
0.3535534 0.85355335 0.38268346 0.6013726 0.625
2.3841858e-07 0.38268346 0.9238795 0.6638725 0.875
0 0 1 0.63262254 1
0 0 -1 0.6326226 0
0.27059805 0.65328145 -0.70710677 0.6013726 0.25
0.27059808 0.27059805 -0.9238795 0.5388726 0.12500006
0.7071068 0.7071067 0 0.5388726 0.5
0.6532815 0.65328145 -0.38268346 0.5388726 0.375
0.6532815 0.65328145 0.38268346 0.5388726 0.625
0 0 1 0.5701226 1
0.27059808 0.27059805 0.9238795 0.5388726 0.875
0 0 -1 0.5701226 0
0.5 0.49999994 -0.70710677 0.5388726 0.25
0.5 0.49999994 0.70710677 0.5388726 0.75
0 0 1 0.5076226 1
0.3535534 0.14644659 0.9238795 0.4763726 0.875
0 0 -1 0.5076226 0
0.3535534 0.14644659 -0.9238795 0.4763726 0.12500006
0.8535534 0.35355332 -0.38268346 0.4763726 0.375
0.65328145 0.27059796 -0.70710677 0.4763726 0.25
0.8535534 0.35355332 0.38268346 0.4763726 0.625
0.92387956 0.3826833 0 0.4763726 0.5
0.65328145 0.27059796 0.70710677 0.4763726 0.75
0.7071067 -8.940697e-08 -0.70710677 0.41387257 0.25
1 -1.4901161e-07 0 0.41387257 0.5
0.7071067 -8.940697e-08 0.70710677 0.41387257 0.75
0.38268346 -4.4703484e-08 -0.9238795 0.41387257 0.12500006
0.9238795 -1.1920929e-07 -0.38268346 0.41387257 0.375
0.9238795 -1.1920929e-07 0.38268346 0.41387257 0.625
0 0 1 0.4451226 1
0.38268346 -4.4703484e-08 0.9238795 0.41387257 0.875
0 0 -1 0.4451226 0
-0.7071066 3.2782555e-07 -0.70710677 0.9138726 0.25
-0.35355335 0.1464468 -0.9238795 0.8513725 0.12500006
-0.38268346 1.7881393e-07 -0.9238795 0.9138726 0.12500006
-0.99999994 5.066395e-07 0 0.9138726 0.5
-0.8535531 0.35355368 -0.38268346 0.85137254 0.375
-0.9238794 3.5762787e-07 -0.38268346 0.9138726 0.375
-0.7071066 3.2782555e-07 0.70710677 0.9138726 0.75000006
-0.8535531 0.35355368 0.38268346 0.85137254 0.62500006
-0.9238794 3.5762787e-07 0.38268346 0.9138726 0.62500006
-0.38268346 1.7881393e-07 0.9238795 0.9138726 0.875
0 0 1 0.8826225 1
-0.35355335 0.1464468 0.9238795 0.8513725 0.875
0 0 -1 0.8826225 0
-0.65328115 0.2705983 -0.70710677 0.8513725 0.25
-0.92387927 0.3826839 0 0.8513725 0.5
-0.65328115 0.2705983 0.70710677 0.8513725 0.75000006
0 0 1 0.82012254 1
-0.27059793 0.27059823 0.9238795 0.7888725 0.875
0 0 -1 0.82012254 0
-0.27059793 0.27059823 -0.9238795 0.7888725 0.12500006
-0.6532811 0.6532817 -0.38268346 0.7888725 0.375
-0.49999958 0.5000001 -0.70710677 0.7888725 0.25
-0.6532811 0.6532817 0.38268346 0.7888725 0.62500006
-0.70710635 0.7071071 0 0.7888725 0.5
-0.49999958 0.5000001 0.70710677 0.7888725 0.75000006
-0.3535529 0.8535534 -0.38268346 0.7263725 0.375
-0.27059758 0.65328145 -0.70710677 0.7263725 0.25
-0.3535529 0.8535534 0.38268346 0.7263725 0.62500006
-0.3826829 0.92387974 0 0.7263725 0.5
-0.27059758 0.65328145 0.70710677 0.7263725 0.75000006
-0.1464464 0.3535535 -0.9238795 0.7263725 0.12500006
0 0 1 0.7576225 1
-0.1464464 0.3535535 0.9238795 0.7263725 0.875
0 0 -1 0.7576225 0
0 0 1 0.6951225 1
0 0 -1 0.69512254 0
3 0 1 2
3 3 4 5
3 6 7 8
3 2 9 10
3 3 11 0
3 12 13 4
3 14 8 7
3 6 9 15
3 15 16 7
3 9 17 18
3 5 19 11
3 4 20 21
3 22 7 16
3 9 23 15
3 11 17 1
3 4 24 5
3 21 25 26
3 27 16 28
3 23 29 30
3 17 31 32
3 21 33 24
3 23 28 16
3 17 29 18
3 24 31 19
3 29 34 30
3 31 35 32
3 26 36 33
3 30 37 28
3 29 35 38
3 31 36 39
3 26 40 41
3 42 28 37
3 43 44 45
3 46 47 48
3 49 50 51
3 52 53 54
3 55 45 44
3 48 56 43
3 46 50 57
3 52 58 49
3 54 59 60
3 61 44 62
3 56 63 64
3 57 65 66
3 54 67 58
3 56 62 44
3 57 63 47
3 58 65 50
3 64 68 69
3 66 70 71
3 60 72 67
3 64 73 62
3 66 68 63
3 67 70 65
3 60 74 75
3 76 62 73
3 69 8 73
3 71 10 68
3 72 0 70
3 75 77 12
3 78 73 8
3 69 10 6
3 70 2 71
3 72 12 3
3 0 11 1
3 3 12 4
3 6 15 7
3 2 1 9
3 3 5 11
3 6 10 9
3 15 23 16
3 9 1 17
3 5 24 19
3 9 18 23
3 11 19 17
3 4 21 24
3 23 18 29
3 17 19 31
3 21 26 33
3 23 30 28
3 17 32 29
3 24 33 31
3 29 38 34
3 31 39 35
3 26 41 36
3 30 34 37
3 29 32 35
3 31 33 36
3 43 56 44
3 46 57 47
3 49 58 50
3 48 47 56
3 46 51 50
3 52 54 58
3 56 47 63
3 57 50 65
3 54 60 67
3 56 64 62
3 57 66 63
3 58 67 65
3 64 63 68
3 66 65 70
3 60 75 72
3 64 69 73
3 66 71 68
3 67 72 70
3 69 6 8
3 71 2 10
3 72 3 0
3 69 68 10
3 70 0 2
3 72 75 12
