ply
format ascii 1.0
comment Created in Blender version 4.0.2
element vertex 151
property float x
property float y
property float z
property float nx
property float ny
property float nz
property float s
property float t
element face 224
property list uchar uint vertex_indices
end_header
0 0 -1 0.038777422 0.1949437 -0.9800477 0.71875 0
0 0.38268346 -0.9238795 5.144004e-08 0.40309277 -0.91515917 0.75 0.12500006
0.14644663 0.3535534 -0.9238795 0.15425695 0.37240905 -0.91515917 0.6875 0.12500006
4.4703484e-07 0.7071066 -0.70710677 1.8390786e-07 0.71885824 -0.69515675 0.7499999 0.25
0.3535534 0.85355335 -0.38268346 0.35485494 0.85669553 -0.37436706 0.6875 0.375
0.27059805 0.65328145 -0.70710677 0.27509502 0.6641385 -0.6951566 0.6875 0.25
0 0.9238795 0.38268346 -4.27363e-08 0.92728055 0.3743672 0.75 0.625
0.38268346 0.9238795 0 0.38268343 0.92387956 -2.5248333e-08 0.6875 0.5
0 1 0 1.1614233e-07 1 8.584433e-08 0.75 0.5
4.4703484e-07 0.7071066 0.70710677 1.7893736e-07 0.7188582 0.69515675 0.7499999 0.75000006
0.14644663 0.3535534 0.9238795 0.15425692 0.37240908 0.91515917 0.6875 0.875
0.27059805 0.65328145 0.70710677 0.27509508 0.66413844 0.69515663 0.6875 0.75
0 0.9238795 -0.38268346 -2.5139e-09 0.92728055 -0.3743672 0.75 0.375
0.3535534 0.85355335 0.38268346 0.35485494 0.8566956 0.37436706 0.6875 0.625
2.3841858e-07 0.38268346 0.9238795 1.310496e-07 0.40309274 0.9151591 0.7499999 0.875
0 0 1 0.038777083 0.19494365 0.9800477 0.71874994 1
0.5 0.49999994 0.70710677 0.5083096 0.5083095 0.69515663 0.625 0.75
0.27059808 0.27059805 -0.9238795 0.28502947 0.28502953 -0.9151592 0.625 0.12500006
0.7071068 0.7071067 0 0.7071069 0.7071067 0 0.625 0.5
0.6532815 0.65328145 -0.38268346 0.6556865 0.6556864 -0.37436706 0.625 0.375
0.6532815 0.65328145 0.38268346 0.6556865 0.6556864 0.37436706 0.625 0.625
0 0 1 0.11042623 0.16526522 0.9800477 0.65625 1
0.27059808 0.27059805 0.9238795 0.28502953 0.28502962 0.91515917 0.625 0.875
0 0 -1 0.11042624 0.16526523 -0.9800477 0.65625 0
0.5 0.49999994 -0.70710677 0.50830954 0.50830954 -0.6951567 0.625 0.25
0.3535534 0.14644659 -0.9238795 0.37240925 0.15425697 -0.9151591 0.5625 0.12500006
0.8535534 0.35355332 -0.38268346 0.8566956 0.35485485 -0.37436706 0.5625 0.375
0.8535534 0.35355332 0.38268346 0.8566956 0.35485485 0.3743671 0.5625 0.625
0 0 1 0.16526517 0.11042669 0.98004764 0.59375 1
0.3535534 0.14644659 0.9238795 0.37240916 0.15425682 0.91515917 0.5625 0.875
0 0 -1 0.16526543 0.1104267 -0.98004764 0.59375 0
0.65328145 0.27059796 -0.70710677 0.6641385 0.27509496 -0.69515675 0.5625 0.25
0.92387956 0.3826833 0 0.92387956 0.3826834 5.0496665e-09 0.5625 0.5
0.65328145 0.27059796 0.70710677 0.66413844 0.275095 0.69515675 0.5625 0.75
0 0 1 0.19494359 0.038776703 0.9800477 0.53125 1
0.38268346 -4.4703484e-08 0.9238795 0.40309283 -7.348576e-09 0.9151591 0.49999997 0.875
0 0 -1 0.19494365 0.038776703 -0.9800477 0.53125 0
0.38268346 -4.4703484e-08 -0.9238795 0.40309274 6.858671e-08 -0.91515917 0.49999997 0.12500006
0.7071067 -8.940697e-08 -0.70710677 0.71885824 -2.16216e-07 -0.6951567 0.49999997 0.25
1 -1.4901161e-07 0 1 -1.287665e-07 2.5248335e-09 0.49999997 0.5
0.7071067 -8.940697e-08 0.70710677 0.71885824 -1.04380135e-07 0.69515675 0.49999997 0.75
0.9238795 -1.1920929e-07 -0.38268346 0.92728055 -1.7848689e-07 -0.3743671 0.49999997 0.375
0.9238795 -1.1920929e-07 0.38268346 0.9272806 -1.3072278e-07 0.3743671 0.49999997 0.625
0.65328133 -0.27059814 -0.70710677 0.66413844 -0.2750953 -0.6951566 0.43749997 0.25
0.92387944 -0.3826836 0 0.92387944 -0.3826837 -7.574499e-09 0.43749997 0.5
0.35355338 -0.14644668 0.9238795 0.37240905 -0.15425703 0.91515917 0.43749997 0.875
0.65328133 -0.27059814 0.70710677 0.66413826 -0.2750953 0.69515675 0.43749997 0.75
0.35355338 -0.14644668 -0.9238795 0.37240908 -0.15425688 -0.91515917 0.43749997 0.12500006
0.8535533 -0.35355353 -0.38268346 0.85669553 -0.35485497 -0.37436715 0.43749997 0.375
0.8535533 -0.35355353 0.38268346 0.8566955 -0.35485512 0.3743671 0.43749997 0.625
0 0 1 0.19494362 -0.038776733 0.9800476 0.46874997 1
0 0 -1 0.19494362 -0.038776733 -0.9800476 0.46874997 0
0.49999982 -0.50000006 -0.70710677 0.5083094 -0.5083097 -0.69515663 0.37499994 0.25
0.270598 -0.2705981 -0.9238795 0.28502935 -0.28502965 -0.9151592 0.37499994 0.12500006
0.65328133 -0.65328157 -0.38268346 0.65568626 -0.6556865 -0.37436715 0.37499997 0.375
0.65328133 -0.65328157 0.38268346 0.65568626 -0.6556866 0.3743671 0.37499997 0.625
0 0 1 0.16526467 -0.110426776 0.98004776 0.40624997 1
0.270598 -0.2705981 0.9238795 0.28502932 -0.28502977 0.91515917 0.37499994 0.875
0 0 -1 0.16526519 -0.110426776 -0.9800477 0.40624997 0
0.7071066 -0.70710695 0 0.70710653 -0.707107 0 0.37499994 0.5
0.49999982 -0.50000006 0.70710677 0.5083093 -0.50830966 0.6951568 0.37499994 0.75
0.38268313 -0.9238796 0 0.3826832 -0.9238796 0 0.31249994 0.5
0.35355318 -0.8535534 -0.38268346 0.3548547 -0.8566957 -0.37436703 0.31249997 0.375
0.35355318 -0.8535534 0.38268346 0.3548547 -0.8566956 0.37436706 0.31249997 0.625
0 0 1 0.11042625 -0.16526528 0.9800477 0.34374994 1
0.14644653 -0.35355344 0.9238795 0.15425682 -0.37240925 0.9151591 0.31249997 0.875
0 0 -1 0.110425994 -0.16526528 -0.9800477 0.34374994 0
0.14644653 -0.35355344 -0.9238795 0.15425682 -0.37240916 -0.9151591 0.31249997 0.12500006
0.27059782 -0.65328145 -0.70710677 0.2750949 -0.6641385 -0.69515675 0.31249997 0.25
0.27059782 -0.65328145 0.70710677 0.2750949 -0.6641384 0.69515675 0.31249997 0.75
0 0 -1 0.038777344 -0.19494362 -0.9800476 0.28124994 0
-1.1920929e-07 -0.38268346 -0.9238795 4.4091454e-08 -0.40309274 -0.91515917 0.24999997 0.12500006
-2.2351742e-07 -0.70710665 -0.70710677 -2.3609793e-07 -0.71885824 -0.6951567 0.24999997 0.25
-2.3841858e-07 -0.92387944 0.38268346 -2.8155677e-07 -0.92728055 0.37436718 0.24999997 0.625
-3.5762787e-07 -1 0 -3.4085255e-07 -1 7.322018e-08 0.24999997 0.5
-2.2351742e-07 -0.70710665 0.70710677 -2.1870125e-07 -0.71885824 0.6951567 0.24999997 0.75
-2.3841858e-07 -0.92387944 -0.38268346 -2.8407067e-07 -0.92728055 -0.3743671 0.24999997 0.375
0 0 1 0.03877702 -0.19494365 0.9800477 0.28124994 1
-1.1920929e-07 -0.38268346 0.9238795 1.0043053e-07 -0.40309274 0.91515917 0.24999997 0.875
-0.38268378 -0.9238794 0 -0.38268378 -0.9238794 -6.0596e-08 0.18749997 0.5
-0.27059823 -0.6532813 0.70710677 -0.27509537 -0.6641383 0.69515663 0.18749997 0.75
-0.14644673 -0.35355335 -0.9238795 -0.15425706 -0.37240914 -0.9151591 0.18749997 0.12500006
-0.3535536 -0.8535532 -0.38268346 -0.3548552 -0.8566955 -0.37436718 0.18749997 0.375
-0.3535536 -0.8535532 0.38268346 -0.35485518 -0.8566955 0.3743671 0.18749997 0.62500006
0 0 1 -0.03877599 -0.19494367 0.98004764 0.21874994 1
-0.14644673 -0.35355335 0.9238795 -0.15425692 -0.37240914 0.9151591 0.18749997 0.875
0 0 -1 -0.03877651 -0.19494364 -0.9800476 0.21874994 0
-0.27059823 -0.6532813 -0.70710677 -0.2750954 -0.6641384 -0.69515663 0.18749997 0.25
-0.5000001 -0.4999997 -0.70710677 -0.5083098 -0.50830936 -0.69515663 0.12499994 0.25
-0.27059817 -0.27059796 -0.9238795 -0.28503 -0.28502962 -0.91515905 0.12499994 0.12500006
-0.65328157 -0.6532812 -0.38268346 -0.6556865 -0.6556862 -0.3743672 0.12499997 0.375
-0.65328157 -0.6532812 0.38268346 -0.65568656 -0.65568626 0.3743672 0.12499997 0.62500006
0 0 1 -0.11042726 -0.1652652 0.98004764 0.15624994 1
-0.27059817 -0.27059796 0.9238795 -0.28502986 -0.28502968 0.91515905 0.12499994 0.875
0 0 -1 -0.11042727 -0.16526522 -0.98004764 0.15624994 0
-0.70710707 -0.7071065 0 -0.70710707 -0.7071065 -5.0496665e-09 0.12499994 0.5
-0.5000001 -0.4999997 0.70710677 -0.5083098 -0.50830936 0.69515663 0.12499994 0.75
-0.8535534 -0.35355306 0.38268346 -0.8566957 -0.35485455 0.37436715 0.06249994 0.62500006
0 0 1 -0.16526517 -0.11042663 0.98004764 0.09374991 1
-0.35355347 -0.14644647 0.9238795 -0.3724093 -0.15425684 0.9151591 0.06249994 0.875
0 0 -1 -0.16526543 -0.11042663 -0.9800476 0.09374991 0
-0.35355347 -0.14644647 -0.9238795 -0.37240934 -0.15425678 -0.9151591 0.06249994 0.12500006
-0.8535534 -0.35355306 -0.38268346 -0.8566957 -0.35485452 -0.37436715 0.06249994 0.375
-0.65328145 -0.2705977 -0.70710677 -0.6641385 -0.27509478 -0.6951567 0.06249994 0.25
-0.9238797 -0.38268298 0 -0.9238797 -0.38268295 2.5248332e-09 0.06249994 0.5
-0.65328145 -0.2705977 0.70710677 -0.6641386 -0.27509475 0.6951567 0.06249994 0.75
0 0 -1 -0.19494362 -0.038776632 -0.9800476 0.03124994 0
-0.38268346 1.7881393e-07 -0.9238795 -0.40180337 -0.07992348 -0.91223145 0 0.12500006
-0.9238794 3.5762787e-07 -0.38268346 -0.9118985 -0.1813874 -0.36815694 0 0.375
-0.7071066 3.2782555e-07 -0.70710677 -0.7116202 -0.14154968 -0.6881573 0 0.25
-0.9238794 3.5762787e-07 0.38268346 -0.9118985 -0.18138741 0.36815694 0 0.62500006
-0.99999994 5.066395e-07 0 -0.9807853 -0.19508986 0 0 0.5
-0.38268346 1.7881393e-07 0.9238795 -0.40180328 -0.07992348 0.9122315 0 0.875
-0.7071066 3.2782555e-07 0.70710677 -0.7116202 -0.14154968 0.6881573 0 0.75000006
0 0 1 -0.19494338 -0.038776636 0.98004764 0.03124994 1
-0.38268346 1.7881393e-07 0.9238795 -0.40180326 0.079923876 0.91223145 1 0.875
-0.65328115 0.2705983 0.70710677 -0.66413826 0.2750955 0.69515675 0.9374999 0.75000006
-0.7071066 3.2782555e-07 0.70710677 -0.7116201 0.1415504 0.6881571 1 0.75000006
-0.7071066 3.2782555e-07 -0.70710677 -0.71162015 0.14155029 -0.68815714 1 0.25
-0.35355335 0.1464468 -0.9238795 -0.37240925 0.15425715 -0.9151591 0.9374999 0.12500006
-0.38268346 1.7881393e-07 -0.9238795 -0.40180328 0.07992402 -0.91223145 1 0.12500006
-0.99999994 5.066395e-07 0 -0.9807852 0.19509086 0 1 0.5
-0.8535531 0.35355368 -0.38268346 -0.8566953 0.3548553 -0.37436715 0.93749994 0.375
-0.9238794 3.5762787e-07 -0.38268346 -0.9118984 0.18138842 -0.3681571 1 0.375
-0.8535531 0.35355368 0.38268346 -0.85669535 0.35485527 0.37436718 0.93749994 0.62500006
-0.9238794 3.5762787e-07 0.38268346 -0.9118984 0.18138835 0.36815697 1 0.62500006
0 0 1 -0.19494365 0.038776767 0.9800477 0.9687499 1
-0.35355335 0.1464468 0.9238795 -0.37240908 0.15425713 0.9151591 0.9374999 0.875
0 0 -1 -0.19494362 0.038776763 -0.98004764 0.9687499 0
-0.65328115 0.2705983 -0.70710677 -0.6641384 0.2750954 -0.6951567 0.9374999 0.25
-0.92387927 0.3826839 0 -0.9238794 0.38268384 -2.5248335e-09 0.9374999 0.5
-0.27059793 0.27059823 -0.9238795 -0.2850294 0.28502986 -0.91515917 0.8749999 0.12500006
-0.6532811 0.6532817 -0.38268346 -0.655686 0.6556866 -0.3743672 0.8749999 0.375
-0.6532811 0.6532817 0.38268346 -0.655686 0.6556866 0.3743672 0.8749999 0.62500006
0 0 1 -0.16526462 0.11042682 0.9800477 0.90624994 1
-0.27059793 0.27059823 0.9238795 -0.28502932 0.28502983 0.91515917 0.8749999 0.875
0 0 -1 -0.16526513 0.1104268 -0.9800476 0.90624994 0
-0.49999958 0.5000001 -0.70710677 -0.5083093 0.50830966 -0.6951567 0.8749999 0.25
-0.70710635 0.7071071 0 -0.70710635 0.7071071 2.5248332e-09 0.8749999 0.5
-0.49999958 0.5000001 0.70710677 -0.5083093 0.5083097 0.69515675 0.8749999 0.75000006
0 0 1 -0.11042623 0.16526534 0.9800477 0.8437499 1
-0.1464464 0.3535535 0.9238795 -0.15425669 0.37240925 0.9151591 0.8124999 0.875
0 0 -1 -0.11042597 0.16526534 -0.9800477 0.8437499 0
-0.1464464 0.3535535 -0.9238795 -0.15425679 0.3724092 -0.91515917 0.8124999 0.12500006
-0.3535529 0.8535534 -0.38268346 -0.3548547 0.8566956 -0.37436724 0.8124999 0.375
-0.27059758 0.65328145 -0.70710677 -0.27509484 0.66413856 -0.6951567 0.8124999 0.25
-0.3535529 0.8535534 0.38268346 -0.35485464 0.8566957 0.37436715 0.8124999 0.62500006
-0.3826829 0.92387974 0 -0.38268313 0.9238797 2.0198666e-08 0.8124999 0.5
-0.27059758 0.65328145 0.70710677 -0.2750948 0.66413856 0.6951567 0.8124999 0.75000006
0 0 1 -0.038777024 0.19494364 0.9800476 0.7812499 1
0 0 -1 -0.03877722 0.19494367 -0.9800477 0.78124994 0
3 0 1 2
3 3 4 5
3 6 7 8
3 9 10 11
3 3 2 1
3 8 4 12
3 9 13 6
3 14 15 10
3 10 16 11
3 5 17 2
3 4 18 19
3 11 20 13
3 10 21 22
3 23 2 17
3 4 24 5
3 13 18 7
3 24 25 17
3 18 26 19
3 16 27 20
3 22 28 29
3 30 17 25
3 24 26 31
3 18 27 32
3 22 33 16
3 29 34 35
3 36 25 37
3 26 38 31
3 27 39 32
3 29 40 33
3 31 37 25
3 26 39 41
3 27 40 42
3 41 43 38
3 42 44 39
3 40 45 46
3 37 43 47
3 39 48 41
3 40 49 42
3 35 50 45
3 51 37 47
3 47 52 53
3 44 54 48
3 46 55 49
3 45 56 57
3 58 47 53
3 48 52 43
3 44 55 59
3 46 57 60
3 54 61 62
3 60 63 55
3 57 64 65
3 66 53 67
3 52 62 68
3 55 61 59
3 57 69 60
3 52 67 53
3 70 67 71
3 62 72 68
3 61 73 74
3 65 75 69
3 67 72 71
3 61 76 62
3 69 73 63
3 65 77 78
3 73 79 74
3 78 80 75
3 72 81 71
3 74 82 76
3 75 83 73
3 78 84 85
3 86 71 81
3 72 82 87
3 81 88 89
3 79 90 82
3 80 91 83
3 85 92 93
3 94 81 89
3 87 90 88
3 79 91 95
3 85 96 80
3 96 97 91
3 93 98 99
3 100 89 101
3 88 102 103
3 95 97 104
3 93 105 96
3 88 101 89
3 95 102 90
3 106 101 107
3 103 108 109
3 104 110 111
3 105 112 113
3 103 107 101
3 104 108 102
3 105 110 97
3 99 114 112
3 115 116 117
3 118 119 120
3 121 122 123
3 117 124 125
3 115 126 127
3 128 120 119
3 123 129 118
3 121 124 130
3 129 131 119
3 130 132 122
3 116 133 124
3 127 134 135
3 136 119 131
3 129 132 137
3 130 133 138
3 127 139 116
3 135 140 141
3 142 131 143
3 137 144 145
3 138 146 147
3 135 148 139
3 137 143 131
3 138 144 132
3 139 146 133
3 145 12 3
3 146 8 147
3 148 14 9
3 145 1 143
3 147 12 144
3 148 6 146
3 141 149 14
3 150 143 1
3 3 12 4
3 6 13 7
3 9 14 10
3 3 5 2
3 8 7 4
3 9 11 13
3 10 22 16
3 5 24 17
3 4 7 18
3 11 16 20
3 4 19 24
3 13 20 18
3 24 31 25
3 18 32 26
3 16 33 27
3 24 19 26
3 18 20 27
3 22 29 33
3 26 41 38
3 27 42 39
3 29 35 40
3 31 38 37
3 26 32 39
3 27 33 40
3 41 48 43
3 42 49 44
3 40 35 45
3 37 38 43
3 39 44 48
3 40 46 49
3 47 43 52
3 44 59 54
3 46 60 55
3 48 54 52
3 44 49 55
3 46 45 57
3 54 59 61
3 60 69 63
3 52 54 62
3 55 63 61
3 57 65 69
3 52 68 67
3 62 76 72
3 61 63 73
3 65 78 75
3 67 68 72
3 61 74 76
3 69 75 73
3 73 83 79
3 78 85 80
3 72 87 81
3 74 79 82
3 75 80 83
3 72 76 82
3 81 87 88
3 79 95 90
3 80 96 91
3 87 82 90
3 79 83 91
3 85 93 96
3 96 105 97
3 88 90 102
3 95 91 97
3 93 99 105
3 88 103 101
3 95 104 102
3 103 102 108
3 104 97 110
3 105 99 112
3 103 109 107
3 104 111 108
3 105 113 110
3 115 127 116
3 118 129 119
3 121 130 122
3 117 116 124
3 123 122 129
3 121 125 124
3 129 137 131
3 130 138 132
3 116 139 133
3 129 122 132
3 130 124 133
3 127 135 139
3 137 132 144
3 138 133 146
3 135 141 148
3 137 145 143
3 138 147 144
3 139 148 146
3 145 144 12
3 146 6 8
3 148 141 14
3 145 3 1
3 147 8 12
3 148 9 6
