ply
format ascii 1.0
comment Created in Blender version 4.0.2
element vertex 559
property float x
property float y
property float z
property float s
property float t
element face 960
property list uchar uint vertex_indices
end_header
4.475642e-08 0.35397193 -0.35397202 0.75 0.25
0.054257363 0.27277017 -0.41622707 0.71875 0.1875
1.08161345e-07 0.2781137 -0.41622707 0.74999994 0.18749982
2.983761e-08 0.4624865 0.1915683 0.75 0.6250001
0.08120187 0.40822938 0.27811405 0.71875 0.6875
0.09022669 0.45360017 0.1915683 0.71875 0.625
0.03737312 0.18788737 -0.46248674 0.71875 0.12500006
3.3567314e-08 0.19156818 -0.46248674 0.74999994 0.125
0 0.4909733 0.09766067 0.75 0.5625
0.09578414 0.48153937 0.09766067 0.71875 0.5625
0.01905265 0.09578414 -0.4909733 0.71875 0.06249994
7.459403e-09 0.09766056 -0.4909733 0.75 0.06249988
0.09766067 0.4909733 0 0.71875 0.5
0 0.50059205 0 0.75 0.5
7.459403e-09 0.09766056 0.4909733 0.75 0.9375001
0 0 0.50059205 0.734375 1
0.01905265 0.09578414 0.4909733 0.71875 0.93750006
0 0 -0.50059205 0.734375 0
0.09578414 0.48153937 -0.09766067 0.71875 0.4375
0 0.4909733 -0.09766067 0.75 0.4375
3.3567314e-08 0.19156818 0.46248674 0.74999994 0.87500006
0.03737312 0.18788737 0.46248674 0.71875 0.875
0.09022669 0.45360017 -0.1915683 0.71875 0.375
2.983761e-08 0.4624865 -0.1915683 0.75 0.37499994
0 0.27811405 0.41622707 0.75 0.8125
0.054257363 0.27277017 0.41622707 0.71875 0.8125
0.08120187 0.40822938 -0.27811405 0.71875 0.31249994
0 0.41622707 -0.27811405 0.75 0.31250006
4.475642e-08 0.35397193 0.35397202 0.75 0.75000006
0.06905652 0.34717053 0.35397202 0.71875 0.75
0.06905652 0.34717053 -0.35397202 0.71875 0.25
0 0.41622707 0.27811405 0.75 0.6875
0.13545923 0.3270275 -0.35397202 0.6875 0.25
0.15928319 0.38454363 0.27811405 0.6875 0.6875
0.106429644 0.25694385 -0.41622707 0.6875 0.1875
0.176986 0.42728204 0.1915683 0.6875 0.625
0.07331001 0.17698602 -0.46248674 0.6875 0.12500006
0.18788736 0.45360017 0.09766067 0.6875 0.5625
0.037373114 0.09022669 -0.4909733 0.6875 0.06249994
0.19156829 0.4624867 0 0.6875 0.5
0 0 0.50059205 0.703125 1
0.037373114 0.09022669 0.4909733 0.6875 0.93750006
0 0 -0.50059205 0.703125 0
0.18788736 0.45360017 -0.09766067 0.6875 0.4375
0.07331001 0.17698602 0.46248674 0.6875 0.875
0.176986 0.42728204 -0.1915683 0.6875 0.375
0.106429644 0.25694385 0.41622707 0.6875 0.8125
0.15928319 0.38454363 -0.27811405 0.6875 0.31249994
0.13545923 0.3270275 0.35397202 0.6875 0.75
0 0 0.50059205 0.671875 1
0.054257356 0.081201866 0.4909733 0.65625 0.93750006
0 0 -0.50059205 0.671875 0
0.054257356 0.081201866 -0.4909733 0.65625 0.06249994
0.27811405 0.416227 0 0.65625 0.5
0.27277017 0.40822938 -0.09766067 0.65625 0.4375
0.106429644 0.1592832 0.46248674 0.65625 0.875
0.25694385 0.38454366 -0.1915683 0.65625 0.375
0.15451188 0.23124334 0.41622707 0.65625 0.8125
0.23124334 0.3460801 -0.27811405 0.65625 0.31249994
0.19665633 0.29431698 0.35397202 0.65625 0.75
0.19665633 0.29431698 -0.35397202 0.65625 0.25
0.23124334 0.3460801 0.27811405 0.65625 0.6875
0.15451188 0.23124334 -0.41622707 0.65625 0.1875
0.25694385 0.38454366 0.1915683 0.65625 0.625
0.106429644 0.1592832 -0.46248674 0.65625 0.12500006
0.27277017 0.40822938 0.09766067 0.65625 0.5625
0.29431695 0.29431692 0.27811405 0.625 0.68750006
0.19665632 0.19665629 -0.41622707 0.625 0.1875
0.32702747 0.3270275 0.1915683 0.625 0.625
0.13545923 0.13545921 -0.46248674 0.625 0.125
0.34717053 0.3471705 0.09766067 0.625 0.5625
0.06905651 0.0690565 -0.4909733 0.625 0.06249994
0.35397202 0.35397193 0 0.625 0.5
0 0 0.50059205 0.640625 1
0.06905651 0.0690565 0.4909733 0.625 0.93750006
0 0 -0.50059205 0.640625 0
0.34717053 0.3471705 -0.09766067 0.625 0.4375
0.13545923 0.13545921 0.46248674 0.625 0.875
0.32702747 0.3270275 -0.1915683 0.625 0.375
0.19665632 0.19665629 0.41622707 0.625 0.8125
0.29431695 0.29431692 -0.27811405 0.625 0.31249994
0.25029603 0.25029603 0.35397202 0.625 0.75
0.25029603 0.25029603 -0.35397202 0.625 0.25
0.40822938 0.2727701 -0.09766067 0.59375 0.4375
0.1592832 0.10642963 0.46248674 0.59375 0.875
0.38454363 0.25694388 -0.1915683 0.59375 0.375
0.23124336 0.15451185 0.41622707 0.59375 0.8125
0.34608012 0.23124331 -0.27811405 0.59375 0.31249994
0.29431698 0.19665633 0.35397202 0.59375 0.75
0.29431698 0.19665633 -0.35397202 0.59375 0.25
0.34608012 0.23124331 0.27811405 0.59375 0.6875
0.23124336 0.15451185 -0.41622707 0.59375 0.1875
0.38454363 0.25694388 0.1915683 0.59375 0.625
0.1592832 0.10642963 -0.46248674 0.59375 0.125
0.40822938 0.2727701 0.09766067 0.59375 0.5625
0.081201866 0.05425735 -0.4909733 0.59375 0.06249994
0.41622704 0.27811393 0 0.59375 0.5
0 0 0.50059205 0.609375 1
0.081201866 0.05425735 0.4909733 0.59375 0.93750006
0 0 -0.50059205 0.609375 0
0.25694385 0.10642961 -0.41622707 0.5625 0.1875
0.427282 0.17698602 0.1915683 0.5625 0.625
0.176986 0.073309995 -0.46248674 0.5625 0.125
0.45360014 0.1878873 0.09766067 0.5625 0.5625
0.09022667 0.037373107 -0.4909733 0.5625 0.06249994
0.46248668 0.19156818 0 0.5625 0.5
0 0 0.50059205 0.578125 1
0.09022667 0.037373107 0.4909733 0.5625 0.93750006
0 0 -0.50059205 0.578125 0
0.45360014 0.1878873 -0.09766067 0.5625 0.4375
0.176986 0.073309995 0.46248674 0.5625 0.875
0.427282 0.17698602 -0.1915683 0.5625 0.375
0.25694385 0.10642961 0.41622707 0.5625 0.8125
0.38454363 0.15928313 -0.27811405 0.5625 0.31249994
0.3270275 0.13545923 0.35397202 0.5625 0.75
0.3270275 0.13545923 -0.35397202 0.5625 0.25
0.38454363 0.15928313 0.27811405 0.5625 0.6875
0.45360014 0.09022671 -0.1915683 0.53125 0.375
0.27277014 0.05425733 0.41622707 0.53125 0.8125
0.40822932 0.08120182 -0.27811405 0.53125 0.31249994
0.34717053 0.069056526 0.35397202 0.53125 0.75
0.34717053 0.069056526 -0.35397202 0.53125 0.25
0.40822932 0.08120182 0.27811405 0.53125 0.68750006
0.27277014 0.05425733 -0.41622707 0.53125 0.1875
0.45360014 0.09022671 0.1915683 0.53125 0.62500006
0.18788734 0.037373107 -0.46248674 0.53125 0.125
0.48153934 0.09578409 0.09766067 0.53125 0.5625
0.09578412 0.019052641 -0.4909733 0.53125 0.06249994
0.4909732 0.09766057 0 0.53125 0.5
0 0 0.50059205 0.546875 1
0.09578412 0.019052641 0.4909733 0.53125 0.93750006
0 0 -0.50059205 0.546875 0
0.48153934 0.09578409 -0.09766067 0.53125 0.4375
0.18788734 0.037373107 0.46248674 0.53125 0.875
0.19156827 -1.1189105e-08 -0.46248674 0.5 0.125
0.4624867 2.237821e-08 0.1915683 0.5 0.625
0.49097323 -4.475642e-08 0.09766067 0.5 0.5625
0.09766064 -5.5945524e-09 -0.4909733 0.5 0.06249994
0.5005919 -8.205343e-08 0 0.49999997 0.5
0 0 0.50059205 0.515625 1
0.09766064 -5.5945524e-09 0.4909733 0.5 0.93750006
0 0 -0.50059205 0.515625 0
0.49097323 -4.475642e-08 -0.09766067 0.5 0.4375
0.19156827 -1.1189105e-08 0.46248674 0.5 0.875
0.4624867 2.237821e-08 -0.1915683 0.5 0.375
0.278114 -2.610791e-08 0.41622707 0.49999997 0.8125
0.41622698 -4.475642e-08 -0.27811405 0.49999997 0.31249994
0.353972 7.459403e-09 0.35397202 0.5 0.75
0.353972 7.459403e-09 -0.35397202 0.5 0.25
0.41622698 -4.475642e-08 0.27811405 0.49999997 0.68750006
0.278114 -2.610791e-08 -0.41622707 0.49999997 0.1875
0.2727701 -0.054257374 0.41622707 0.46875 0.8125
0.45360014 -0.090226665 -0.1915683 0.46875 0.375
0.4082293 -0.0812019 -0.27811405 0.46875 0.31249994
0.3471705 -0.0690565 0.35397202 0.46875 0.75
0.3471705 -0.0690565 -0.35397202 0.46875 0.25
0.4082293 -0.0812019 0.27811405 0.46875 0.68750006
0.2727701 -0.054257374 -0.41622707 0.46875 0.1875
0.45360014 -0.090226665 0.1915683 0.46875 0.62500006
0.18788734 -0.037373126 -0.46248674 0.46875 0.125
0.4815393 -0.09578417 0.09766067 0.46875 0.5625
0.09578411 -0.01905265 -0.4909733 0.46875 0.06249994
0.49097311 -0.09766072 0 0.46874997 0.5
0 0 0.50059205 0.484375 1
0.09578411 -0.01905265 0.4909733 0.46875 0.93750006
0 0 -0.50059205 0.484375 0
0.4815393 -0.09578417 -0.09766067 0.46875 0.4375
0.18788734 -0.037373126 0.46248674 0.46875 0.875
0.427282 -0.17698596 0.1915683 0.4375 0.62500006
0.45360008 -0.18788737 0.09766067 0.4375 0.5625
0.176986 -0.07331001 -0.46248674 0.4375 0.125
0.09022666 -0.03737311 -0.4909733 0.4375 0.06249994
0.46248654 -0.1915683 0 0.43749997 0.5
0 0 0.50059205 0.453125 1
0.09022666 -0.03737311 0.4909733 0.4375 0.93750006
0 0 -0.50059205 0.453125 0
0.45360008 -0.18788737 -0.09766067 0.4375 0.4375
0.176986 -0.07331001 0.46248674 0.4375 0.875
0.427282 -0.17698596 -0.1915683 0.4375 0.375
0.2569438 -0.106429644 0.41622707 0.43749997 0.81250006
0.38454357 -0.1592832 -0.27811405 0.43749997 0.31249994
0.32702747 -0.1354592 0.35397202 0.4375 0.75
0.32702747 -0.1354592 -0.35397202 0.4375 0.25
0.38454357 -0.1592832 0.27811405 0.43749997 0.68750006
0.2569438 -0.106429644 -0.41622707 0.43749997 0.1875
0.38454363 -0.25694382 -0.1915683 0.40625 0.375
0.34608003 -0.23124334 -0.27811405 0.40625 0.31249994
0.29431695 -0.1966563 0.35397202 0.40625 0.75
0.29431695 -0.1966563 -0.35397202 0.40625 0.25
0.34608003 -0.23124334 0.27811405 0.40625 0.68750006
0.23124328 -0.15451187 -0.41622707 0.40625 0.1875
0.38454363 -0.25694382 0.1915683 0.40625 0.62500006
0.15928318 -0.10642964 -0.46248674 0.40625 0.125
0.4082293 -0.27277014 0.09766067 0.40625 0.5625
0.08120184 -0.05425734 -0.4909733 0.40625 0.06249994
0.41622683 -0.27811402 0 0.40624997 0.5
0 0 0.50059205 0.421875 1
0.08120184 -0.05425734 0.4909733 0.40625 0.93750006
0 0 -0.50059205 0.421875 0
0.4082293 -0.27277014 -0.09766067 0.40625 0.4375
0.15928318 -0.10642964 0.46248674 0.40625 0.875
0.23124328 -0.15451187 0.41622707 0.40625 0.81250006
0.13545918 -0.13545921 -0.46248674 0.375 0.125
0.06905648 -0.06905649 -0.4909733 0.375 0.06249994
0.34717044 -0.3471705 0.09766067 0.375 0.5625
0.35397175 -0.35397196 0 0.37499994 0.5
0 0 0.50059205 0.390625 1
0.06905648 -0.06905649 0.4909733 0.375 0.93750006
0 0 -0.50059205 0.390625 0
0.34717044 -0.3471705 -0.09766067 0.375 0.4375
0.13545918 -0.13545921 0.46248674 0.375 0.875
0.32702747 -0.32702744 -0.1915683 0.375 0.375
0.19665623 -0.1966563 0.41622707 0.37499997 0.81250006
0.29431686 -0.29431692 -0.27811405 0.375 0.31249994
0.250296 -0.250296 0.35397202 0.375 0.75
0.250296 -0.250296 -0.35397202 0.375 0.25
0.29431686 -0.29431692 0.27811405 0.375 0.68750006
0.19665623 -0.1966563 -0.41622707 0.37499997 0.1875
0.32702747 -0.32702744 0.1915683 0.375 0.62500006
0.1966563 -0.29431695 0.35397202 0.34375 0.75
0.1966563 -0.29431695 -0.35397202 0.34375 0.25
0.23124327 -0.34608006 0.27811405 0.34375 0.68750006
0.1545118 -0.23124333 -0.41622707 0.34375 0.1875
0.25694385 -0.3845436 0.1915683 0.34375 0.62500006
0.1064296 -0.15928319 -0.46248674 0.34375 0.125
0.27277005 -0.40822932 0.09766067 0.34375 0.5625
0.05425733 -0.08120184 -0.4909733 0.34375 0.06249994
0.27811378 -0.41622695 0 0.34374994 0.5
0 0 0.50059205 0.359375 1
0.05425733 -0.08120184 0.4909733 0.34375 0.93750006
0 0 -0.50059205 0.359375 0
0.27277005 -0.40822932 -0.09766067 0.34375 0.4375
0.1064296 -0.15928319 0.46248674 0.34375 0.875
0.25694385 -0.3845436 -0.1915683 0.34375 0.375
0.1545118 -0.23124333 0.41622707 0.34375 0.81250006
0.23124327 -0.34608006 -0.27811405 0.34375 0.31249994
0.18788724 -0.45360008 0.09766067 0.3125 0.5625
0.19156805 -0.46248657 0 0.31249997 0.5
0 0 0.50059205 0.328125 1
0.037373092 -0.09022664 0.4909733 0.3125 0.93750006
0 0 -0.50059205 0.328125 0
0.037373092 -0.09022664 -0.4909733 0.3125 0.06249994
0.18788724 -0.45360008 -0.09766067 0.3125 0.4375
0.073309965 -0.17698598 0.46248674 0.3125 0.875
0.176986 -0.42728195 -0.1915683 0.3125 0.375
0.106429555 -0.2569438 0.41622707 0.3125 0.81250006
0.1592831 -0.38454357 -0.27811405 0.3125 0.31249994
0.1354592 -0.32702747 0.35397202 0.3125 0.75
0.1354592 -0.32702747 -0.35397202 0.3125 0.25
0.1592831 -0.38454357 0.27811405 0.3125 0.68750006
0.106429555 -0.2569438 -0.41622707 0.3125 0.1875
0.176986 -0.42728195 0.1915683 0.3125 0.62500006
0.073309965 -0.17698598 -0.46248674 0.3125 0.125
0.0690565 -0.3471705 -0.35397202 0.28125 0.25
0.0690565 -0.3471705 0.35397202 0.28125 0.75
0.0812018 -0.40822926 0.27811405 0.28125 0.68750006
0.05425729 -0.27277005 -0.41622707 0.28124997 0.1875
0.09022669 -0.45360008 0.1915683 0.28125 0.62500006
0.03737308 -0.18788731 -0.46248674 0.28125 0.125
0.095784046 -0.48153925 0.09766067 0.28125 0.5625
0.019052636 -0.09578408 -0.4909733 0.28125 0.06249994
0.09766046 -0.49097306 0 0.28124994 0.5
0 0 0.50059205 0.296875 1
0.019052636 -0.09578408 0.4909733 0.28125 0.93750006
0 0 -0.50059205 0.296875 0
0.095784046 -0.48153925 -0.09766067 0.28125 0.4375
0.03737308 -0.18788731 0.46248674 0.28125 0.875
0.09022669 -0.45360008 -0.1915683 0.28125 0.375
0.05425729 -0.27277005 0.41622707 0.28124997 0.81250006
0.0812018 -0.40822926 -0.27811405 0.28125 0.31249994
0 0 -0.50059205 0.265625 0
-3.7297014e-09 -0.0976606 -0.4909733 0.25 0.06249994
-6.713463e-08 -0.49097314 -0.09766067 0.24999997 0.4375
-2.610791e-08 -0.19156824 0.46248674 0.24999997 0.875
1.4918806e-08 -0.46248662 -0.1915683 0.25 0.375
-4.848612e-08 -0.2781139 0.41622707 0.24999997 0.81250006
-5.221582e-08 -0.41622692 -0.27811405 0.25 0.31249994
-7.459403e-09 -0.35397196 0.35397202 0.25 0.75
-7.459403e-09 -0.35397196 -0.35397202 0.25 0.25
-5.221582e-08 -0.41622692 0.27811405 0.25 0.68750006
-4.848612e-08 -0.2781139 -0.41622707 0.24999997 0.1875
1.4918806e-08 -0.46248662 0.1915683 0.25 0.62500006
-2.610791e-08 -0.19156824 -0.46248674 0.24999997 0.125
-6.713463e-08 -0.49097314 0.09766067 0.24999997 0.5625
-1.6410686e-07 -0.5005917 0 0.24999997 0.5
0 0 0.50059205 0.265625 1
-3.7297014e-09 -0.0976606 0.4909733 0.25 0.93750006
-0.06905651 -0.34717047 -0.35397202 0.21875 0.25
-0.05425738 -0.27277002 -0.41622707 0.21875 0.1875
-0.09022665 -0.45360005 0.1915683 0.21875003 0.62500006
-0.037373133 -0.18788731 -0.46248674 0.21875 0.125
-0.09578418 -0.48153922 0.09766067 0.21875 0.5625
-0.019052641 -0.095784076 -0.4909733 0.21875 0.06249994
-0.097660765 -0.49097294 0 0.21874994 0.5
0 0 0.50059205 0.234375 1
-0.019052641 -0.095784076 0.4909733 0.21875 0.93750006
0 0 -0.50059205 0.234375 0
-0.09578418 -0.48153922 -0.09766067 0.21875 0.4375
-0.037373133 -0.18788731 0.46248674 0.21875 0.875
-0.09022665 -0.45360005 -0.1915683 0.21875003 0.375
-0.05425738 -0.27277002 0.41622707 0.21875 0.81250006
-0.081201896 -0.40822923 -0.27811405 0.21875 0.31249994
-0.06905651 -0.34717047 0.35397202 0.21875 0.75
-0.081201896 -0.40822923 0.27811405 0.21875 0.68750006
-0.037373092 -0.09022663 0.4909733 0.1875 0.93750006
-0.07331001 -0.17698596 0.46248674 0.1875 0.875
-0.17698593 -0.42728192 -0.1915683 0.1875 0.375
-0.10642963 -0.2569437 0.41622707 0.18749997 0.81250006
-0.15928319 -0.3845435 -0.27811405 0.1875 0.31249994
-0.1354592 -0.32702744 0.35397202 0.1875 0.75
-0.1354592 -0.32702744 -0.35397202 0.1875 0.25
-0.15928319 -0.3845435 0.27811405 0.1875 0.68750006
-0.10642963 -0.2569437 -0.41622707 0.18749997 0.1875
-0.17698593 -0.42728192 0.1915683 0.1875 0.62500006
-0.07331001 -0.17698596 -0.46248674 0.1875 0.125
-0.18788736 -0.4536 0.09766067 0.1875 0.5625
-0.037373092 -0.09022663 -0.4909733 0.1875 0.06249994
-0.19156832 -0.46248636 0 0.18749997 0.5
0 0 0.50059205 0.203125 1
0 0 -0.50059205 0.203125 0
-0.18788736 -0.4536 -0.09766067 0.1875 0.4375
-0.25694376 -0.38454357 0.1915683 0.15625003 0.62500006
-0.10642963 -0.15928315 -0.46248674 0.15624997 0.125
-0.27277014 -0.4082292 0.09766067 0.15624997 0.5625
-0.054257322 -0.081201814 -0.4909733 0.15625003 0.06249994
-0.278114 -0.41622666 0 0.15624994 0.5
0 0 0.50059205 0.171875 1
-0.054257322 -0.081201814 0.4909733 0.15625003 0.93750006
0 0 -0.50059205 0.171875 0
-0.27277014 -0.4082292 -0.09766067 0.15624997 0.4375
-0.10642963 -0.15928315 0.46248674 0.15624997 0.875
-0.25694376 -0.38454357 -0.1915683 0.15625003 0.375
-0.15451184 -0.2312432 0.41622707 0.15624997 0.8125001
-0.23124331 -0.34607998 -0.27811405 0.15624997 0.31249994
-0.1966563 -0.29431692 0.35397202 0.15625003 0.75
-0.1966563 -0.29431692 -0.35397202 0.15625003 0.25
-0.23124331 -0.34607998 0.27811405 0.15624997 0.68750006
-0.15451184 -0.2312432 -0.41622707 0.15624997 0.18749994
-0.32702738 -0.3270274 -0.1915683 0.125 0.375
-0.19665624 -0.19665615 0.41622707 0.12499997 0.8125001
-0.2943169 -0.2943168 -0.27811405 0.12499997 0.31249994
-0.25029597 -0.25029597 0.35397202 0.125 0.75
-0.25029597 -0.25029597 -0.35397202 0.125 0.25
-0.2943169 -0.2943168 0.27811405 0.12499997 0.68750006
-0.19665624 -0.19665615 -0.41622707 0.12499997 0.18749994
-0.32702738 -0.3270274 0.1915683 0.125 0.62500006
-0.1354592 -0.13545917 -0.46248674 0.125 0.125
-0.34717047 -0.34717035 0.09766067 0.12499997 0.5625
-0.069056466 -0.06905646 -0.4909733 0.125 0.06249994
-0.35397187 -0.3539716 0 0.12499994 0.5
0 0 0.50059205 0.14062497 1
-0.069056466 -0.06905646 0.4909733 0.125 0.93750006
0 0 -0.50059205 0.14062497 0
-0.34717047 -0.34717035 -0.09766067 0.12499997 0.4375
-0.1354592 -0.13545917 0.46248674 0.125 0.875
-0.15928316 -0.106429584 -0.46248674 0.09375 0.125
-0.38454354 -0.2569438 0.1915683 0.09375 0.6250001
-0.4082293 -0.27276996 0.09766067 0.09374997 0.5625
-0.081201814 -0.05425731 -0.4909733 0.09375 0.06249994
-0.41622683 -0.27811363 0 0.09374991 0.5
0 0 0.50059205 0.109375 1
-0.081201814 -0.05425731 0.4909733 0.09375 0.93750006
0 0 -0.50059205 0.109375 0
-0.4082293 -0.27276996 -0.09766067 0.09374997 0.4375
-0.15928316 -0.106429584 0.46248674 0.09375 0.875
-0.38454354 -0.2569438 -0.1915683 0.09375 0.37499994
-0.23124325 -0.15451172 0.41622707 0.09374997 0.8125001
-0.34608003 -0.23124321 -0.27811405 0.09375 0.31249994
-0.29431692 -0.19665627 0.35397202 0.09375 0.75000006
-0.29431692 -0.19665627 -0.35397202 0.09375 0.25
-0.34608003 -0.23124321 0.27811405 0.09375 0.68750006
-0.23124325 -0.15451172 -0.41622707 0.09374997 0.18749994
-0.2569437 -0.106429495 0.41622707 0.0625 0.8125001
-0.4272819 -0.17698595 -0.1915683 0.06250003 0.37499994
-0.3845435 -0.15928304 -0.27811405 0.0625 0.31249988
-0.32702744 -0.13545918 0.35397202 0.06250003 0.75
-0.32702744 -0.13545918 -0.35397202 0.06250003 0.25
-0.3845435 -0.15928304 0.27811405 0.0625 0.6875001
-0.2569437 -0.106429495 -0.41622707 0.0625 0.18749994
-0.4272819 -0.17698595 0.1915683 0.06250003 0.6250001
-0.17698595 -0.07330996 -0.46248674 0.0625 0.125
-0.45360005 -0.18788716 0.09766067 0.0625 0.5625
-0.09022662 -0.037373077 -0.4909733 0.0625 0.06249994
-0.46248642 -0.19156791 0 0.06249994 0.5
0 0 0.50059205 0.078125 1
-0.09022662 -0.037373077 0.4909733 0.0625 0.93750006
0 0 -0.50059205 0.078125 0
-0.45360005 -0.18788716 -0.09766067 0.0625 0.4375
-0.17698595 -0.07330996 0.46248674 0.0625 0.875
-0.45360002 -0.09022666 0.1915683 0.03125 0.62500006
-0.48153922 -0.09578398 0.09766067 0.03124997 0.5625
-0.09578406 -0.019052625 -0.4909733 0.03125 0.06249994
-0.49097288 -0.097660355 0 0.03124994 0.5
0 0 0.50059205 0.04687503 1
-0.09578406 -0.019052625 0.4909733 0.03125 0.93750006
0 0 -0.50059205 0.04687503 0
-0.48153922 -0.09578398 -0.09766067 0.03124997 0.4375
-0.18788728 -0.037373077 0.46248674 0.03124997 0.87500006
-0.45360002 -0.09022666 -0.1915683 0.03125 0.375
-0.27276996 -0.054257248 0.41622707 0.03124997 0.8125001
-0.4082292 -0.081201755 -0.27811405 0.03124997 0.31249994
-0.34717047 -0.06905649 0.35397202 0.03125 0.75
-0.34717047 -0.06905649 -0.35397202 0.03125 0.25
-0.4082292 -0.081201755 0.27811405 0.03124997 0.68750006
-0.27276996 -0.054257248 -0.41622707 0.03124997 0.18749994
-0.18788728 -0.037373077 -0.46248674 0.03124997 0.125
-0.46248657 7.459403e-09 -0.1915683 0 0.37499994
-0.41622686 8.205343e-08 -0.27811405 0 0.31249994
-0.35397193 1.4918806e-08 0.35397202 0 0.75000006
-0.35397193 1.4918806e-08 -0.35397202 0 0.25
-0.41622686 8.205343e-08 0.27811405 0 0.68750006
-0.2781138 7.459403e-08 -0.41622707 0 0.18749994
-0.46248657 7.459403e-09 0.1915683 0 0.6250001
-0.1915682 2.610791e-08 -0.46248674 0 0.125
-0.4909731 1.3426926e-07 0.09766067 0 0.5625
-0.09766058 9.324253e-09 -0.4909733 0 0.06249994
-0.5005916 2.2378208e-07 0 0 0.5
0 0 0.50059205 0.015625 1
-0.09766058 9.324253e-09 0.4909733 0 0.93750006
0 0 -0.50059205 0.015625 0
-0.4909731 1.3426926e-07 -0.09766067 0 0.4375
-0.1915682 2.610791e-08 0.46248674 0 0.87500006
-0.2781138 7.459403e-08 0.41622707 0 0.8125001
-0.1915682 2.610791e-08 -0.46248674 1 0.125
-0.09578405 0.019052643 -0.4909733 0.96875 0.06249994
-0.09766058 9.324253e-09 -0.4909733 1 0.06249994
-0.5005916 2.2378208e-07 0 1 0.5
-0.48153913 0.09578423 0.09766067 0.96874994 0.56250006
-0.4909728 0.097660795 0 0.9687499 0.5
-0.09766058 9.324253e-09 0.4909733 1 0.93750006
0 0 0.50059205 0.984375 1
-0.09578405 0.019052643 0.4909733 0.96875 0.93750006
0 0 -0.50059205 0.984375 0
-0.48153913 0.09578423 -0.09766067 0.96874994 0.4375
-0.4909731 1.3426926e-07 -0.09766067 1 0.4375
-0.18788727 0.037373126 0.46248674 0.96874994 0.87500006
-0.1915682 2.610791e-08 0.46248674 1 0.87500006
-0.4536 0.090226665 -0.1915683 0.96875 0.37499994
-0.46248657 7.459403e-09 -0.1915683 1 0.37499994
-0.2781138 7.459403e-08 0.41622707 1 0.8125001
-0.27276993 0.05425739 0.41622707 0.96874994 0.8125001
-0.41622686 8.205343e-08 -0.27811405 1 0.31249994
-0.40822914 0.08120192 -0.27811405 0.96874994 0.31249988
-0.34717044 0.06905652 0.35397202 0.96875 0.75000006
-0.35397193 1.4918806e-08 0.35397202 1 0.75000006
-0.34717044 0.06905652 -0.35397202 0.96875 0.25
-0.35397193 1.4918806e-08 -0.35397202 1 0.25
-0.41622686 8.205343e-08 0.27811405 1 0.68750006
-0.40822914 0.08120192 0.27811405 0.96874994 0.6875001
-0.2781138 7.459403e-08 -0.41622707 1 0.18749994
-0.27276993 0.05425739 -0.41622707 0.96874994 0.18749994
-0.4536 0.090226665 0.1915683 0.96875 0.6250001
-0.46248657 7.459403e-09 0.1915683 1 0.6250001
-0.18788727 0.037373126 -0.46248674 0.96874994 0.125
-0.4909731 1.3426926e-07 0.09766067 1 0.5625
-0.3270274 0.1354592 -0.35397202 0.9375 0.25
-0.3270274 0.1354592 0.35397202 0.9375 0.75000006
-0.38454342 0.15928319 0.27811405 0.93749994 0.6875001
-0.2569436 0.10642962 -0.41622707 0.93749994 0.18749994
-0.42728186 0.17698593 0.1915683 0.9375 0.6250001
-0.17698592 0.073309995 -0.46248674 0.9375 0.125
-0.4535999 0.18788739 0.09766067 0.93749994 0.56250006
-0.090226606 0.037373092 -0.4909733 0.9375 0.06249994
-0.4624862 0.19156832 0 0.9374999 0.5
0 0 0.50059205 0.953125 1
-0.090226606 0.037373092 0.4909733 0.9375 0.93750006
0 0 -0.50059205 0.953125 0
-0.4535999 0.18788739 -0.09766067 0.93749994 0.4375
-0.17698592 0.073309995 0.46248674 0.9375 0.87500006
-0.42728186 0.17698593 -0.1915683 0.9375 0.37499994
-0.2569436 0.10642962 0.41622707 0.93749994 0.8125001
-0.38454342 0.15928319 -0.27811405 0.93749994 0.31249988
0 0 0.50059205 0.921875 1
-0.08120179 0.05425732 0.4909733 0.90625 0.93750006
0 0 -0.50059205 0.921875 0
-0.08120179 0.05425732 -0.4909733 0.90625 0.06249994
-0.4082291 0.27277014 -0.09766067 0.90625 0.4375
-0.1592831 0.10642961 0.46248674 0.90625 0.87500006
-0.3845435 0.25694376 -0.1915683 0.90625 0.37499994
-0.2312431 0.15451182 0.41622707 0.90624994 0.8125001
-0.3460799 0.23124331 -0.27811405 0.90625 0.31249988
-0.2943169 0.19665629 0.35397202 0.90625 0.75000006
-0.2943169 0.19665629 -0.35397202 0.90625 0.25
-0.3460799 0.23124331 0.27811405 0.90625 0.6875001
-0.2312431 0.15451182 -0.41622707 0.90624994 0.18749994
-0.3845435 0.25694376 0.1915683 0.90625 0.6250001
-0.1592831 0.10642961 -0.46248674 0.90625 0.125
-0.4082291 0.27277014 0.09766067 0.90625 0.56250006
-0.4162265 0.27811396 0 0.90624994 0.5
-0.25029594 0.25029597 0.35397202 0.875 0.75000006
-0.2943167 0.29431686 0.27811405 0.87499994 0.6875001
-0.25029594 0.25029597 -0.35397202 0.875 0.25
-0.19665606 0.19665621 -0.41622707 0.8749999 0.18749994
-0.32702735 0.32702735 0.1915683 0.875 0.6250001
-0.13545914 0.13545917 -0.46248674 0.875 0.125
-0.34717026 0.34717044 0.09766067 0.87499994 0.56250006
-0.069056444 0.06905646 -0.4909733 0.875 0.06249994
-0.35397148 0.3539718 0 0.8749999 0.5
0 0 0.50059205 0.890625 1
-0.069056444 0.06905646 0.4909733 0.875 0.93750006
0 0 -0.50059205 0.890625 0
-0.34717026 0.34717044 -0.09766067 0.87499994 0.4375
-0.13545914 0.13545917 0.46248674 0.875 0.87500006
-0.32702735 0.32702735 -0.1915683 0.875 0.37499994
-0.19665606 0.19665621 0.41622707 0.8749999 0.8125001
-0.2943167 0.29431686 -0.27811405 0.87499994 0.31249988
-0.2727699 0.40822923 -0.09766067 0.84374994 0.4375
-0.10642956 0.15928313 0.46248674 0.84375 0.87500006
-0.25694373 0.3845435 -0.1915683 0.84375 0.37499994
-0.15451165 0.23124321 0.41622707 0.84374994 0.8125002
-0.23124313 0.34607998 -0.27811405 0.84374994 0.31249988
-0.19665624 0.29431692 0.35397202 0.84375 0.75000006
-0.19665624 0.29431692 -0.35397202 0.84375 0.25
-0.23124313 0.34607998 0.27811405 0.84374994 0.6875001
-0.15451165 0.23124321 -0.41622707 0.84374994 0.18749982
-0.25694373 0.3845435 0.1915683 0.84375 0.6250001
-0.10642956 0.15928313 -0.46248674 0.84375 0.125
-0.2727699 0.40822923 0.09766067 0.84374994 0.56250006
-0.054257296 0.0812018 -0.4909733 0.84375 0.06249994
-0.27811354 0.41622674 0 0.8437499 0.5
0 0 0.50059205 0.859375 1
-0.054257296 0.0812018 0.4909733 0.84375 0.93750006
0 0 -0.50059205 0.859375 0
-0.13545915 0.32702744 -0.35397202 0.8125 0.25
-0.10642943 0.25694364 -0.41622707 0.81249994 0.18749982
-0.1769859 0.42728186 0.1915683 0.8125 0.6250001
-0.07330994 0.17698593 -0.46248674 0.8125 0.125
-0.18788712 0.45359996 0.09766067 0.81249994 0.56250006
-0.03737307 0.0902266 -0.4909733 0.8125 0.06249988
-0.19156785 0.4624863 0 0.8124999 0.5
0 0 0.50059205 0.828125 1
-0.03737307 0.0902266 0.4909733 0.8125 0.9375001
0 0 -0.50059205 0.828125 0
-0.18788712 0.45359996 -0.09766067 0.81249994 0.4375
-0.07330994 0.17698593 0.46248674 0.8125 0.87500006
-0.1769859 0.42728186 -0.1915683 0.8125 0.37499994
-0.10642943 0.25694364 0.41622707 0.81249994 0.8125002
-0.15928298 0.38454345 -0.27811405 0.81249994 0.31249988
-0.13545915 0.32702744 0.35397202 0.8125 0.75000006
-0.15928298 0.38454345 0.27811405 0.81249994 0.6875001
-0.037373066 0.18788727 0.46248674 0.78124994 0.87500006
-0.09022662 0.45359996 -0.1915683 0.78125 0.37499994
-0.05425719 0.27276987 0.41622707 0.78124994 0.8125002
-0.0812017 0.4082291 -0.27811405 0.78124994 0.31249988
-0.06905646 0.34717047 0.35397202 0.78125 0.75
-0.06905646 0.34717047 -0.35397202 0.78125 0.25
-0.0812017 0.4082291 0.27811405 0.78124994 0.6875001
-0.05425719 0.27276987 -0.41622707 0.78124994 0.18749982
-0.09022662 0.45359996 0.1915683 0.78125 0.6250001
-0.037373066 0.18788727 -0.46248674 0.78124994 0.125
-0.09578395 0.48153913 0.09766067 0.78124994 0.56250006
-0.019052623 0.09578404 -0.4909733 0.78125 0.06249988
-0.09766032 0.49097276 0 0.7812499 0.5
0 0 0.50059205 0.796875 1
-0.019052623 0.09578404 0.4909733 0.78125 0.9375001
0 0 -0.50059205 0.796875 0
-0.09578395 0.48153913 -0.09766067 0.78124994 0.4375
0 0 0.50059205 0.765625 1
0 0 -0.50059205 0.765625 0
3 0 1 2
3 3 4 5
3 2 6 7
3 8 5 9
3 7 10 11
3 8 12 13
3 14 15 16
3 17 11 10
3 13 18 19
3 20 16 21
3 19 22 23
3 24 21 25
3 23 26 27
3 28 25 29
3 27 30 0
3 31 29 4
3 26 32 30
3 29 33 4
3 1 32 34
3 4 35 5
3 6 34 36
3 9 35 37
3 6 38 10
3 9 39 12
3 16 40 41
3 42 10 38
3 12 43 18
3 16 44 21
3 18 45 22
3 21 46 25
3 22 47 26
3 25 48 29
3 41 49 50
3 51 38 52
3 43 53 54
3 41 55 44
3 43 56 45
3 44 57 46
3 47 56 58
3 46 59 48
3 32 58 60
3 48 61 33
3 34 60 62
3 33 63 35
3 34 64 36
3 35 65 37
3 36 52 38
3 37 53 39
3 59 66 61
3 60 67 62
3 61 68 63
3 62 69 64
3 65 68 70
3 64 71 52
3 53 70 72
3 50 73 74
3 75 52 71
3 53 76 54
3 50 77 55
3 54 78 56
3 55 79 57
3 58 78 80
3 57 81 59
3 58 82 60
3 72 83 76
3 74 84 77
3 76 85 78
3 77 86 79
3 80 85 87
3 79 88 81
3 80 89 82
3 66 88 90
3 82 91 67
3 66 92 68
3 69 91 93
3 70 92 94
3 69 95 71
3 72 94 96
3 74 97 98
3 99 71 95
3 89 100 91
3 90 101 92
3 91 102 93
3 94 101 103
3 95 102 104
3 96 103 105
3 98 106 107
3 108 95 104
3 96 109 83
3 98 110 84
3 83 111 85
3 84 112 86
3 87 111 113
3 86 114 88
3 87 115 89
3 90 114 116
3 109 117 111
3 110 118 112
3 113 117 119
3 112 120 114
3 113 121 115
3 116 120 122
3 100 121 123
3 116 124 101
3 102 123 125
3 103 124 126
3 102 127 104
3 105 126 128
3 107 129 130
3 131 104 127
3 105 132 109
3 110 130 133
3 123 134 125
3 126 135 136
3 125 137 127
3 128 136 138
3 130 139 140
3 141 127 137
3 128 142 132
3 133 140 143
3 132 144 117
3 133 145 118
3 119 144 146
3 118 147 120
3 119 148 121
3 122 147 149
3 123 148 150
3 122 135 124
3 143 151 145
3 146 152 153
3 145 154 147
3 146 155 148
3 149 154 156
3 150 155 157
3 149 158 135
3 150 159 134
3 136 158 160
3 134 161 137
3 138 160 162
3 140 163 164
3 165 137 161
3 138 166 142
3 140 167 143
3 142 152 144
3 160 168 169
3 161 170 171
3 162 169 172
3 164 173 174
3 175 161 171
3 162 176 166
3 164 177 167
3 166 178 152
3 151 177 179
3 153 178 180
3 151 181 154
3 153 182 155
3 156 181 183
3 157 182 184
3 156 168 158
3 157 170 159
3 180 185 186
3 179 187 181
3 180 188 182
3 183 187 189
3 184 188 190
3 183 191 168
3 184 192 170
3 169 191 193
3 170 194 171
3 172 193 195
3 174 196 197
3 198 171 194
3 172 199 176
3 174 200 177
3 176 185 178
3 179 200 201
3 194 202 203
3 195 204 205
3 197 206 207
3 208 194 203
3 195 209 199
3 197 210 200
3 199 211 185
3 200 212 201
3 186 211 213
3 201 214 187
3 186 215 188
3 189 214 216
3 188 217 190
3 189 218 191
3 192 217 202
3 193 218 204
3 212 219 214
3 213 220 215
3 216 219 221
3 217 220 222
3 216 223 218
3 217 224 202
3 204 223 225
3 202 226 203
3 205 225 227
3 207 228 229
3 230 203 226
3 205 231 209
3 210 229 232
3 209 233 211
3 212 232 234
3 213 233 235
3 227 236 237
3 229 238 239
3 240 226 241
3 227 242 231
3 229 243 232
3 231 244 233
3 232 245 234
3 235 244 246
3 234 247 219
3 235 248 220
3 221 247 249
3 222 248 250
3 221 251 223
3 222 252 224
3 225 251 236
3 224 241 226
3 246 253 248
3 249 254 255
3 250 253 256
3 249 257 251
3 250 258 252
3 236 257 259
3 252 260 241
3 237 259 261
3 239 262 263
3 264 241 260
3 237 265 242
3 239 266 243
3 242 267 244
3 243 268 245
3 246 267 269
3 245 254 247
3 270 260 271
3 261 272 265
3 263 273 266
3 265 274 267
3 268 273 275
3 269 274 276
3 268 277 254
3 269 278 253
3 255 277 279
3 256 278 280
3 255 281 257
3 256 282 258
3 259 281 283
3 260 282 271
3 261 283 284
3 263 285 286
3 280 287 288
3 279 289 281
3 280 290 282
3 283 289 291
3 282 292 271
3 284 291 293
3 286 294 295
3 296 271 292
3 284 297 272
3 286 298 273
3 272 299 274
3 273 300 275
3 276 299 301
3 275 302 277
3 276 287 278
3 279 302 303
3 298 304 305
3 297 306 299
3 298 307 300
3 301 306 308
3 300 309 302
3 301 310 287
3 303 309 311
3 288 310 312
3 303 313 289
3 288 314 290
3 291 313 315
3 290 316 292
3 293 315 317
3 295 318 304
3 319 292 316
3 293 320 297
3 311 321 313
3 312 322 314
3 315 321 323
3 316 322 324
3 317 323 325
3 304 326 327
3 328 316 324
3 317 329 320
3 305 327 330
3 320 331 306
3 305 332 307
3 308 331 333
3 307 334 309
3 308 335 310
3 311 334 336
3 312 335 337
3 329 338 331
3 330 339 332
3 333 338 340
3 332 341 334
3 333 342 335
3 336 341 343
3 337 342 344
3 336 345 321
3 337 346 322
3 323 345 347
3 324 346 348
3 325 347 349
3 327 350 351
3 352 324 348
3 325 353 329
3 327 354 330
3 344 355 346
3 347 356 357
3 346 358 348
3 349 357 359
3 351 360 361
3 362 348 358
3 349 363 353
3 351 364 354
3 353 365 338
3 354 366 339
3 340 365 367
3 339 368 341
3 340 369 342
3 343 368 370
3 344 369 371
3 343 356 345
3 364 372 366
3 367 373 374
3 366 375 368
3 367 376 369
3 368 377 370
3 371 376 378
3 370 379 356
3 371 380 355
3 357 379 381
3 355 382 358
3 359 381 383
3 361 384 385
3 386 358 382
3 359 387 363
3 361 388 364
3 363 373 365
3 381 389 390
3 380 391 382
3 383 390 392
3 385 393 394
3 395 382 391
3 383 396 387
3 385 397 388
3 387 398 373
3 388 399 372
3 374 398 400
3 372 401 375
3 374 402 376
3 377 401 403
3 378 402 404
3 377 389 379
3 378 405 380
3 400 406 407
3 399 408 401
3 400 409 402
3 403 408 410
3 404 409 411
3 403 412 389
3 404 413 405
3 390 412 414
3 405 415 391
3 392 414 416
3 394 417 418
3 419 391 415
3 392 420 396
3 394 421 397
3 396 406 398
3 399 421 422
3 423 424 425
3 426 427 428
3 429 430 431
3 432 425 424
3 426 433 434
3 429 435 436
3 434 437 438
3 439 435 440
3 441 437 442
3 439 443 444
3 441 445 446
3 447 443 448
3 449 445 450
3 447 451 452
3 449 453 423
3 454 451 427
3 442 455 445
3 448 456 457
3 450 455 458
3 448 459 451
3 450 460 453
3 427 459 461
3 453 462 424
3 428 461 463
3 431 464 465
3 466 424 462
3 428 467 433
3 431 468 435
3 433 469 437
3 440 468 470
3 442 469 471
3 440 456 443
3 465 472 473
3 474 462 475
3 463 476 467
3 468 473 477
3 467 478 469
3 468 479 470
3 471 478 480
3 470 481 456
3 471 482 455
3 457 481 483
3 458 482 484
3 457 485 459
3 460 484 486
3 461 485 487
3 460 475 462
3 463 487 488
3 483 489 490
3 484 491 492
3 483 493 485
3 484 494 486
3 487 493 495
3 486 496 475
3 488 495 497
3 473 498 499
3 500 475 496
3 488 501 476
3 473 502 477
3 476 503 478
3 479 502 504
3 480 503 505
3 479 489 481
3 480 491 482
3 497 506 501
3 499 507 502
3 501 508 503
3 504 507 509
3 505 508 510
3 504 511 489
3 505 512 491
3 490 511 513
3 492 512 514
3 490 515 493
3 492 516 494
3 495 515 517
3 494 518 496
3 497 517 519
3 499 520 521
3 522 496 518
3 514 523 524
3 513 525 515
3 514 526 516
3 517 525 527
3 516 528 518
3 519 527 529
3 521 530 531
3 532 518 528
3 519 533 506
3 507 531 534
3 506 535 508
3 507 536 509
3 510 535 537
3 509 538 511
3 510 523 512
3 513 538 539
3 531 540 534
3 533 541 535
3 536 540 542
3 537 541 543
3 536 544 538
3 537 545 523
3 539 544 546
3 524 545 547
3 539 548 525
3 524 549 526
3 527 548 550
3 528 549 551
3 529 550 552
3 531 553 554
3 555 528 551
3 529 556 533
3 548 31 3
3 547 7 549
3 550 3 8
3 549 11 551
3 552 8 13
3 554 557 14
3 558 551 11
3 552 19 556
3 540 14 20
3 556 23 541
3 542 20 24
3 541 27 543
3 544 24 28
3 543 0 545
3 546 28 31
3 547 0 2
3 0 30 1
3 3 31 4
3 2 1 6
3 8 3 5
3 7 6 10
3 8 9 12
3 13 12 18
3 20 14 16
3 19 18 22
3 24 20 21
3 23 22 26
3 28 24 25
3 27 26 30
3 31 28 29
3 26 47 32
3 29 48 33
3 1 30 32
3 4 33 35
3 6 1 34
3 9 5 35
3 6 36 38
3 9 37 39
3 12 39 43
3 16 41 44
3 18 43 45
3 21 44 46
3 22 45 47
3 25 46 48
3 43 39 53
3 41 50 55
3 43 54 56
3 44 55 57
3 47 45 56
3 46 57 59
3 32 47 58
3 48 59 61
3 34 32 60
3 33 61 63
3 34 62 64
3 35 63 65
3 36 64 52
3 37 65 53
3 59 81 66
3 60 82 67
3 61 66 68
3 62 67 69
3 65 63 68
3 64 69 71
3 53 65 70
3 53 72 76
3 50 74 77
3 54 76 78
3 55 77 79
3 58 56 78
3 57 79 81
3 58 80 82
3 72 96 83
3 74 98 84
3 76 83 85
3 77 84 86
3 80 78 85
3 79 86 88
3 80 87 89
3 66 81 88
3 82 89 91
3 66 90 92
3 69 67 91
3 70 68 92
3 69 93 95
3 72 70 94
3 89 115 100
3 90 116 101
3 91 100 102
3 94 92 101
3 95 93 102
3 96 94 103
3 96 105 109
3 98 107 110
3 83 109 111
3 84 110 112
3 87 85 111
3 86 112 114
3 87 113 115
3 90 88 114
3 109 132 117
3 110 133 118
3 113 111 117
3 112 118 120
3 113 119 121
3 116 114 120
3 100 115 121
3 116 122 124
3 102 100 123
3 103 101 124
3 102 125 127
3 105 103 126
3 105 128 132
3 110 107 130
3 123 150 134
3 126 124 135
3 125 134 137
3 128 126 136
3 128 138 142
3 133 130 140
3 132 142 144
3 133 143 145
3 119 117 144
3 118 145 147
3 119 146 148
3 122 120 147
3 123 121 148
3 122 149 135
3 143 167 151
3 146 144 152
3 145 151 154
3 146 153 155
3 149 147 154
3 150 148 155
3 149 156 158
3 150 157 159
3 136 135 158
3 134 159 161
3 138 136 160
3 138 162 166
3 140 164 167
3 142 166 152
3 160 158 168
3 161 159 170
3 162 160 169
3 162 172 176
3 164 174 177
3 166 176 178
3 151 167 177
3 153 152 178
3 151 179 181
3 153 180 182
3 156 154 181
3 157 155 182
3 156 183 168
3 157 184 170
3 180 178 185
3 179 201 187
3 180 186 188
3 183 181 187
3 184 182 188
3 183 189 191
3 184 190 192
3 169 168 191
3 170 192 194
3 172 169 193
3 172 195 199
3 174 197 200
3 176 199 185
3 179 177 200
3 194 192 202
3 195 193 204
3 195 205 209
3 197 207 210
3 199 209 211
3 200 210 212
3 186 185 211
3 201 212 214
3 186 213 215
3 189 187 214
3 188 215 217
3 189 216 218
3 192 190 217
3 193 191 218
3 212 234 219
3 213 235 220
3 216 214 219
3 217 215 220
3 216 221 223
3 217 222 224
3 204 218 223
3 202 224 226
3 205 204 225
3 205 227 231
3 210 207 229
3 209 231 233
3 212 210 232
3 213 211 233
3 227 225 236
3 227 237 242
3 229 239 243
3 231 242 244
3 232 243 245
3 235 233 244
3 234 245 247
3 235 246 248
3 221 219 247
3 222 220 248
3 221 249 251
3 222 250 252
3 225 223 251
3 224 252 241
3 246 269 253
3 249 247 254
3 250 248 253
3 249 255 257
3 250 256 258
3 236 251 257
3 252 258 260
3 237 236 259
3 237 261 265
3 239 263 266
3 242 265 267
3 243 266 268
3 246 244 267
3 245 268 254
3 261 284 272
3 263 286 273
3 265 272 274
3 268 266 273
3 269 267 274
3 268 275 277
3 269 276 278
3 255 254 277
3 256 253 278
3 255 279 281
3 256 280 282
3 259 257 281
3 260 258 282
3 261 259 283
3 280 278 287
3 279 303 289
3 280 288 290
3 283 281 289
3 282 290 292
3 284 283 291
3 284 293 297
3 286 295 298
3 272 297 299
3 273 298 300
3 276 274 299
3 275 300 302
3 276 301 287
3 279 277 302
3 298 295 304
3 297 320 306
3 298 305 307
3 301 299 306
3 300 307 309
3 301 308 310
3 303 302 309
3 288 287 310
3 303 311 313
3 288 312 314
3 291 289 313
3 290 314 316
3 293 291 315
3 293 317 320
3 311 336 321
3 312 337 322
3 315 313 321
3 316 314 322
3 317 315 323
3 317 325 329
3 305 304 327
3 320 329 331
3 305 330 332
3 308 306 331
3 307 332 334
3 308 333 335
3 311 309 334
3 312 310 335
3 329 353 338
3 330 354 339
3 333 331 338
3 332 339 341
3 333 340 342
3 336 334 341
3 337 335 342
3 336 343 345
3 337 344 346
3 323 321 345
3 324 322 346
3 325 323 347
3 325 349 353
3 327 351 354
3 344 371 355
3 347 345 356
3 346 355 358
3 349 347 357
3 349 359 363
3 351 361 364
3 353 363 365
3 354 364 366
3 340 338 365
3 339 366 368
3 340 367 369
3 343 341 368
3 344 342 369
3 343 370 356
3 364 388 372
3 367 365 373
3 366 372 375
3 367 374 376
3 368 375 377
3 371 369 376
3 370 377 379
3 371 378 380
3 357 356 379
3 355 380 382
3 359 357 381
3 359 383 387
3 361 385 388
3 363 387 373
3 381 379 389
3 380 405 391
3 383 381 390
3 383 392 396
3 385 394 397
3 387 396 398
3 388 397 399
3 374 373 398
3 372 399 401
3 374 400 402
3 377 375 401
3 378 376 402
3 377 403 389
3 378 404 405
3 400 398 406
3 399 422 408
3 400 407 409
3 403 401 408
3 404 402 409
3 403 410 412
3 404 411 413
3 390 389 412
3 405 413 415
3 392 390 414
3 392 416 420
3 394 418 421
3 396 420 406
3 399 397 421
3 423 453 424
3 426 454 427
3 426 428 433
3 429 431 435
3 434 433 437
3 439 436 435
3 441 438 437
3 439 440 443
3 441 442 445
3 447 444 443
3 449 446 445
3 447 448 451
3 449 450 453
3 454 452 451
3 442 471 455
3 448 443 456
3 450 445 455
3 448 457 459
3 450 458 460
3 427 451 459
3 453 460 462
3 428 427 461
3 428 463 467
3 431 465 468
3 433 467 469
3 440 435 468
3 442 437 469
3 440 470 456
3 463 488 476
3 468 465 473
3 467 476 478
3 468 477 479
3 471 469 478
3 470 479 481
3 471 480 482
3 457 456 481
3 458 455 482
3 457 483 485
3 460 458 484
3 461 459 485
3 460 486 475
3 463 461 487
3 483 481 489
3 484 482 491
3 483 490 493
3 484 492 494
3 487 485 493
3 486 494 496
3 488 487 495
3 488 497 501
3 473 499 502
3 476 501 503
3 479 477 502
3 480 478 503
3 479 504 489
3 480 505 491
3 497 519 506
3 499 521 507
3 501 506 508
3 504 502 507
3 505 503 508
3 504 509 511
3 505 510 512
3 490 489 511
3 492 491 512
3 490 513 515
3 492 514 516
3 495 493 515
3 494 516 518
3 497 495 517
3 514 512 523
3 513 539 525
3 514 524 526
3 517 515 525
3 516 526 528
3 519 517 527
3 519 529 533
3 507 521 531
3 506 533 535
3 507 534 536
3 510 508 535
3 509 536 538
3 510 537 523
3 513 511 538
3 531 554 540
3 533 556 541
3 536 534 540
3 537 535 541
3 536 542 544
3 537 543 545
3 539 538 544
3 524 523 545
3 539 546 548
3 524 547 549
3 527 525 548
3 528 526 549
3 529 527 550
3 529 552 556
3 548 546 31
3 547 2 7
3 550 548 3
3 549 7 11
3 552 550 8
3 552 13 19
3 540 554 14
3 556 19 23
3 542 540 20
3 541 23 27
3 544 542 24
3 543 27 0
3 546 544 28
3 547 545 0
