ply
format ascii 1.0
comment Created in Blender version 4.0.2
element vertex 517
property float x
property float y
property float z
property float nx
property float ny
property float nz
property float s
property float t
element face 460
property list uchar uint vertex_indices
end_header
-1.5165085 1.3103037 2.726662 -3.3248339 -3.324843 0.50114465 0.9563813 0.34186918
-1.5413246 1.3426449 0.017366432 -4.072081 -2.3510127 -0.50114465 0.9604064 0.3737943
-1.5165085 1.3103037 0.017366432 -3.3248408 -3.324838 -0.50114447 0.9563813 0.3737943
-1.5413246 1.3426449 2.726662 -4.0720835 -2.351011 0.50114435 0.9604064 0.34186918
-1.5569247 1.380307 0.017366432 -4.5418167 -1.2169679 -0.50114447 0.9640151 0.3737943
-1.5569247 1.380307 2.726662 -4.5418105 -1.2169822 0.5011447 0.92219913 0.11839342
-1.5622456 1.4207234 0.017366432 -4.7020316 6.67572e-06 -0.50114465 0.9251456 0.15031853
-1.5569247 1.380307 0.017366432 -4.5418167 -1.2169679 -0.50114447 0.92219913 0.15031853
-1.5622456 1.4207234 2.726662 -4.702037 7.867813e-06 0.501144 0.9251456 0.11839342
-1.5569247 1.4611397 0.017366432 -4.541814 1.2169702 -0.5011448 0.92875445 0.15031853
-1.5569247 1.4611397 2.726662 -4.541812 1.2169663 0.5011451 0.92875445 0.11839342
-1.5413247 1.4988017 0.017366432 -4.072078 2.3510213 -0.5011443 0.93277943 0.15031853
-1.5413247 1.4988017 2.726662 -4.0720863 2.351008 0.50114423 0.93277943 0.11839342
-1.5165083 1.531143 0.017366432 -3.3248265 3.324849 -0.5011448 0.9369465 0.15031853
-1.5165083 1.531143 2.726662 -3.3248484 3.324826 0.5011448 0.9369465 0.11839342
-1.4841673 1.5559592 0.017366432 -2.3510077 4.0720863 -0.5011443 0.9409716 0.15031853
-1.4841673 1.5559592 2.726662 -2.351008 4.072071 0.50114596 0.9409716 0.11839342
-1.4465052 1.5715592 0.017366432 -1.2169706 4.5418143 -0.50114477 0.94458044 0.15031853
-1.4465052 1.5715592 2.726662 -1.2169704 4.541814 0.5011448 0.94458044 0.11839342
-1.4060888 1.5768802 0.017366432 2.6226044e-06 4.702032 -0.50114465 0.94752693 0.15031853
-1.4060888 1.5768802 2.726662 -1.7404556e-05 4.702037 0.5011439 0.94458044 0.30994406
-1.3656725 1.5715592 0.017366432 1.2169846 4.541813 -0.50114447 0.94818914 0.34186918
-1.4060888 1.5768802 0.017366432 2.6226044e-06 4.702032 -0.50114465 0.94458044 0.34186918
-1.3656725 1.5715592 2.726662 1.2169682 4.541816 0.5011446 0.94818914 0.30994406
-1.3280104 1.555959 0.017366432 2.35102 4.072076 -0.50114465 0.95221424 0.34186918
-1.3280104 1.555959 2.726662 2.351013 4.0720797 0.50114465 0.95221424 0.30994406
-1.2956693 1.531143 0.017366432 3.3248408 3.324838 -0.50114447 0.9563813 0.34186918
-1.2956693 1.531143 2.726662 3.324837 3.3248398 0.5011446 0.9563813 0.30994406
-1.2708532 1.4988017 0.017366432 4.0720797 2.3510127 -0.5011447 0.9604064 0.34186918
-1.2708532 1.4988017 2.726662 4.072076 2.35102 0.50114465 0.9604064 0.30994406
-1.255253 1.4611397 0.017366432 4.5418167 1.2169689 -0.50114447 0.9640151 0.34186918
-1.255253 1.4611397 2.726662 4.541813 1.2169836 0.5011445 0.922199 0.15031853
-1.249932 1.4207234 0.017366432 4.702032 -7.390976e-06 -0.5011446 0.9251456 0.18224363
-1.255253 1.4611397 0.017366432 4.5418167 1.2169689 -0.50114447 0.922199 0.18224363
-1.249932 1.4207234 2.726662 4.702037 -8.106232e-06 0.501144 0.9251456 0.15031853
-1.255253 1.380307 0.017366432 4.5418134 -1.2169704 -0.5011448 0.92875445 0.18224363
-1.255253 1.380307 2.726662 4.5418143 -1.2169708 0.50114465 0.92875445 0.15031853
-1.270853 1.3426449 0.017366432 4.072078 -2.351021 -0.50114435 0.93277943 0.18224363
-1.270853 1.3426449 2.726662 4.072079 -2.3509946 0.50114596 0.93277943 0.15031853
-1.2956693 1.3103039 0.017366432 3.3248265 -3.324849 -0.5011448 0.9369465 0.18224363
-1.2956693 1.3103039 2.726662 3.3248477 -3.3248253 0.5011449 0.9369465 0.15031853
-1.3280104 1.2854874 0.017366432 2.351008 -4.072087 -0.50114423 0.9409716 0.18224363
-1.3280104 1.2854874 2.726662 2.3510213 -4.0720787 0.50114435 0.9409716 0.15031853
-1.3656725 1.2698874 0.017366432 1.2169698 -4.541814 -0.5011448 0.94458044 0.18224363
-1.3656725 1.2698874 2.726662 1.2169697 -4.541813 0.5011448 0.94458044 0.15031853
-1.4060888 1.2645667 0.017366432 -3.0994415e-06 -4.702031 -0.50114465 0.94752693 0.18224363
-1.4060888 1.2645667 2.726662 1.692772e-05 -4.702037 0.5011439 0.94458044 0.34186918
-1.4465052 1.2698874 0.017366432 -1.2169834 -4.5418134 -0.50114447 0.94818914 0.3737943
-1.4060888 1.2645667 0.017366432 -3.0994415e-06 -4.702031 -0.50114465 0.94458044 0.3737943
-1.2956693 1.3103039 2.726662 3.3248477 -3.3248253 0.5011449 0.9172244 0.46583834
-1.3656725 1.5715592 2.726662 1.2169682 4.541816 0.5011446 0.92780495 0.44029498
-1.5569247 1.380307 2.726662 -4.5418105 -1.2169822 0.5011447 0.94463587 0.46222958
-1.4465052 1.2698874 2.726662 -1.2169677 -4.5418167 0.5011445 0.94818914 0.34186918
-1.4841673 1.2854877 0.017366432 -2.35102 -4.0720778 -0.50114447 0.95221424 0.3737943
-1.4841673 1.2854877 2.726662 -2.3510118 -4.0720806 0.50114465 0.95221424 0.34186918
-1.249932 1.4207234 0.017366432 4.702032 -7.390976e-06 -0.5011446 0.94571435 0.48568937
-1.3280104 1.2854874 0.017366432 2.351008 -4.072087 -0.50114423 0.9396057 0.50043684
-1.4841673 1.2854877 0.017366432 -2.35102 -4.0720778 -0.50114447 0.9237797 0.5025204
0 2.466778 2.8883927 4.7683716e-07 4.7020345 0.5011443 0.83203125 0.41800657
0.638449 2.3827245 2.7157662 1.2169777 4.541816 -0.50114435 0.83406544 0.36099938
0 2.466778 2.7157662 -1.66893e-06 4.702034 -0.5011443 0.83406544 0.41800657
0.638449 2.3827245 2.8883927 1.2169777 4.5418153 0.50114435 0.83203125 0.36099938
1.2333889 2.1362925 2.7157662 2.3510163 4.0720806 -0.50114435 0.8340653 0.2974161
1.2333889 2.1362925 2.8883927 2.351016 4.0720797 0.50114447 0.83203125 0.2974161
1.7442755 1.7442753 2.7157662 3.32484 3.32484 -0.50114447 0.8340653 0.23158982
1.7442755 1.7442753 2.8883927 3.3248377 3.3248382 0.50114477 0.83203125 0.23158982
2.1362922 1.2333889 2.7157662 4.0720787 2.351015 -0.5011447 0.8340653 0.16800655
2.1362922 1.2333889 2.8883927 4.0720773 2.351015 0.50114477 0.83203125 0.16800655
2.3827243 0.638449 2.7157662 4.5418124 1.2169739 -0.50114477 0.8340653 0.110999346
2.3827243 0.638449 2.8883927 4.5418134 1.2169751 0.50114465 0.83203125 0.110999346
2.4667783 -1.7881393e-07 2.7157662 4.702032 1.9073486e-06 -0.5011446 0.8340653 0.064453125
2.4667783 -1.7881393e-07 2.8883927 4.702031 3.33786e-06 0.50114465 0.8360996 0.41800654
2.3827243 -0.63844895 2.7157662 4.541813 -1.2169739 -0.5011448 0.8381337 0.36099932
2.4667783 -1.7881393e-07 2.7157662 4.702032 1.9073486e-06 -0.5011446 0.8381337 0.41800654
2.3827243 -0.63844895 2.8883927 4.5418134 -1.2169725 0.5011448 0.8360996 0.36099932
2.1362925 -1.2333891 2.7157662 4.072079 -2.3510144 -0.5011446 0.8381337 0.29741603
2.1362925 -1.2333891 2.8883927 4.072082 -2.3510163 0.5011443 0.8360995 0.29741603
1.7442755 -1.7442756 2.7157662 3.32484 -3.3248396 -0.5011444 0.8381337 0.2315898
1.7442755 -1.7442756 2.8883927 3.3248396 -3.32484 0.50114435 0.8360995 0.2315898
1.2333891 -2.1362925 2.7157662 2.3510163 -4.072082 -0.5011443 0.8381337 0.16800651
1.2333891 -2.1362925 2.8883927 2.3510144 -4.072079 0.50114465 0.8360995 0.16800651
0.6384489 -2.3827243 2.7157662 1.216973 -4.541813 -0.50114477 0.8381337 0.110999316
0.6384489 -2.3827243 2.8883927 1.2169739 -4.541813 0.5011447 0.8360995 0.110999316
1.1920929e-07 -2.4667783 2.7157662 4.7683716e-07 -4.702032 -0.5011446 0.8381337 0.064453125
1.1920929e-07 -2.4667783 2.8883927 7.1525574e-07 -4.702031 0.50114465 0.83406544 0.41800654
-0.6384491 -2.3827243 2.7157662 -1.2169782 -4.541813 -0.50114465 0.8360995 0.36099932
1.1920929e-07 -2.4667783 2.7157662 4.7683716e-07 -4.702032 -0.5011446 0.8360995 0.41800654
-0.6384491 -2.3827243 2.8883927 -1.2169758 -4.5418115 0.5011449 0.83406544 0.36099932
-1.233389 -2.1362922 2.7157662 -2.3510156 -4.072077 -0.5011448 0.8360995 0.29741603
-1.233389 -2.1362922 2.8883927 -2.3510156 -4.0720797 0.50114447 0.83406544 0.29741603
-1.7442755 -1.7442756 2.7157662 -3.3248389 -3.3248384 -0.5011445 0.8360995 0.2315898
-1.7442755 -1.7442756 2.8883927 -3.3248386 -3.3248386 0.5011446 0.83406544 0.2315898
-2.1362925 -1.2333889 2.7157662 -4.0720797 -2.351016 -0.50114447 0.8360995 0.16800651
-2.1362925 -1.2333889 2.8883927 -4.0720816 -2.3510165 0.50114435 0.83406544 0.16800651
-2.3827245 -0.6384491 2.7157662 -4.5418167 -1.2169755 -0.50114435 0.8360995 0.110999316
-2.3827245 -0.6384491 2.8883927 -4.5418158 -1.2169741 0.50114435 0.83406544 0.110999316
-2.466778 -5.9604645e-08 2.7157662 -4.702034 -2.6226044e-06 -0.50114435 0.8360995 0.064453125
-2.466778 -5.9604645e-08 2.8883927 -4.702034 -2.6226044e-06 0.50114435 0.92016494 0.3769909
-2.3827245 0.63844895 2.7157662 -4.5418177 1.2169745 -0.5011442 0.92219913 0.3199837
-2.466778 -5.9604645e-08 2.7157662 -4.702034 -2.6226044e-06 -0.50114435 0.92219913 0.3769909
-2.3827245 0.63844895 2.8883927 -4.541816 1.2169749 0.50114435 0.92016494 0.3199837
-2.1362925 1.2333889 2.7157662 -4.0720816 2.3510158 -0.50114435 0.92219913 0.2564004
-2.1362925 1.2333889 2.8883927 -4.0720806 2.3510158 0.5011445 0.92016494 0.2564004
-1.7442755 1.7442753 2.7157662 -3.3248398 3.3248398 -0.50114447 0.922199 0.19057417
-1.7442755 1.7442753 2.8883927 -3.3248384 3.3248384 0.5011445 0.92016494 0.19057417
-1.2333889 2.1362925 2.7157662 -2.3510156 4.07208 -0.5011445 0.922199 0.1269909
-2.466778 -5.9604645e-08 2.8883927 -4.702034 -2.6226044e-06 0.50114435 0.40122843 0.9808619
1.2333891 -2.1362925 2.8883927 2.3510144 -4.072079 0.50114465 0.115005404 0.28985757
1.2333889 2.1362925 2.8883927 2.351016 4.0720797 0.50114447 0.8565442 0.38748336
-1.2333889 2.1362925 2.8883927 -2.3510158 4.0720816 0.50114435 0.92016494 0.1269909
-0.638449 2.3827245 2.7157662 -1.2169753 4.541817 -0.50114423 0.922199 0.06998369
-0.638449 2.3827245 2.8883927 -1.2169741 4.5418158 0.50114435 0.92016494 0.06998369
0 2.466778 2.7157662 -1.66893e-06 4.702034 -0.5011443 0.922199 0.023437504
2.3827243 -0.63844895 2.7157662 4.541813 -1.2169739 -0.5011448 0.8632335 0.7179857
-1.7442755 -1.7442756 2.7157662 -3.3248389 -3.3248384 -0.5011445 0.12169475 0.81561077
-0.638449 2.3827245 2.7157662 -1.2169753 4.541817 -0.50114423 0.4079183 0.12460677
-1.5165083 -1.3103037 2.726662 -3.3248372 3.3248372 0.5011448 0.934 0.30994406
-1.4841672 -1.2854877 0.017366432 -2.3510149 4.0720825 -0.5011443 0.9380251 0.34186918
-1.5165083 -1.3103037 0.017366432 -3.3248374 3.3248374 -0.5011447 0.934 0.34186918
-1.4841672 -1.2854877 2.726662 -2.3510017 4.0720744 0.501146 0.9380251 0.30994406
-1.4465051 -1.2698874 0.017366432 -1.2169707 4.541814 -0.50114465 0.9416338 0.34186918
-1.4465051 -1.2698874 2.726662 -1.2169706 4.5418134 0.5011448 0.9416338 0.30994406
-1.4060887 -1.2645667 0.017366432 2.3841858e-07 4.702033 -0.50114447 0.94458044 0.34186918
-1.4060887 -1.2645667 2.726662 -1.0251999e-05 4.702037 0.5011439 0.922199 0.21416874
-1.3656723 -1.2698874 0.017366432 1.2169713 4.541814 -0.50114477 0.92580783 0.24609385
-1.4060887 -1.2645667 0.017366432 2.3841858e-07 4.702033 -0.50114447 0.922199 0.24609385
-1.3656723 -1.2698874 2.726662 1.2169701 4.5418143 0.50114465 0.92580783 0.21416874
-1.3280102 -1.2854877 0.017366432 2.3510156 4.0720825 -0.5011443 0.92983294 0.24609385
-1.3280102 -1.2854877 2.726662 2.3510091 4.072087 0.50114423 0.92983294 0.21416874
-1.2956692 -1.3103039 0.017366432 3.3248374 3.3248374 -0.5011447 0.934 0.24609385
-1.2956692 -1.3103039 2.726662 3.3248386 3.3248377 0.50114465 0.934 0.21416874
-1.2708529 -1.3426449 0.017366432 4.072082 2.351015 -0.50114435 0.938025 0.24609385
-1.2708529 -1.3426449 2.726662 4.072084 2.3510115 0.50114423 0.938025 0.21416874
-1.2552528 -1.380307 0.017366432 4.541814 1.2169709 -0.50114477 0.9416338 0.24609385
-1.2552528 -1.380307 2.726662 4.541814 1.2169716 0.50114477 0.9416338 0.21416874
-1.2499319 -1.4207234 0.017366432 4.702032 0 -0.50114465 0.94458044 0.24609385
-1.2499319 -1.4207234 2.726662 4.702037 -1.0251999e-05 0.5011439 0.94458044 0.24609385
-1.2552528 -1.4611397 0.017366432 4.541814 -1.2169707 -0.50114477 0.94818914 0.27801895
-1.2499319 -1.4207234 0.017366432 4.702032 0 -0.50114465 0.94458044 0.27801895
-1.2552528 -1.4611397 2.726662 4.5418134 -1.2169718 0.5011447 0.94818914 0.24609385
-1.2708529 -1.498802 0.017366432 4.0720825 -2.3510153 -0.5011443 0.95221424 0.27801895
-1.2708529 -1.498802 2.726662 4.0720778 -2.3510091 0.5011452 0.95221424 0.24609385
-1.2956692 -1.531143 0.017366432 3.3248374 -3.3248374 -0.5011447 0.9563813 0.27801895
-1.2956692 -1.531143 2.726662 3.3248374 -3.3248374 0.5011448 0.9563813 0.24609385
-1.3280102 -1.5559592 0.017366432 2.3510156 -4.0720816 -0.5011443 0.9604064 0.27801895
-1.3280102 -1.5559592 2.726662 2.3510017 -4.0720744 0.501146 0.9604064 0.24609385
-1.3656723 -1.5715592 0.017366432 1.2169714 -4.5418134 -0.5011447 0.9640151 0.27801895
-1.3656723 -1.5715592 2.726662 1.2169704 -4.541814 0.5011448 0.9640151 0.24609385
-1.4060887 -1.5768802 0.017366432 -2.3841858e-07 -4.702033 -0.5011446 0.96696174 0.27801895
-1.4060887 -1.5768802 2.726662 1.0251999e-05 -4.702037 0.5011439 0.9364437 0.5352509
-1.4465051 -1.5715592 0.017366432 -1.2169708 -4.5418134 -0.5011447 0.9400525 0.56717604
-1.4060887 -1.5768802 0.017366432 -2.3841858e-07 -4.702033 -0.5011446 0.9364437 0.56717604
-1.4465051 -1.5715592 2.726662 -1.2169731 -4.541813 0.50114477 0.9400525 0.5352509
-1.4841672 -1.5559592 0.017366432 -2.3510153 -4.0720825 -0.5011443 0.9440776 0.56717604
-1.4841672 -1.5559592 2.726662 -2.3510091 -4.0720863 0.50114423 0.9440776 0.5352509
-1.5165083 -1.531143 0.017366432 -3.3248374 -3.3248374 -0.5011447 0.9482447 0.56717604
-1.5165083 -1.531143 2.726662 -3.3248382 -3.3248382 0.50114465 0.9482447 0.5352509
-1.5413245 -1.498802 0.017366432 -4.072082 -2.3510149 -0.5011443 0.9522697 0.56717604
-1.5413245 -1.498802 2.726662 -4.072084 -2.3510118 0.50114423 0.9522697 0.5352509
-1.5569246 -1.4611397 0.017366432 -4.541814 -1.2169709 -0.50114477 0.9558785 0.56717604
-1.5569246 -1.4611397 2.726662 -4.541814 -1.2169702 0.5011447 0.9558785 0.5352509
-1.5622455 -1.4207234 0.017366432 -4.702032 0 -0.50114465 0.9588251 0.56717604
-1.5622455 -1.4207234 2.726662 -4.702037 1.0251999e-05 0.5011439 0.92219913 0.30994406
-1.5569246 -1.380307 0.017366432 -4.541814 1.2169707 -0.50114477 0.92580783 0.34186918
-1.5622455 -1.4207234 0.017366432 -4.702032 0 -0.50114465 0.92219913 0.34186918
-1.3656723 -1.5715592 2.726662 1.2169704 -4.541814 0.5011448 0.9232775 0.09645884
-1.2552528 -1.4611397 2.726662 4.5418134 -1.2169718 0.5011447 0.93594146 0.08674146
-1.4465051 -1.2698874 2.726662 -1.2169706 4.5418134 0.5011448 0.9527725 0.108676046
-1.5569246 -1.380307 2.726662 -4.541814 1.2169707 0.5011447 0.92580783 0.30994406
-1.5413245 -1.3426449 0.017366432 -4.072083 2.3510153 -0.5011443 0.92983294 0.34186918
-1.5413245 -1.3426449 2.726662 -4.0720778 2.3510082 0.5011452 0.92983294 0.30994406
-1.4060887 -1.2645667 0.017366432 2.3841858e-07 4.702033 -0.50114447 0.9278048 0.503599
-1.2708529 -1.3426449 0.017366432 4.072082 2.351015 -0.50114435 0.9425523 0.50970757
-1.4060887 -1.5768802 0.017366432 -2.3841858e-07 -4.702033 -0.5011446 0.9319719 0.53525096
1.3093234 1.5311427 2.726662 -3.3248365 3.324838 0.5011448 0.934 0.34186918
1.3416644 1.555959 0.017366432 -2.3510156 4.0720816 -0.5011443 0.9380251 0.3737943
1.3093234 1.5311427 0.017366432 -3.3248382 3.3248367 -0.5011447 0.934 0.3737943
1.3416644 1.555959 2.726662 -2.3510017 4.0720744 0.501146 0.9380251 0.34186918
1.3793266 1.5715592 0.017366432 -1.2169707 4.541814 -0.50114465 0.9416338 0.3737943
1.3793266 1.5715592 2.726662 -1.2169706 4.5418134 0.5011448 0.9416338 0.34186918
1.419743 1.57688 0.017366432 2.3841858e-07 4.702033 -0.50114447 0.94458044 0.3737943
1.419743 1.57688 2.726662 -1.0251999e-05 4.702037 0.5011439 0.922199 0.27801895
1.4601593 1.5715592 0.017366432 1.2169708 4.5418134 -0.5011447 0.92580783 0.30994406
1.419743 1.57688 0.017366432 2.3841858e-07 4.702033 -0.50114447 0.922199 0.30994406
1.4601593 1.5715592 2.726662 1.2169703 4.5418143 0.50114465 0.92580783 0.27801895
1.4978215 1.555959 0.017366432 2.3510153 4.0720825 -0.5011443 0.92983294 0.30994406
1.4978215 1.555959 2.726662 2.3510091 4.0720863 0.50114423 0.92983294 0.27801895
1.5301625 1.5311427 0.017366432 3.3248374 3.3248374 -0.5011447 0.934 0.30994406
1.5301625 1.5311427 2.726662 3.3248386 3.3248377 0.50114465 0.934 0.27801895
1.5549787 1.4988017 0.017366432 4.072082 2.351015 -0.50114435 0.938025 0.30994406
1.5549787 1.4988017 2.726662 4.072084 2.3510118 0.50114423 0.938025 0.27801895
1.5705788 1.4611397 0.017366432 4.541814 1.2169709 -0.50114477 0.9416338 0.30994406
1.5705788 1.4611397 2.726662 4.5418134 1.2169718 0.50114477 0.9416338 0.27801895
1.5758997 1.4207232 0.017366432 4.702032 0 -0.50114465 0.94458044 0.30994406
1.5758997 1.4207232 2.726662 4.702037 -1.0251999e-05 0.5011439 0.94458044 0.27801895
1.5705788 1.380307 0.017366432 4.541814 -1.2169707 -0.50114477 0.94818914 0.30994406
1.5705788 1.380307 2.726662 4.5418143 -1.2169708 0.5011447 0.94818914 0.27801895
1.5549787 1.3426447 0.017366432 4.072083 -2.3510153 -0.5011443 0.95221424 0.30994406
1.5549787 1.3426447 2.726662 4.0720778 -2.3510082 0.5011452 0.95221424 0.27801895
1.5301625 1.3103037 0.017366432 3.3248374 -3.3248374 -0.5011447 0.9563813 0.30994406
1.5301625 1.3103037 2.726662 3.3248374 -3.3248374 0.5011448 0.9563813 0.27801895
1.4978215 1.2854874 0.017366432 2.3510149 -4.0720825 -0.5011443 0.9604063 0.30994406
1.4978215 1.2854874 2.726662 2.3510017 -4.0720744 0.501146 0.9604063 0.27801895
1.4601593 1.2698874 0.017366432 1.2169707 -4.541814 -0.5011447 0.9640151 0.30994406
1.4601593 1.2698874 2.726662 1.2169704 -4.541814 0.50114477 0.9640151 0.27801895
1.419743 1.2645664 0.017366432 -2.3841858e-07 -4.702033 -0.5011446 0.96696174 0.30994406
1.419743 1.2645664 2.726662 1.0251999e-05 -4.702037 0.5011439 0.94458044 0.21416874
1.3793266 1.2698874 0.017366432 -1.2169713 -4.541814 -0.50114477 0.94818914 0.24609385
1.419743 1.2645664 0.017366432 -2.3841858e-07 -4.702033 -0.5011446 0.94458044 0.24609385
1.3793266 1.2698874 2.726662 -1.2169728 -4.5418134 0.5011448 0.94818914 0.21416874
1.3416644 1.2854874 0.017366432 -2.3510153 -4.0720825 -0.5011443 0.95221424 0.24609385
1.3416644 1.2854874 2.726662 -2.3510091 -4.0720863 0.50114423 0.95221424 0.21416874
1.3093234 1.3103037 0.017366432 -3.3248374 -3.3248374 -0.5011447 0.9563813 0.24609385
1.3093234 1.3103037 2.726662 -3.3248382 -3.3248382 0.50114465 0.9563813 0.21416874
1.2845072 1.3426447 0.017366432 -4.072082 -2.351015 -0.5011443 0.9604064 0.24609385
1.2845072 1.3426447 2.726662 -4.072084 -2.3510115 0.50114423 0.9604064 0.21416874
1.2689071 1.380307 0.017366432 -4.541814 -1.2169709 -0.50114477 0.9640151 0.24609385
1.2689071 1.380307 2.726662 -4.5418143 -1.2169701 0.5011447 0.9640151 0.21416874
1.2635862 1.4207232 0.017366432 -4.702032 0 -0.50114465 0.96696174 0.24609385
1.2635862 1.4207232 2.726662 -4.702037 1.0251999e-05 0.5011439 0.92219913 0.34186918
1.2689071 1.4611397 0.017366432 -4.541814 1.2169707 -0.50114477 0.92580783 0.3737943
1.2635862 1.4207232 0.017366432 -4.702032 0 -0.50114465 0.92219913 0.3737943
1.4601593 1.2698874 2.726662 1.2169704 -4.541814 0.50114477 0.92536104 0.029546138
1.5705788 1.380307 2.726662 4.5418143 -1.2169708 0.5011447 0.94010854 0.023437502
1.3793266 1.5715592 2.726662 -1.2169706 4.5418134 0.5011448 0.95068896 0.048980847
1.2689071 1.4611397 2.726662 -4.541814 1.2169707 0.5011447 0.92580783 0.34186918
1.2845072 1.4988017 0.017366432 -4.072083 2.3510153 -0.5011443 0.92983294 0.3737943
1.2845072 1.4988017 2.726662 -4.0720773 2.351009 0.5011452 0.92983294 0.34186918
1.419743 1.57688 0.017366432 2.3841858e-07 4.702033 -0.50114447 0.94413364 0.056167975
1.5549787 1.4988017 0.017366432 4.072082 2.351015 -0.50114435 0.953851 0.06883189
1.419743 1.2645664 0.017366432 -2.3841858e-07 -4.702033 -0.5011446 0.9319165 0.085662946
1.3093233 -1.5311427 2.726662 -3.3248382 -3.3248382 0.50114465 0.92586327 0.5352509
1.284507 -1.4988015 0.017366432 -4.07208 -2.3510156 -0.5011445 0.92988837 0.56717604
1.3093233 -1.5311427 0.017366432 -3.3248394 -3.3248394 -0.5011445 0.92586327 0.56717604
1.284507 -1.4988015 2.726662 -4.0720778 -2.3510184 0.5011446 0.92988837 0.5352509
1.268907 -1.4611397 0.017366432 -4.541812 -1.2169778 -0.5011447 0.9334972 0.56717604
1.268907 -1.4611397 2.726662 -4.5418115 -1.2169772 0.5011448 0.9334972 0.5352509
1.2635859 -1.4207232 0.017366432 -4.702034 -2.1457672e-06 -0.5011443 0.9364437 0.56717604
1.2635859 -1.4207232 2.726662 -4.702038 7.867813e-06 0.5011438 0.92219913 0.24609385
1.2689068 -1.3803067 0.017366432 -4.541813 1.2169868 -0.50114435 0.92580783 0.27801895
1.2635859 -1.4207232 0.017366432 -4.702034 -2.1457672e-06 -0.5011443 0.92219913 0.27801895
1.2689068 -1.3803067 2.726662 -4.5418124 1.216987 0.5011443 0.92580783 0.24609385
1.2845072 -1.3426449 0.017366432 -4.0720744 2.3510175 -0.501145 0.92983294 0.27801895
1.2845072 -1.3426449 2.726662 -4.072074 2.3510177 0.501145 0.92983294 0.24609385
1.3093233 -1.3103037 0.017366432 -3.3248408 3.3248408 -0.5011442 0.934 0.27801895
1.3093233 -1.3103037 2.726662 -3.3248413 3.3248413 0.5011442 0.934 0.24609385
1.3416646 -1.2854874 0.017366432 -2.3510177 4.072074 -0.50114495 0.9380251 0.27801895
1.3416646 -1.2854874 2.726662 -2.3510175 4.072074 0.501145 0.9380251 0.24609385
1.3793265 -1.2698872 0.017366432 -1.2169858 4.5418134 -0.50114435 0.9416338 0.27801895
1.3793265 -1.2698872 2.726662 -1.2169864 4.541813 0.50114435 0.9416338 0.24609385
1.4197428 -1.2645662 0.017366432 3.33786e-06 4.702033 -0.50114447 0.94458044 0.27801895
1.4197428 -1.2645662 2.726662 -7.390976e-06 4.702038 0.5011437 0.922199 0.18224363
1.4601593 -1.2698872 0.017366432 1.2169771 4.541812 -0.5011447 0.92580783 0.21416874
1.4197428 -1.2645662 0.017366432 3.33786e-06 4.702033 -0.50114447 0.922199 0.21416874
1.4601593 -1.2698872 2.726662 1.2169762 4.5418134 0.50114465 0.92580783 0.18224363
1.4978212 -1.2854874 0.017366432 2.351015 4.072081 -0.50114435 0.92983294 0.21416874
1.4978212 -1.2854874 2.726662 2.3510041 4.0720897 0.5011442 0.92983294 0.18224363
1.5301625 -1.3103037 0.017366432 3.3248394 3.3248394 -0.5011445 0.934 0.21416874
1.5301625 -1.3103037 2.726662 3.3248374 3.3248374 0.5011447 0.934 0.18224363
1.5549787 -1.3426449 0.017366432 4.072081 2.351015 -0.5011445 0.938025 0.21416874
1.5549787 -1.3426449 2.726662 4.0720873 2.3510065 0.5011443 0.938025 0.18224363
1.5705788 -1.3803067 0.017366432 4.541812 1.2169772 -0.5011447 0.9416338 0.21416874
1.5705788 -1.3803067 2.726662 4.5418134 1.216976 0.50114465 0.9416338 0.18224363
1.5758998 -1.4207232 0.017366432 4.702033 3.33786e-06 -0.50114447 0.94458044 0.21416874
1.5758998 -1.4207232 2.726662 4.7020383 -7.6293945e-06 0.5011438 0.94458044 0.18224365
1.5705789 -1.4611397 0.017366432 4.5418134 -1.2169862 -0.50114435 0.94818926 0.21416874
1.5705789 -1.4611397 2.726662 4.541813 -1.2169864 0.50114435 0.94818926 0.18224365
1.5549786 -1.4988015 0.017366432 4.0720735 -2.3510172 -0.50114506 0.95221424 0.21416874
1.5549786 -1.4988015 2.726662 4.072074 -2.3510177 0.50114495 0.95221424 0.18224365
1.5301623 -1.5311427 0.017366432 3.3248408 -3.3248408 -0.5011442 0.9563813 0.21416874
1.5301623 -1.5311427 2.726662 3.3248413 -3.3248413 0.5011442 0.9563813 0.18224365
1.4978212 -1.555959 0.017366432 2.3510184 -4.0720754 -0.5011448 0.9604064 0.21416874
1.4978212 -1.555959 2.726662 2.3510175 -4.0720735 0.501145 0.9604064 0.18224365
1.4601593 -1.5715592 0.017366432 1.2169867 -4.541813 -0.50114435 0.96401525 0.21416874
1.4601593 -1.5715592 2.726662 1.2169871 -4.5418124 0.50114435 0.96401525 0.18224365
1.419743 -1.5768802 0.017366432 -2.861023e-06 -4.7020335 -0.50114435 0.96696174 0.21416874
1.419743 -1.5768802 2.726662 8.106232e-06 -4.7020383 0.5011437 0.9140624 0.5352509
1.3793265 -1.5715592 0.017366432 -1.2169778 -4.541812 -0.50114477 0.9176712 0.56717604
1.419743 -1.5768802 0.017366432 -2.861023e-06 -4.7020335 -0.50114435 0.9140624 0.56717604
1.5301623 -1.5311427 2.726662 3.3248413 -3.3248413 0.5011442 0.9278048 0.40864292
1.4601593 -1.2698872 2.726662 1.2169762 4.5418134 0.50114465 0.9172244 0.38309953
1.268907 -1.4611397 2.726662 -4.5418115 -1.2169772 0.5011448 0.94463587 0.3867083
1.3793265 -1.5715592 2.726662 -1.216977 -4.541811 0.5011448 0.9176712 0.5352509
1.3416646 -1.555959 0.017366432 -2.3510156 -4.0720806 -0.50114447 0.9216962 0.56717604
1.3416646 -1.555959 2.726662 -2.3510158 -4.0720806 0.50114447 0.9216962 0.5352509
1.4978212 -1.555959 0.017366432 2.3510184 -4.0720754 -0.5011448 0.9278048 0.4402949
1.3416646 -1.555959 0.017366432 -2.3510156 -4.0720806 -0.50114447 0.91514087 0.43057752
1.3416646 -1.2854874 0.017366432 -2.3510177 4.072074 -0.50114495 0.9319719 0.40864295
-1.5569247 1.380307 2.726662 -4.5418105 -1.2169822 0.5011447 0.9640151 0.34186918
-1.4060888 1.5768802 2.726662 -1.7404556e-05 4.702037 0.5011439 0.94752693 0.11839342
-1.255253 1.4611397 2.726662 4.541813 1.2169836 0.5011445 0.9640151 0.30994406
-1.4060888 1.2645667 2.726662 1.692772e-05 -4.702037 0.5011439 0.94752693 0.15031853
-1.5413246 1.3426449 2.726662 -4.0720835 -2.351011 0.50114435 0.9425523 0.46583837
-1.5165085 1.3103037 2.726662 -3.3248339 -3.324843 0.50114465 0.93960583 0.46878493
-1.4841673 1.2854877 2.726662 -2.3510118 -4.0720806 0.50114465 0.935997 0.47086844
-1.4465052 1.2698874 2.726662 -1.2169677 -4.5418167 0.5011445 0.9319719 0.47194695
-1.4060888 1.2645667 2.726662 1.692772e-05 -4.702037 0.5011439 0.9278048 0.47194695
-1.3656725 1.2698874 2.726662 1.2169697 -4.541813 0.5011448 0.92377985 0.47086844
-1.3280104 1.2854874 2.726662 2.3510213 -4.0720787 0.50114435 0.920171 0.4687849
-1.270853 1.3426449 2.726662 4.072079 -2.3509946 0.50114596 0.91514087 0.46222958
-1.255253 1.380307 2.726662 4.5418143 -1.2169708 0.50114465 0.9140624 0.45820448
-1.249932 1.4207234 2.726662 4.702037 -8.106232e-06 0.501144 0.9140624 0.45403743
-1.255253 1.4611397 2.726662 4.541813 1.2169836 0.5011445 0.915141 0.45001236
-1.2708532 1.4988017 2.726662 4.072076 2.35102 0.50114465 0.9172245 0.44640356
-1.2956693 1.531143 2.726662 3.324837 3.3248398 0.5011446 0.920171 0.443457
-1.3280104 1.555959 2.726662 2.351013 4.0720797 0.50114465 0.92377985 0.4413735
-1.4060888 1.5768802 2.726662 -1.7404556e-05 4.702037 0.5011439 0.9319719 0.44029498
-1.4465052 1.5715592 2.726662 -1.2169704 4.541814 0.5011448 0.935997 0.4413735
-1.4841673 1.5559592 2.726662 -2.351008 4.072071 0.50114596 0.93960583 0.44345704
-1.5165083 1.531143 2.726662 -3.3248484 3.324826 0.5011448 0.9425523 0.4464036
-1.5413247 1.4988017 2.726662 -4.0720863 2.351008 0.50114423 0.94463587 0.4500124
-1.5569247 1.4611397 2.726662 -4.541812 1.2169663 0.5011451 0.94571435 0.45403746
-1.5622456 1.4207234 2.726662 -4.702037 7.867813e-06 0.501144 0.94571435 0.4582045
-1.5165085 1.3103037 0.017366432 -3.3248408 -3.324838 -0.50114447 0.920171 0.50043684
-1.5413246 1.3426449 0.017366432 -4.072081 -2.3510127 -0.50114465 0.9172244 0.49749032
-1.5569247 1.380307 0.017366432 -4.5418167 -1.2169679 -0.50114447 0.91514087 0.49388152
-1.5622456 1.4207234 0.017366432 -4.7020316 6.67572e-06 -0.50114465 0.9140624 0.48985645
-1.5569247 1.4611397 0.017366432 -4.541814 1.2169702 -0.5011448 0.9140624 0.4856894
-1.4841673 1.5559592 0.017366432 -2.3510077 4.0720863 -0.5011443 0.9201709 0.47510898
-1.5413247 1.4988017 0.017366432 -4.072078 2.3510213 -0.5011443 0.91514087 0.4816643
-1.5165083 1.531143 0.017366432 -3.3248265 3.324849 -0.5011448 0.9172244 0.47805554
-1.4465052 1.5715592 0.017366432 -1.2169706 4.5418143 -0.50114477 0.9237797 0.47302544
-1.3280104 1.555959 0.017366432 2.35102 4.072076 -0.50114465 0.9359969 0.47302544
-1.4060888 1.5768802 0.017366432 2.6226044e-06 4.702032 -0.50114465 0.9278048 0.47194692
-1.3656725 1.5715592 0.017366432 1.2169846 4.541813 -0.50114447 0.9319719 0.47194692
-1.2956693 1.531143 0.017366432 3.3248408 3.324838 -0.50114447 0.9396057 0.47510895
-1.2708532 1.4988017 0.017366432 4.0720797 2.3510127 -0.5011447 0.9425523 0.4780555
-1.255253 1.4611397 0.017366432 4.5418167 1.2169689 -0.50114447 0.94463587 0.4816643
-1.255253 1.380307 0.017366432 4.5418134 -1.2169704 -0.5011448 0.94571435 0.48985642
-1.270853 1.3426449 0.017366432 4.072078 -2.351021 -0.50114435 0.94463587 0.4938815
-1.2956693 1.3103039 0.017366432 3.3248265 -3.324849 -0.5011448 0.9425523 0.4974903
-1.3656725 1.2698874 0.017366432 1.2169698 -4.541814 -0.5011448 0.935997 0.5025204
-1.4060888 1.2645667 0.017366432 -3.0994415e-06 -4.702031 -0.50114465 0.9319719 0.50359887
-1.4465052 1.2698874 0.017366432 -1.2169834 -4.5418134 -0.50114447 0.9278048 0.50359887
2.4667783 -1.7881393e-07 2.8883927 4.702031 3.33786e-06 0.50114465 0.83203125 0.064453125
1.1920929e-07 -2.4667783 2.8883927 7.1525574e-07 -4.702031 0.50114465 0.8360995 0.064453125
-2.466778 -5.9604645e-08 2.8883927 -4.702034 -2.6226044e-06 0.50114435 0.83406544 0.064453125
0.638449 2.3827245 2.8883927 1.2169777 4.5418153 0.50114435 0.8857203 0.49637038
0 2.466778 2.8883927 4.7683716e-07 4.7020345 0.5011443 0.88572025 0.6090986
-0.638449 2.3827245 2.8883927 -1.2169741 4.5418158 0.50114435 0.856544 0.7179856
-1.2333889 2.1362925 2.8883927 -2.3510158 4.0720816 0.50114435 0.8001799 0.815611
-1.7442755 1.7442753 2.8883927 -3.3248384 3.3248384 0.5011445 0.72046906 0.89532185
-2.1362925 1.2333889 2.8883927 -4.0720806 2.3510158 0.5011445 0.6228436 0.9516858
-2.3827245 0.63844895 2.8883927 -4.541816 1.2169749 0.50114435 0.51395655 0.9808619
-2.3827245 -0.6384491 2.8883927 -4.5418158 -1.2169741 0.50114435 0.29234144 0.95168567
-1.233389 -2.1362922 2.8883927 -2.3510156 -4.0720797 0.50114447 0.058641165 0.71798515
-2.1362925 -1.2333889 2.8883927 -4.0720816 -2.3510165 0.50114435 0.194716 0.8953215
-1.7442755 -1.7442756 2.8883927 -3.3248386 -3.3248386 0.5011446 0.115005225 0.8156106
-0.6384491 -2.3827243 2.8883927 -1.2169758 -4.5418115 0.5011449 0.02946508 0.6090982
1.1920929e-07 -2.4667783 2.8883927 7.1525574e-07 -4.702031 0.50114465 0.02946508 0.49636996
0.6384489 -2.3827243 2.8883927 1.2169739 -4.541813 0.5011447 0.058641344 0.38748306
1.7442755 -1.7442756 2.8883927 3.3248396 -3.32484 0.50114435 0.19471633 0.21014677
2.1362925 -1.2333891 2.8883927 4.072082 -2.3510163 0.5011443 0.29234177 0.15378277
2.3827243 -0.63844895 2.8883927 4.5418134 -1.2169725 0.5011448 0.40122885 0.124606684
2.4667783 -1.7881393e-07 2.8883927 4.702031 3.33786e-06 0.50114465 0.5139569 0.124606684
2.3827243 0.638449 2.8883927 4.5418134 1.2169751 0.50114465 0.622844 0.15378298
2.1362922 1.2333889 2.8883927 4.0720773 2.351015 0.50114477 0.72046936 0.2101471
1.7442755 1.7442753 2.8883927 3.3248377 3.3248382 0.50114477 0.80018014 0.28985798
0 2.466778 2.8883927 4.7683716e-07 4.7020345 0.5011443 0.92016494 0.023437504
0 2.466778 2.7157662 -1.66893e-06 4.702034 -0.5011443 0.52064645 0.12460686
0.638449 2.3827245 2.7157662 1.2169777 4.541816 -0.50114435 0.6295334 0.15378307
1.2333889 2.1362925 2.7157662 2.3510163 4.0720806 -0.50114435 0.72715884 0.21014719
1.7442755 1.7442753 2.7157662 3.32484 3.32484 -0.50114447 0.8068696 0.2898581
2.1362922 1.2333889 2.7157662 4.0720787 2.351015 -0.5011447 0.8632337 0.38748348
2.3827243 0.638449 2.7157662 4.5418124 1.2169739 -0.50114477 0.8924098 0.4963705
2.4667783 -1.7881393e-07 2.7157662 4.702032 1.9073486e-06 -0.5011446 0.8924098 0.6090987
2.1362925 -1.2333891 2.7157662 4.072079 -2.3510144 -0.5011446 0.80686945 0.8156111
1.7442755 -1.7442756 2.7157662 3.32484 -3.3248396 -0.5011444 0.72715855 0.89532185
1.2333891 -2.1362925 2.7157662 2.3510163 -4.072082 -0.5011443 0.6295332 0.951686
0.6384489 -2.3827243 2.7157662 1.216973 -4.541813 -0.50114477 0.5206461 0.980862
1.1920929e-07 -2.4667783 2.7157662 4.7683716e-07 -4.702032 -0.5011446 0.40791798 0.980862
-0.6384491 -2.3827243 2.7157662 -1.2169782 -4.541813 -0.50114465 0.29903096 0.9516858
-1.233389 -2.1362922 2.7157662 -2.3510156 -4.072077 -0.5011448 0.20140553 0.8953216
-2.1362925 -1.2333889 2.7157662 -4.0720797 -2.351016 -0.50114447 0.065330684 0.7179854
-2.3827245 -0.6384491 2.7157662 -4.5418167 -1.2169755 -0.50114435 0.03615457 0.60909826
-2.466778 -5.9604645e-08 2.7157662 -4.702034 -2.6226044e-06 -0.50114435 0.036154598 0.49637014
-2.3827245 0.63844895 2.7157662 -4.5418177 1.2169745 -0.5011442 0.06533086 0.38748318
-2.1362925 1.2333889 2.7157662 -4.0720816 2.3510158 -0.50114435 0.12169492 0.28985775
-1.7442755 1.7442753 2.7157662 -3.3248398 3.3248398 -0.50114447 0.2014058 0.21014698
-1.2333889 2.1362925 2.7157662 -2.3510156 4.07208 -0.5011445 0.29903126 0.15378298
-1.4060887 -1.2645667 2.726662 -1.0251999e-05 4.702037 0.5011439 0.94458044 0.30994406
-1.2499319 -1.4207234 2.726662 4.702037 -1.0251999e-05 0.5011439 0.94458044 0.21416874
-1.4060887 -1.5768802 2.726662 1.0251999e-05 -4.702037 0.5011439 0.96696174 0.24609385
-1.5622455 -1.4207234 2.726662 -4.702037 1.0251999e-05 0.5011439 0.9588251 0.5352509
-1.4841672 -1.2854877 2.726662 -2.3510017 4.0720744 0.501146 0.95068896 0.11228484
-1.5165083 -1.3103037 2.726662 -3.3248372 3.3248372 0.5011448 0.94774234 0.115231395
-1.5413245 -1.3426449 2.726662 -4.0720778 2.3510082 0.5011452 0.94413364 0.11731492
-1.5569246 -1.380307 2.726662 -4.541814 1.2169707 0.5011447 0.94010854 0.118393436
-1.5622455 -1.4207234 2.726662 -4.702037 1.0251999e-05 0.5011439 0.93594146 0.118393436
-1.5569246 -1.4611397 2.726662 -4.541814 -1.2169702 0.5011447 0.93191636 0.11731492
-1.5413245 -1.498802 2.726662 -4.072084 -2.3510118 0.50114423 0.92830765 0.11523138
-1.5165083 -1.531143 2.726662 -3.3248382 -3.3248382 0.50114465 0.92536104 0.112284824
-1.4841672 -1.5559592 2.726662 -2.3510091 -4.0720863 0.50114423 0.9232775 0.108676046
-1.4465051 -1.5715592 2.726662 -1.2169731 -4.541813 0.50114477 0.922199 0.10465096
-1.4060887 -1.5768802 2.726662 1.0251999e-05 -4.702037 0.5011439 0.922199 0.10048391
-1.3280102 -1.5559592 2.726662 2.3510017 -4.0720744 0.501146 0.92536104 0.092850044
-1.2956692 -1.531143 2.726662 3.3248374 -3.3248374 0.5011448 0.92830765 0.08990349
-1.2708529 -1.498802 2.726662 4.0720778 -2.3510091 0.5011452 0.93191636 0.08781996
-1.2499319 -1.4207234 2.726662 4.702037 -1.0251999e-05 0.5011439 0.94010854 0.08674146
-1.2552528 -1.380307 2.726662 4.541814 1.2169716 0.50114477 0.94413364 0.08781998
-1.2708529 -1.3426449 2.726662 4.072084 2.3510115 0.50114423 0.94774246 0.0899035
-1.2956692 -1.3103039 2.726662 3.3248386 3.3248377 0.50114465 0.95068896 0.09285006
-1.3280102 -1.2854877 2.726662 2.3510091 4.072087 0.50114423 0.9527725 0.09645884
-1.3656723 -1.2698874 2.726662 1.2169701 4.5418143 0.50114465 0.953851 0.100483924
-1.4060887 -1.2645667 2.726662 -1.0251999e-05 4.702037 0.5011439 0.953851 0.104650974
-1.5413245 -1.3426449 0.017366432 -4.072083 2.3510153 -0.5011443 0.91514087 0.51331633
-1.5165083 -1.3103037 0.017366432 -3.3248374 3.3248374 -0.5011447 0.9172244 0.50970757
-1.4841672 -1.2854877 0.017366432 -2.3510149 4.0720825 -0.5011443 0.9201709 0.506761
-1.4465051 -1.2698874 0.017366432 -1.2169707 4.541814 -0.50114465 0.9237797 0.5046775
-1.3656723 -1.2698874 0.017366432 1.2169713 4.541814 -0.50114477 0.9319719 0.503599
-1.3280102 -1.2854877 0.017366432 2.3510156 4.0720825 -0.5011443 0.9359969 0.5046775
-1.2956692 -1.3103039 0.017366432 3.3248374 3.3248374 -0.5011447 0.9396057 0.506761
-1.2552528 -1.380307 0.017366432 4.541814 1.2169709 -0.50114477 0.94463575 0.51331633
-1.2499319 -1.4207234 0.017366432 4.702032 0 -0.50114465 0.94571435 0.51734143
-1.2552528 -1.4611397 0.017366432 4.541814 -1.2169707 -0.50114477 0.94571435 0.52150846
-1.2708529 -1.498802 0.017366432 4.0720825 -2.3510153 -0.5011443 0.94463587 0.52553356
-1.2956692 -1.531143 0.017366432 3.3248374 -3.3248374 -0.5011447 0.9425523 0.5291423
-1.3280102 -1.5559592 0.017366432 2.3510156 -4.0720816 -0.5011443 0.9396057 0.5320889
-1.3656723 -1.5715592 0.017366432 1.2169714 -4.5418134 -0.5011447 0.9359969 0.5341724
-1.4465051 -1.5715592 0.017366432 -1.2169708 -4.5418134 -0.5011447 0.9278048 0.53525096
-1.5413245 -1.498802 0.017366432 -4.072082 -2.3510149 -0.5011443 0.9172244 0.5291424
-1.4841672 -1.5559592 0.017366432 -2.3510153 -4.0720825 -0.5011443 0.9237797 0.5341724
-1.5165083 -1.531143 0.017366432 -3.3248374 -3.3248374 -0.5011447 0.9201709 0.53208894
-1.5569246 -1.4611397 0.017366432 -4.541814 -1.2169709 -0.50114477 0.91514087 0.52553356
-1.5622455 -1.4207234 0.017366432 -4.702032 0 -0.50114465 0.9140624 0.52150846
-1.5569246 -1.380307 0.017366432 -4.541814 1.2169707 -0.50114477 0.9140624 0.51734143
1.419743 1.57688 2.726662 -1.0251999e-05 4.702037 0.5011439 0.94458044 0.34186918
1.419743 1.2645664 2.726662 1.0251999e-05 -4.702037 0.5011439 0.96696174 0.27801895
1.2635862 1.4207232 2.726662 -4.702037 1.0251999e-05 0.5011439 0.96696174 0.21416874
1.3416644 1.555959 2.726662 -2.3510017 4.0720744 0.501146 0.94774246 0.051927425
1.3093234 1.5311427 2.726662 -3.3248365 3.324838 0.5011448 0.94413364 0.054010957
1.2845072 1.4988017 2.726662 -4.0720773 2.351009 0.5011452 0.94010866 0.05508948
1.2689071 1.4611397 2.726662 -4.541814 1.2169707 0.5011447 0.9359416 0.05508948
1.2635862 1.4207232 2.726662 -4.702037 1.0251999e-05 0.5011439 0.9319165 0.05401098
1.2689071 1.380307 2.726662 -4.5418143 -1.2169701 0.5011447 0.92830765 0.051927455
1.2845072 1.3426447 2.726662 -4.072084 -2.3510115 0.50114423 0.92536116 0.048980903
1.3093234 1.3103037 2.726662 -3.3248382 -3.3248382 0.50114465 0.9232776 0.04537213
1.3416644 1.2854874 2.726662 -2.3510091 -4.0720863 0.50114423 0.922199 0.041347064
1.3793266 1.2698874 2.726662 -1.2169728 -4.5418134 0.5011448 0.922199 0.03717999
1.419743 1.2645664 2.726662 1.0251999e-05 -4.702037 0.5011439 0.9232775 0.03315492
1.4978215 1.2854874 2.726662 2.3510017 -4.0720744 0.501146 0.92830765 0.02659956
1.5301625 1.3103037 2.726662 3.3248374 -3.3248374 0.5011448 0.93191636 0.024516027
1.5549787 1.3426447 2.726662 4.0720778 -2.3510082 0.5011452 0.93594146 0.023437502
1.5758997 1.4207232 2.726662 4.702037 -1.0251999e-05 0.5011439 0.94413364 0.024516005
1.5705788 1.4611397 2.726662 4.5418134 1.2169718 0.50114477 0.94774234 0.026599528
1.5549787 1.4988017 2.726662 4.072084 2.3510118 0.50114423 0.95068896 0.029546082
1.5301625 1.5311427 2.726662 3.3248386 3.3248377 0.50114465 0.9527725 0.033154856
1.4978215 1.555959 2.726662 2.3510091 4.0720863 0.50114423 0.953851 0.037179917
1.4601593 1.5715592 2.726662 1.2169703 4.5418143 0.50114465 0.953851 0.04134699
1.419743 1.57688 2.726662 -1.0251999e-05 4.702037 0.5011439 0.9527725 0.04537206
1.2845072 1.4988017 0.017366432 -4.072083 2.3510153 -0.5011443 0.92830765 0.058251526
1.3093234 1.5311427 0.017366432 -3.3248382 3.3248367 -0.5011447 0.93191636 0.056167994
1.3416644 1.555959 0.017366432 -2.3510156 4.0720816 -0.5011443 0.93594146 0.05508947
1.3793266 1.5715592 0.017366432 -1.2169707 4.541814 -0.50114465 0.94010854 0.05508947
1.4601593 1.5715592 0.017366432 1.2169708 4.5418134 -0.5011447 0.94774234 0.058251496
1.4978215 1.555959 0.017366432 2.3510153 4.0720825 -0.5011443 0.95068896 0.06119805
1.5301625 1.5311427 0.017366432 3.3248374 3.3248374 -0.5011447 0.9527725 0.06480682
1.5705788 1.4611397 0.017366432 4.541814 1.2169709 -0.50114477 0.953851 0.072998956
1.5758997 1.4207232 0.017366432 4.702032 0 -0.50114465 0.9527725 0.07702403
1.5705788 1.380307 0.017366432 4.541814 -1.2169707 -0.50114477 0.95068896 0.08063281
1.5549787 1.3426447 0.017366432 4.072083 -2.3510153 -0.5011443 0.94774246 0.08357939
1.5301625 1.3103037 0.017366432 3.3248374 -3.3248374 -0.5011447 0.94413364 0.085662924
1.4978215 1.2854874 0.017366432 2.3510149 -4.0720825 -0.5011443 0.94010866 0.08674145
1.4601593 1.2698874 0.017366432 1.2169707 -4.541814 -0.5011447 0.9359416 0.08674145
1.3793266 1.2698874 0.017366432 -1.2169713 -4.541814 -0.50114477 0.92830765 0.08357942
1.2845072 1.3426447 0.017366432 -4.072082 -2.351015 -0.5011443 0.922199 0.07299903
1.3416644 1.2854874 0.017366432 -2.3510153 -4.0720825 -0.5011443 0.92536104 0.080632865
1.3093234 1.3103037 0.017366432 -3.3248374 -3.3248374 -0.5011447 0.9232776 0.077024095
1.2689071 1.380307 0.017366432 -4.541814 -1.2169709 -0.50114477 0.922199 0.06883196
1.2635862 1.4207232 0.017366432 -4.702032 0 -0.50114465 0.9232775 0.064806886
1.2689071 1.4611397 0.017366432 -4.541814 1.2169707 -0.50114477 0.92536104 0.061198104
1.2635859 -1.4207232 2.726662 -4.702038 7.867813e-06 0.5011438 0.9364437 0.5352509
1.4197428 -1.2645662 2.726662 -7.390976e-06 4.702038 0.5011437 0.94458044 0.24609385
1.5758998 -1.4207232 2.726662 4.7020383 -7.6293945e-06 0.5011438 0.94458044 0.18224363
1.419743 -1.5768802 2.726662 8.106232e-06 -4.7020383 0.5011437 0.96696174 0.18224365
1.284507 -1.4988015 2.726662 -4.0720778 -2.3510184 0.5011446 0.94571435 0.39073336
1.3093233 -1.5311427 2.726662 -3.3248382 -3.3248382 0.50114465 0.94571435 0.39490044
1.3416646 -1.555959 2.726662 -2.3510158 -4.0720806 0.50114447 0.94463587 0.3989255
1.3793265 -1.5715592 2.726662 -1.216977 -4.541811 0.5011448 0.9425523 0.4025343
1.419743 -1.5768802 2.726662 8.106232e-06 -4.7020383 0.5011437 0.9396057 0.40548086
1.4601593 -1.5715592 2.726662 1.2169871 -4.5418124 0.50114435 0.935997 0.4075644
1.4978212 -1.555959 2.726662 2.3510175 -4.0720735 0.501145 0.9319719 0.4086429
1.5549786 -1.4988015 2.726662 4.072074 -2.3510177 0.50114495 0.9237797 0.40756437
1.5705788 -1.3803067 2.726662 4.5418134 1.216976 0.50114465 0.91514087 0.3989255
1.5705789 -1.4611397 2.726662 4.541813 -1.2169864 0.50114435 0.920171 0.40548086
1.5758998 -1.4207232 2.726662 4.7020383 -7.6293945e-06 0.5011438 0.9172244 0.4025343
1.5549787 -1.3426449 2.726662 4.0720873 2.3510065 0.5011443 0.9140624 0.39490044
1.5301625 -1.3103037 2.726662 3.3248374 3.3248374 0.5011447 0.9140624 0.3907334
1.4978212 -1.2854874 2.726662 2.3510041 4.0720897 0.5011442 0.91514087 0.3867083
1.4197428 -1.2645662 2.726662 -7.390976e-06 4.702038 0.5011437 0.920171 0.38015297
1.3793265 -1.2698872 2.726662 -1.2169864 4.541813 0.50114435 0.9237797 0.37806943
1.3416646 -1.2854874 2.726662 -2.3510175 4.072074 0.501145 0.9278048 0.37699094
1.3093233 -1.3103037 2.726662 -3.3248413 3.3248413 0.5011442 0.9319719 0.3769909
1.2845072 -1.3426449 2.726662 -4.072074 2.3510177 0.501145 0.935997 0.37806943
1.2689068 -1.3803067 2.726662 -4.5418124 1.216987 0.5011443 0.9396057 0.38015297
1.2635859 -1.4207232 2.726662 -4.702038 7.867813e-06 0.5011438 0.9425523 0.3830995
1.3093233 -1.5311427 0.017366432 -3.3248394 -3.3248394 -0.5011445 0.9140624 0.42655244
1.284507 -1.4988015 0.017366432 -4.07208 -2.3510156 -0.5011445 0.9140624 0.42238536
1.268907 -1.4611397 0.017366432 -4.541812 -1.2169778 -0.5011447 0.91514087 0.41836032
1.2635859 -1.4207232 0.017366432 -4.702034 -2.1457672e-06 -0.5011443 0.9172244 0.41475153
1.2689068 -1.3803067 0.017366432 -4.541813 1.2169868 -0.50114435 0.920171 0.41180497
1.2845072 -1.3426449 0.017366432 -4.0720744 2.3510175 -0.501145 0.9237797 0.40972146
1.3093233 -1.3103037 0.017366432 -3.3248408 3.3248408 -0.5011442 0.9278048 0.40864292
1.3793265 -1.2698872 0.017366432 -1.2169858 4.5418134 -0.50114435 0.935997 0.40972143
1.4197428 -1.2645662 0.017366432 3.33786e-06 4.702033 -0.50114447 0.9396057 0.41180497
1.4601593 -1.2698872 0.017366432 1.2169771 4.541812 -0.5011447 0.9425523 0.41475153
1.4978212 -1.2854874 0.017366432 2.351015 4.072081 -0.50114435 0.94463587 0.41836032
1.5301625 -1.3103037 0.017366432 3.3248394 3.3248394 -0.5011445 0.94571435 0.4223854
1.5549787 -1.3426449 0.017366432 4.072081 2.351015 -0.5011445 0.94571435 0.42655247
1.5705788 -1.3803067 0.017366432 4.541812 1.2169772 -0.5011447 0.94463587 0.43057752
1.5758998 -1.4207232 0.017366432 4.702033 3.33786e-06 -0.50114447 0.9425523 0.4341863
1.5705789 -1.4611397 0.017366432 4.5418134 -1.2169862 -0.50114435 0.9396057 0.43713287
1.5549786 -1.4988015 0.017366432 4.0720735 -2.3510172 -0.50114506 0.935997 0.43921638
1.5301623 -1.5311427 0.017366432 3.3248408 -3.3248408 -0.5011442 0.9319719 0.44029492
1.4601593 -1.5715592 0.017366432 1.2169867 -4.541813 -0.50114435 0.9237797 0.4392164
1.419743 -1.5768802 0.017366432 -2.861023e-06 -4.7020335 -0.50114435 0.920171 0.43713287
1.3793265 -1.5715592 0.017366432 -1.2169778 -4.541812 -0.50114477 0.9172244 0.4341863
3 0 1 2
3 3 4 1
3 5 6 7
3 8 9 6
3 10 11 9
3 12 13 11
3 14 15 13
3 16 17 15
3 18 19 17
3 20 21 22
3 23 24 21
3 25 26 24
3 27 28 26
3 29 30 28
3 31 32 33
3 34 35 32
3 36 37 35
3 38 39 37
3 40 41 39
3 42 43 41
3 44 45 43
3 46 47 48
3 49 50 51
3 52 53 47
3 54 2 53
3 55 56 57
3 58 59 60
3 61 62 59
3 63 64 62
3 65 66 64
3 67 68 66
3 69 70 68
3 71 72 73
3 74 75 72
3 76 77 75
3 78 79 77
3 80 81 79
3 82 83 81
3 84 85 86
3 87 88 85
3 89 90 88
3 91 92 90
3 93 94 92
3 95 96 94
3 97 98 99
3 100 101 98
3 102 103 101
3 104 105 103
3 106 107 108
3 109 110 105
3 111 112 110
3 113 114 115
3 116 117 118
3 119 120 117
3 121 122 120
3 123 124 125
3 126 127 124
3 128 129 127
3 130 131 129
3 132 133 131
3 134 135 133
3 136 137 138
3 139 140 137
3 141 142 140
3 143 144 142
3 145 146 144
3 147 148 146
3 149 150 151
3 152 153 150
3 154 155 153
3 156 157 155
3 158 159 157
3 160 161 159
3 162 163 164
3 165 166 167
3 168 169 163
3 170 118 169
3 171 172 173
3 174 175 176
3 177 178 175
3 179 180 178
3 181 182 183
3 184 185 182
3 186 187 185
3 188 189 187
3 190 191 189
3 192 193 191
3 194 195 193
3 196 197 195
3 198 199 197
3 200 201 199
3 202 203 201
3 204 205 203
3 206 207 208
3 209 210 207
3 211 212 210
3 213 214 212
3 215 216 214
3 217 218 216
3 219 220 221
3 222 223 224
3 225 226 220
3 227 176 226
3 228 229 230
3 231 232 233
3 234 235 232
3 236 237 235
3 238 239 240
3 241 242 239
3 243 244 242
3 245 246 244
3 247 248 246
3 249 250 248
3 251 252 253
3 254 255 252
3 256 257 255
3 258 259 257
3 260 261 259
3 262 263 261
3 264 265 263
3 266 267 265
3 268 269 267
3 270 271 269
3 272 273 271
3 274 275 273
3 276 277 278
3 279 280 281
3 282 283 277
3 284 233 283
3 285 286 287
3 0 3 1
3 3 288 4
3 5 8 6
3 8 10 9
3 10 12 11
3 12 14 13
3 14 16 15
3 16 18 17
3 18 289 19
3 20 23 21
3 23 25 24
3 25 27 26
3 27 29 28
3 29 290 30
3 31 34 32
3 34 36 35
3 36 38 37
3 38 40 39
3 40 42 41
3 42 44 43
3 44 291 45
3 46 52 47
3 51 292 293
3 293 294 51
3 294 295 51
3 295 296 297
3 297 298 49
3 49 299 300
3 300 301 302
3 302 303 50
3 303 304 50
3 304 305 50
3 50 306 307
3 307 308 309
3 309 310 311
3 311 312 51
3 295 297 51
3 297 49 51
3 49 300 50
3 300 302 50
3 50 307 51
3 307 309 51
3 309 311 51
3 52 54 53
3 54 0 2
3 57 313 314
3 314 315 316
3 316 317 318
3 317 319 318
3 319 320 318
3 318 321 322
3 321 323 322
3 323 324 322
3 322 325 326
3 326 327 55
3 55 328 56
3 328 329 56
3 329 330 56
3 56 331 57
3 331 332 57
3 332 333 57
3 57 314 316
3 322 326 55
3 57 316 318
3 318 322 57
3 322 55 57
3 58 61 59
3 61 63 62
3 63 65 64
3 65 67 66
3 67 69 68
3 69 334 70
3 71 74 72
3 74 76 75
3 76 78 77
3 78 80 79
3 80 82 81
3 82 335 83
3 84 87 85
3 87 89 88
3 89 91 90
3 91 93 92
3 93 95 94
3 95 336 96
3 97 100 98
3 100 102 101
3 102 104 103
3 104 109 105
3 108 337 338
3 338 339 108
3 339 340 108
3 340 341 342
3 342 343 106
3 106 344 345
3 344 346 345
3 346 347 345
3 345 348 349
3 349 350 345
3 350 107 345
3 107 351 352
3 352 353 107
3 353 354 107
3 354 355 108
3 355 356 108
3 356 357 108
3 340 342 108
3 342 106 108
3 106 345 107
3 107 354 108
3 109 111 110
3 111 358 112
3 115 359 360
3 360 361 362
3 362 363 364
3 364 365 113
3 113 366 367
3 367 368 369
3 369 370 371
3 371 372 114
3 114 373 374
3 374 375 376
3 376 377 378
3 378 379 115
3 115 360 362
3 362 364 113
3 113 367 369
3 369 371 114
3 114 374 376
3 376 378 115
3 115 362 113
3 113 369 114
3 114 376 115
3 116 119 117
3 119 121 120
3 121 380 122
3 123 126 124
3 126 128 127
3 128 130 129
3 130 132 131
3 132 134 133
3 134 381 135
3 136 139 137
3 139 141 140
3 141 143 142
3 143 145 144
3 145 147 146
3 147 382 148
3 149 152 150
3 152 154 153
3 154 156 155
3 156 158 157
3 158 160 159
3 160 383 161
3 162 168 163
3 167 384 385
3 385 386 387
3 387 388 389
3 389 390 391
3 391 392 393
3 393 394 165
3 165 395 396
3 396 397 166
3 166 398 399
3 399 400 401
3 401 402 403
3 403 404 167
3 167 385 387
3 387 389 167
3 389 391 167
3 391 393 165
3 165 396 166
3 166 399 401
3 401 403 166
3 403 167 166
3 391 165 167
3 168 170 169
3 170 116 118
3 405 406 407
3 407 408 405
3 408 171 405
3 171 409 172
3 409 410 172
3 410 411 172
3 172 412 413
3 413 414 415
3 415 416 417
3 417 418 415
3 418 173 415
3 173 419 420
3 419 421 420
3 421 422 420
3 420 423 424
3 424 425 405
3 172 413 173
3 413 415 173
3 420 424 173
3 424 405 173
3 405 171 173
3 174 177 175
3 177 179 178
3 179 426 180
3 181 184 182
3 184 186 185
3 186 188 187
3 188 190 189
3 190 192 191
3 192 194 193
3 194 196 195
3 196 198 197
3 198 200 199
3 200 202 201
3 202 204 203
3 204 427 205
3 206 209 207
3 209 211 210
3 211 213 212
3 213 215 214
3 215 217 216
3 217 428 218
3 219 225 220
3 224 429 430
3 430 431 432
3 432 433 434
3 434 435 436
3 436 437 438
3 438 439 222
3 222 440 441
3 441 442 223
3 223 443 444
3 444 445 446
3 446 447 448
3 448 449 224
3 224 430 432
3 432 434 224
3 434 436 224
3 436 438 222
3 222 441 223
3 223 444 446
3 446 448 223
3 448 224 223
3 436 222 224
3 225 227 226
3 227 174 176
3 450 451 452
3 452 453 450
3 453 228 450
3 228 454 229
3 454 455 229
3 455 456 229
3 229 457 458
3 458 459 460
3 460 461 462
3 462 463 460
3 463 230 460
3 230 464 465
3 464 466 465
3 466 467 465
3 465 468 469
3 469 470 450
3 229 458 230
3 458 460 230
3 465 469 230
3 469 450 230
3 450 228 230
3 231 234 232
3 234 236 235
3 236 471 237
3 238 241 239
3 241 243 242
3 243 245 244
3 245 247 246
3 247 249 248
3 249 472 250
3 251 254 252
3 254 256 255
3 256 258 257
3 258 260 259
3 260 262 261
3 262 473 263
3 264 266 265
3 266 268 267
3 268 270 269
3 270 272 271
3 272 274 273
3 274 474 275
3 276 282 277
3 281 475 476
3 476 477 478
3 478 479 480
3 480 481 478
3 481 279 478
3 279 482 483
3 482 484 483
3 484 485 483
3 483 486 487
3 487 488 280
3 280 489 490
3 490 491 280
3 491 492 280
3 492 493 281
3 493 494 281
3 494 495 281
3 281 476 279
3 476 478 279
3 483 487 280
3 279 483 280
3 280 492 281
3 282 284 283
3 284 231 233
3 286 496 497
3 497 498 286
3 498 499 286
3 499 500 501
3 501 502 287
3 287 503 504
3 504 505 287
3 505 506 287
3 506 507 508
3 508 509 506
3 509 510 506
3 510 511 512
3 512 513 285
3 285 514 515
3 515 516 285
3 516 286 285
3 499 501 286
3 501 287 286
3 510 512 285
3 287 506 510
3 510 285 287
